<?xml version="1.0" encoding="utf-8"?>
<svg version="1.1" xmlns:xlink="http://www.w3.org/1999/xlink" width="10px" height="10px" xmlns="http://www.w3.org/2000/svg">
  <g transform="matrix(1 0 0 1 -832 -851 )">
    <path d="M 837 851  C 839.8 851  842 853.2  842 856  C 842 858.8  839.8 861  837 861  C 834.2 861  832 858.8  832 856  C 832 853.2  834.2 851  837 851  Z " fill-rule="nonzero" fill="#02a7f0" stroke="none" />
    <path d="M 837 851.5  C 839.52 851.5  841.5 853.48  841.5 856  C 841.5 858.52  839.52 860.5  837 860.5  C 834.48 860.5  832.5 858.52  832.5 856  C 832.5 853.48  834.48 851.5  837 851.5  Z " stroke-width="1" stroke="#02a7f0" fill="none" />
  </g>
</svg>