<?xml version="1.0" encoding="utf-8"?>
<svg version="1.1" xmlns:xlink="http://www.w3.org/1999/xlink" width="12px" height="12px" viewBox="980 2084  12 12" xmlns="http://www.w3.org/2000/svg">
  <path d="M 986 2084  C 989.36 2084  992 2086.64  992 2090  C 992 2093.36  989.36 2096  986 2096  C 982.64 2096  980 2093.36  980 2090  C 980 2086.64  982.64 2084  986 2084  Z " fill-rule="nonzero" fill="#ffffff" stroke="none" />
  <path d="M 986 2084.5  C 989.08 2084.5  991.5 2086.92  991.5 2090  C 991.5 2093.08  989.08 2095.5  986 2095.5  C 982.92 2095.5  980.5 2093.08  980.5 2090  C 980.5 2086.92  982.92 2084.5  986 2084.5  Z " stroke-width="1" stroke="#797979" fill="none" />
  <path d="M 986 2093  C 984.32 2093  983 2091.68  983 2090  C 983 2088.32  984.32 2087  986 2087  C 987.68 2087  989 2088.32  989 2090  C 989 2091.68  987.68 2093  986 2093  " fill-rule="nonzero" fill="#797979" stroke="none" />
</svg>