<?xml version="1.0" encoding="utf-8"?>
<svg version="1.1" xmlns:xlink="http://www.w3.org/1999/xlink" width="12px" height="12px" viewBox="980 2107  12 12" xmlns="http://www.w3.org/2000/svg">
  <path d="M 986 2107  C 989.36 2107  992 2109.64  992 2113  C 992 2116.36  989.36 2119  986 2119  C 982.64 2119  980 2116.36  980 2113  C 980 2109.64  982.64 2107  986 2107  Z " fill-rule="nonzero" fill="#f0f0f0" stroke="none" />
  <path d="M 986 2107.5  C 989.08 2107.5  991.5 2109.92  991.5 2113  C 991.5 2116.08  989.08 2118.5  986 2118.5  C 982.92 2118.5  980.5 2116.08  980.5 2113  C 980.5 2109.92  982.92 2107.5  986 2107.5  Z " stroke-width="1" stroke="#797979" fill="none" />
  <path d="M 986 2116  C 984.32 2116  983 2114.68  983 2113  C 983 2111.32  984.32 2110  986 2110  C 987.68 2110  989 2111.32  989 2113  C 989 2114.68  987.68 2116  986 2116  " fill-rule="nonzero" fill="#797979" stroke="none" />
</svg>