<?xml version="1.0" standalone="no"?><!DOCTYPE svg PUBLIC "-//W3C//DTD SVG 1.1//EN" "http://www.w3.org/Graphics/SVG/1.1/DTD/svg11.dtd"><svg t="1542361810084" class="icon" style="" viewBox="0 0 1024 1024" version="1.1" xmlns="http://www.w3.org/2000/svg" p-id="4748" xmlns:xlink="http://www.w3.org/1999/xlink" width="32" height="32"><defs><style type="text/css"></style></defs><path d="M512 1024C229.230282 1024 0 794.769718 0 512S229.230282 0 512 0s512 229.230282 512 512-229.230282 512-512 512z m0-1005.72393C239.331831 18.27607 18.288344 239.319557 18.288344 512s221.043487 493.711656 493.711656 493.711656 493.760752-221.043487 493.760752-493.711656S784.668169 18.27607 512 18.27607z m0 822.865034c-169.381982 0-308.790718-128.018411-326.993144-292.576689h653.986288C820.790718 713.122693 681.40653 841.141104 512 841.141104z m192.003069-420.570552c-35.349283 0-64.009206-36.82217-64.009206-82.23618s28.659922-82.23618 64.009206-82.23618 63.996931 36.82217 63.996931 82.23618-28.586278 82.23618-63.996931 82.23618z m-384.006138 0c-35.337009 0-63.996931-36.82217-63.996931-82.23618s28.659922-82.23618 63.996931-82.23618 64.009206 36.82217 64.009206 82.23618-28.659922 82.23618-64.009206 82.23618z" fill="" p-id="4749"></path></svg>