<?xml version="1.0" standalone="no"?><!DOCTYPE svg PUBLIC "-//W3C//DTD SVG 1.1//EN" "http://www.w3.org/Graphics/SVG/1.1/DTD/svg11.dtd"><svg t="1542362078665" class="icon" style="" viewBox="0 0 1024 1024" version="1.1" xmlns="http://www.w3.org/2000/svg" p-id="5499" xmlns:xlink="http://www.w3.org/1999/xlink" width="32" height="32"><defs><style type="text/css"></style></defs><path d="M288 480c54.4 0 96-41.6 96-96s-41.6-96-96-96-96 41.6-96 96 41.6 96 96 96z m0-128c19.2 0 32 12.8 32 32s-12.8 32-32 32-32-12.8-32-32 12.8-32 32-32z m576-192H160c-54.4 0-96 41.6-96 96v512c0 54.4 41.6 96 96 96h704c54.4 0 96-41.6 96-96V256c0-54.4-41.6-96-96-96zM128 768V256c0-19.2 12.8-32 32-32h704c19.2 0 32 12.8 32 32v364.8L726.4 451.2c-38.4-38.4-99.2-38.4-134.4 0L243.2 800H160c-19.2 0-32-12.8-32-32z m736 32H332.8l304-304c12.8-12.8 32-12.8 44.8 0L896 710.4V768c0 19.2-12.8 32-32 32z" p-id="5500"></path></svg>