<?xml version="1.0" standalone="no"?><!DOCTYPE svg PUBLIC "-//W3C//DTD SVG 1.1//EN" "http://www.w3.org/Graphics/SVG/1.1/DTD/svg11.dtd"><svg t="1542682252263" class="icon" style="" viewBox="0 0 1092 1024" version="1.1" xmlns="http://www.w3.org/2000/svg" p-id="1969" xmlns:xlink="http://www.w3.org/1999/xlink" width="34.125" height="32"><defs><style type="text/css"></style></defs><path d="M397.65632 313.34400031L297.43232 415.29600031c52.15999969 115.84000031 162.88000031 244.92799969 291.264 288.25599938l86.65600031-86.4s205.44 35.83999969 251.52 58.30400062c40.06399969 19.392 53.24800031 62.4 47.04 115.45599938-6.78400031 57.08800031-81.47200031 182.84800031-216.12800062 184.25600062-134.65600031 1.27999969-332.928-100.09600031-475.008-249.792C140.76032 575.744 14.10432031 385.92000031 34.32831969 224.89599969 54.61632031 63.74400031 194.96832031 34.94400031 230.10432031 32.384c35.45599969-2.56000031 63.67999969 7.80799969 85.11999938 34.30399969 27.52000031 34.176 82.43200031 246.65599969 82.43200031 246.65600062zM283.86432031 100.03200031C267.09632 78.20799969 238.42431969 74.49600031 209.75232031 81.27999969 184.21632031 87.296 91.35231969 125.82399969 78.16832 229.11999969c-14.592 114.75199969 71.04 309.05599969 224.64 457.60000031 153.6 148.67200031 301.69600031 235.392 428.86399969 245.76 127.23199969 10.43200031 189.312-101.568 198.40000031-135.29599969 9.024-33.6 1.536-67.584-16.76800031-81.15200062-23.232-17.28-223.36000031-52.992-223.35999938-52.992l-90.816 89.472c-149.31199969-48.64000031-289.85599969-184.57600031-349.69600031-350.71999969l99.19999969-99.84c-0.06400031 0-48-180.096-64.76799938-201.85600031z" fill="#000000" p-id="1970"></path><path d="M813.01632031 103.616l167.29599938 167.232h-458.23999969a18.30400031 18.30400031 0 0 0 0 36.60799969h458.23999969L813.01632031 474.68799969a18.30400031 18.30400031 0 0 0 25.92 25.85600062L1037.01632 302.336l0.31999969-0.25600031a18.24 18.24 0 0 0 0-25.85599969l-0.31999969-0.31999969L838.93632031 77.76000031a18.30400031 18.30400031 0 0 0-25.92 25.85599969z" fill="#000000" p-id="1971"></path></svg>