<?xml version="1.0" encoding="utf-8"?>
<svg version="1.1" xmlns:xlink="http://www.w3.org/1999/xlink" width="34px" height="34px" xmlns="http://www.w3.org/2000/svg">
  <g transform="matrix(1 0 0 1 -581 -348 )">
    <path d="M 14.9362980769231 3.17801339285714  C 14.4322916666667 2.67838541666667  13.8125 2.42857142857143  13.0769230769231 2.42857142857143  C 12.354967948718 2.42857142857143  11.7385817307692 2.66573660714286  11.2277644230769 3.14006696428571  C 10.7169471153846 3.61439732142857  10.4615384615385 4.18675595238095  10.4615384615385 4.85714285714286  L 10.4615384615385 14.5714285714286  L 10.4615384615385 21.8571428571429  L 7.37620192307692 18.0245535714286  C 6.81770833333333 17.3415178571429  6.08894230769231 17  5.18990384615385 17  C 4.48157051282051 17  3.87540064102564 17.2403273809524  3.37139423076923 17.7209821428571  C 2.86738782051282 18.2016369047619  2.61538461538462 18.7708333333333  2.61538461538462 19.4285714285714  C 2.61538461538462 19.9724702380952  2.79246794871795 20.4594494047619  3.14663461538462 20.8895089285714  L 10.9927884615385 30.6037946428571  C 11.5104166666667 31.2488839285714  12.2051282051282 31.5714285714286  13.0769230769231 31  L 27.7475961538462 31  C 28.0472756410256 31.5714285714286  28.3163060897436 31.4860491071429  28.5546875 31.3152901785714  C 28.7930689102564 31.14453125  28.9463141025641 30.9263392857143  29.0144230769231 30.6607142857143  L 30.8942307692308 23.6785714285714  C 31.2211538461538 22.4642857142857  31.3846153846154 21.2373511904762  31.3846153846154 19.9977678571429  L 31.3846153846154 15.8805803571429  C 31.3846153846154 15.3619791666667  31.1939102564103 14.9129464285714  30.8125 14.5334821428571  C 30.4310897435897 14.1540178571429  29.9679487179487 13.9642857142857  29.4230769230769 13.9642857142857  C 28.8782051282051 13.9642857142857  28.4150641025641 14.141369047619  28.0336538461538 14.4955357142857  C 27.6522435897436 14.8497023809524  27.4615384615385 15.2797619047619  27.4615384615385 15.7857142857143  L 26.8076923076923 15.7857142857143  L 26.8076923076923 14.6283482142857  C 26.8076923076923 14.0212053571429  26.5897435897436 13.5057663690476  26.1538461538462 13.08203125  C 25.7179487179487 12.6582961309524  25.1730769230769 12.4464285714286  24.5192307692308 12.4464285714286  C 23.8926282051282 12.4464285714286  23.3545673076923 12.6551339285714  22.9050480769231 13.0725446428571  C 22.4555288461538 13.4899553571429  22.2307692307692 13.9895833333333  22.2307692307692 14.5714285714286  L 22.2307692307692 15.7857142857143  L 21.5769230769231 15.7857142857143  L 21.5769230769231 14.078125  C 21.5769230769231 13.3824404761905  21.3249198717949 12.7847842261905  20.8209134615385 12.28515625  C 20.3169070512821 11.7855282738095  19.6971153846154 11.5357142857143  18.9615384615385 11.5357142857143  C 18.2395833333333 11.5357142857143  17.6231971153846 11.7728794642857  17.1123798076923 12.2472098214286  C 16.6015625 12.7215401785714  16.3461538461538 13.2938988095238  16.3461538461538 13.9642857142857  L 16.3461538461538 15.7857142857143  L 16 15.7857142857143  L 16 4.97098214285714  C 15.6923076923077 4.27529761904762  15.4403044871795 3.67764136904762  14.9362980769231 3.17801339285714  Z M 9.37860576923077 1.42299107142857  C 10.4002403846154 0.474330357142859  11.6330128205128 0  13.0769230769231 0  C 14.5344551282051 0  15.7706330128205 0.490141369047621  16.7854567307692 1.47042410714286  C 17.800280448718 2.45070684523809  18.3076923076923 3.61755952380952  18.3076923076923 4.97098214285714  L 18.3076923076923 9.14508928571429  C 18.6073717948718 9.11979166666667  18.8253205128205 9.10714285714286  18.9615384615385 9.10714285714286  C 20.3100961538462 9.10714285714286  21.4883814102564 9.54352678571429  22.4963942307692 10.4162946428571  C 23.1366185897436 10.1506696428571  23.8108974358974 10.0178571428571  24.5192307692308 10.0178571428571  C 26.0584935897436 10.0178571428571  27.3116987179487 10.5680803571429  28.2788461538462 11.6685267857143  C 28.6466346153846 11.5799851190476  29.0280448717949 11.5357142857143  29.4230769230769 11.5357142857143  C 30.7035256410256 11.5357142857143  31.7864583333333 11.9626116071429  32.671875 12.81640625  C 33.5572916666667 13.6702008928571  34 14.6915922619048  34 15.8805803571429  L 34 19.9977678571429  C 34 21.4650297619048  33.8092948717949 22.8880208333333  33.4278846153846 24.2667410714286  L 31.5480769230769 31.2488839285714  C 31.3301282051282 32.0584077380952  30.8669871794872 32.7193080357143  30.1586538461538 33.2315848214286  C 29.4503205128205 33.7438616071429  28.6466346153846 34  27.7475961538462 34  L 13.0769230769231 34  C 12.2596153846154 34  11.4797676282051 33.8260788690476  10.7373798076923 33.4782366071429  C 9.99499198717949 33.1303943452381  9.37860576923077 32.6592261904762  8.88822115384615 32.0647321428571  L 1.04206730769231 22.3504464285714  C 0.347355769230769 21.4903273809524  0 20.516369047619  0 19.4285714285714  C 0 18.1004464285714  0.507411858974359 16.9588913690476  1.52223557692308 16.00390625  C 2.53705929487179 15.0489211309524  3.75961538461538 14.5714285714286  5.18990384615385 14.5714285714286  C 6.15705128205128 14.5714285714286  7.04246794871795 14.7927827380952  8 15.2354910714286  L 8 4.85714285714286  C 7.84615384615385 3.51636904761904  8.35697115384615 2.37165178571429  9.37860576923077 1.42299107142857  Z M 15.0384615384615 26.7142857142857  L 15.6923076923077 26.7142857142857  L 15.6923076923077 19.4285714285714  L 15.0384615384615 19.4285714285714  L 15.0384615384615 26.7142857142857  Z M 20.2692307692308 26.7142857142857  L 20.9230769230769 26.7142857142857  L 20.9230769230769 19.4285714285714  L 20.2692307692308 19.4285714285714  L 20.2692307692308 26.7142857142857  Z M 25.5 26.7142857142857  L 26.1538461538462 26.7142857142857  L 26.1538461538462 19.4285714285714  L 25.5 19.4285714285714  L 25.5 26.7142857142857  Z " fill-rule="nonzero" fill="#7f7f7f" stroke="none" transform="matrix(1 0 0 1 581 348 )" />
  </g>
</svg>