<?xml version="1.0" encoding="utf-8"?>
<svg version="1.1" xmlns:xlink="http://www.w3.org/1999/xlink" width="12px" height="12px" viewBox="1990 3098.5  12 12" xmlns="http://www.w3.org/2000/svg">
  <path d="M 1996 3098.5  C 1999.36 3098.5  2002 3101.14  2002 3104.5  C 2002 3107.86  1999.36 3110.5  1996 3110.5  C 1992.64 3110.5  1990 3107.86  1990 3104.5  C 1990 3101.14  1992.64 3098.5  1996 3098.5  Z " fill-rule="nonzero" fill="#ffffff" stroke="none" />
  <path d="M 1996 3099  C 1999.08 3099  2001.5 3101.42  2001.5 3104.5  C 2001.5 3107.58  1999.08 3110  1996 3110  C 1992.92 3110  1990.5 3107.58  1990.5 3104.5  C 1990.5 3101.42  1992.92 3099  1996 3099  Z " stroke-width="1" stroke="#797979" fill="none" />
  <path d="M 1996 3107.5  C 1994.32 3107.5  1993 3106.18  1993 3104.5  C 1993 3102.82  1994.32 3101.5  1996 3101.5  C 1997.68 3101.5  1999 3102.82  1999 3104.5  C 1999 3106.18  1997.68 3107.5  1996 3107.5  " fill-rule="nonzero" fill="#797979" stroke="none" />
</svg>