<?xml version="1.0" encoding="utf-8"?>
<svg version="1.1" xmlns:xlink="http://www.w3.org/1999/xlink" width="12px" height="12px" viewBox="430 337.5  12 12" xmlns="http://www.w3.org/2000/svg">
  <path d="M 436 337.5  C 439.36 337.5  442 340.14  442 343.5  C 442 346.86  439.36 349.5  436 349.5  C 432.64 349.5  430 346.86  430 343.5  C 430 340.14  432.64 337.5  436 337.5  Z " fill-rule="nonzero" fill="#ffffff" stroke="none" />
  <path d="M 436 338  C 439.08 338  441.5 340.42  441.5 343.5  C 441.5 346.58  439.08 349  436 349  C 432.92 349  430.5 346.58  430.5 343.5  C 430.5 340.42  432.92 338  436 338  Z " stroke-width="1" stroke="#797979" fill="none" />
  <path d="M 436 346.5  C 434.32 346.5  433 345.18  433 343.5  C 433 341.82  434.32 340.5  436 340.5  C 437.68 340.5  439 341.82  439 343.5  C 439 345.18  437.68 346.5  436 346.5  " fill-rule="nonzero" fill="#797979" stroke="none" />
</svg>