<?xml version="1.0" encoding="utf-8"?>
<svg version="1.1" xmlns:xlink="http://www.w3.org/1999/xlink" width="183px" height="22px" xmlns="http://www.w3.org/2000/svg">
  <g transform="matrix(1 0 0 1 -975 -236 )">
    <path d="M 988.5 243.5  A 3.5 3.5 0 0 0 985 247 A 3.5 3.5 0 0 0 988.5 250.5 A 3.5 3.5 0 0 0 992 247 A 3.5 3.5 0 0 0 988.5 243.5 Z M 1140.89289321881 242.707106781187  L 1145.18578643763 247  L 1140.89289321881 251.292893218813  L 1142.30710678119 252.707106781187  L 1147.30710678119 247.707106781187  L 1148.01421356237 247  L 1147.30710678119 246.292893218813  L 1142.30710678119 241.292893218813  L 1140.89289321881 242.707106781187  Z " fill-rule="nonzero" fill="#ff0000" stroke="none" />
    <path d="M 987 247  L 1146 247  " stroke-width="2" stroke="#ff0000" fill="none" />
  </g>
</svg>