<?xml version="1.0" encoding="utf-8"?>
<svg version="1.1" xmlns:xlink="http://www.w3.org/1999/xlink" width="25px" height="25px" xmlns="http://www.w3.org/2000/svg">
  <g transform="matrix(1 0 0 1 -720 -609 )">
    <path d="M 3.4324728769173 2.31818181818183  C 3.84118301540938 1.73742829991499  3.31323824525996 0.954545454545473  3.31323824525996 0.954545454545473  L 3.86255924170617 0.636363636363655  L 4.33285849952517 0  L 4.33285849952517 2.13636363636363  L 5.09478672985781 2.67653758542141  C 5.09478672985781 2.67653758542141  5.05519892229372 3.52217020751196  5.4265402843602 3.67881548974944  C 5.69083792082654 3.79030583822175  6.13433891211666 3.36363636363636  6.13433891211666 3.36363636363636  L 6.4691943127962 2.81321184510251  L 6.79795513128846 2.31818181818183  L 6.79795513128846 1.67425968109341  L 7.05128205128206 1.67425968109341  L 7.41706161137442 2.67653758542141  L 7.55924170616114 3.67881548974944  L 8.74407582938386 4.49886104783599  L 9.37796771130104 3.86104783599086  L 9.64454976303316 4.86363636363636  L 10.6398104265403 7.09090909090909  L 11.0189573459716 7.45454545454546  L 11.2085308056872 8.5909090909091  C 11.2085308056872 8.5909090909091  11.2652683692148 9.26367615163733  11.5876777251185 9.31818181818182  C 11.8297670687413 9.35910879748889  12.1320037986705 8.9635535307517  12.1320037986705 8.9635535307517  L 12.1320037986705 10.0454545454546  L 12.8442545109212 10.0454545454546  L 13.3412322274882 9.49999999999999  L 14.0788224121558 8.78132118451027  C 14.0788224121558 8.78132118451027  14.692055743184 9.13096394232307  15.2843601895735 8.9635535307517  C 15.8088640660902 8.81530644198905  16.0900473933649 8.27272727272728  16.0900473933649 8.27272727272728  L 16.0900473933649 7.45454545454546  L 15.7270910961508 6.77272727272727  L 15.7270910961508 5.90398472441996  C 15.7270910961508 5.90398472441996  16.5609395319513 5.59725025304224  17.1800947867299 4.86363636363636  C 17.6444788420786 4.31340507609875  17.7488151658768 3.67881548974944  17.7488151658768 3.67881548974944  L 17.4644549763033 2.81321184510251  L 18.3998100664767 3.36363636363636  L 18.3998100664767 2.31818181818183  L 18.9810426540284 1.90205011389523  L 19.5868945868946 1.90205011389523  L 19.9192782526116 2.67653758542141  L 19.9192782526116 3.67881548974944  C 19.9192782526116 3.67881548974944  20.1102309984935 4.24324681484573  20.4890788224122 4.31662870159451  C 20.9484339501877 4.40560465403694  21.4387464387464 3.86104783599086  21.4387464387464 3.86104783599086  L 22.4833808167141 3.67881548974944  L 22.4833808167141 4.63553530751708  L 22.1984805318139 5.04555808656036  L 21.4387464387464 5.50113895216399  L 20.6872037914692 5.3181818181818  L 19.3127962085308 5.3181818181818  L 18.0805687203792 5.50113895216399  L 17.4644549763033 6.22727272727271  L 17.4644549763033 6.90909090909091  L 17.9383886255924 7.96127562642369  L 18.9810426540284 8.5909090909091  L 19.3127962085308 7.96127562642369  L 20.0617283950617 7.96127562642369  L 20.346628679962 8.9635535307517  L 19.7293447293447 10.6036446469248  L 19.7293447293447 11.5  L 20.8214624881292 12.380410022779  L 20.4890788224122 12.9545454545454  L 20.346628679962 13.9545454545455  L 20.346628679962 14.6818181818182  L 20.4890788224122 15.2727272727273  L 21.2559241706161 15.2727272727273  L 21.7772511848341 15  L 22.0616113744076 15.2727272727273  L 22.0616113744076 15.9339407744875  L 22.1984805318139 16.4806378132119  L 23.5280151946819 16.4806378132119  L 24.869420702754 16.2072892938497  L 25 17.3006833712984  L 24.5251661918329 17.8018223234624  L 23.7654320987654 18.1662870159453  L 23.5280151946819 18.3029612756264  L 23.1956315289649 18.0296127562642  L 22.4833808167141 17.8018223234624  L 20.0617283950617 19.8519362186788  L 19.1706161137441 19.6363636363636  L 18.3998100664767 20.3530751708428  L 16.6587677725119 19.8519362186788  L 15.521327014218 21.0909090909091  L 14.0788224121558 19.8519362186788  L 12.8442545109212 20.5808656036446  L 11.7772511848341 20.5808656036446  L 11.3981042654029 22.0909090909091  L 11.9194312796208 23.9545454545455  L 12.0616113744076 25  L 10.4976303317536 24.6363636363636  L 10.3554502369668 23.7699316628702  L 9.64454976303316 22.9545454545455  L 8.36219336219337 23.7699316628702  L 7.79337946004612 23.7699316628702  L 6.79795513128846 23.1776765375854  C 6.79795513128846 23.1776765375854  6.75423544736126 22.3782821995222  6.13433891211666 21.8636363636364  C 5.33828640460232 21.2027436422774  4.00128677906457 21.3181818181818  4.00128677906457 21.3181818181818  C 4.00128677906457 21.3181818181818  4.36469566099197 20.6416097190585  4.47529836418723 20.3530751708428  C 4.90190879079768 19.8215641609719  5.75512964401852 18.7585421412301  5.75512964401852 18.7585421412301  L 4.33285849952517 18.621867881549  L 3.31323824525996 17.951814442699  L 3.71687982799093 16.4806378132119  L 3.10066476733145 15.9339407744875  L 3.57819905213269 15.2727272727273  L 3.10066476733145 14.8636363636364  L 2.29484507262286 15.2727272727273  L 1.72985781990523 15.2727272727273  L 0.781990521327013 15.4545454545455  L 0 15.7744874715262  L 0.308056872037923 15  L 0 14.6818181818182  L 0 13.5909090909091  L 0.924170616113732 12.5454545454545  L 1.96303696303697 10.6036446469248  C 1.96303696303697 10.6036446469248  2.62313048253016 11.1163802029406  3.10066476733145 10.6036446469248  C 3.57819905213269 10.0909090909091  3.71687982799093 8.45454545454544  3.71687982799093 8.45454545454544  L 3.86255924170617 5.72727272727273  L 3.31323824525996 4.31662870159451  L 2.86729857819906 4.63553530751708  L 2.29484507262286 4.49886104783599  L 2.15264159708605 2.81321184510251  C 2.15264159708605 2.81321184510251  3.07412011856455 2.82738040562531  3.4324728769173 2.31818181818183  Z " fill-rule="nonzero" fill="#031d69" stroke="none" transform="matrix(1 0 0 1 720 609 )" />
  </g>
</svg>