<?xml version="1.0" encoding="utf-8"?>
<svg version="1.1" xmlns:xlink="http://www.w3.org/1999/xlink" width="162px" height="153px" xmlns="http://www.w3.org/2000/svg">
  <defs>
    <filter x="673px" y="480px" width="162px" height="153px" filterUnits="userSpaceOnUse" id="filter159">
      <feOffset dx="0" dy="0" in="SourceAlpha" result="shadowOffsetInner" />
      <feGaussianBlur stdDeviation="25" in="shadowOffsetInner" result="shadowGaussian" />
      <feComposite in2="shadowGaussian" operator="atop" in="SourceAlpha" result="shadowComposite" />
      <feColorMatrix type="matrix" values="0 0 0 0 0.435294117647059  0 0 0 0 0.901960784313726  0 0 0 0 0.980392156862745  0 0 0 1 0  " in="shadowComposite" />
    </filter>
    <g id="widget160">
      <path d="M 0.35094339622643 37.733185840708  L 0.0584905660377446 36.5449852507375  C 0.0584905660377446 36.5449852507375  1.94188679245284 37.4517699115044  4.6090566037736 37.3110619469027  C 7.27622641509435 37.1703539823009  9.18301886792453 37.1703539823009  9.18301886792453 37.1703539823009  C 9.18301886792453 37.1703539823009  11.6279245283019 38.7650442477876  13.3124528301887 39.6561946902655  C 14.9969811320755 40.5473451327434  16.9622641509434 39.8907079646018  16.9622641509434 39.8907079646018  L 17.4769811320755 40.6880530973451  L 18.833962264151 40.4535398230089  C 18.833962264151 40.4535398230089  20.4716981132076 38.8119469026549  22.6241509433962 38.108407079646  C 24.7766037735849 37.4048672566372  28.3679245283019 37.951964984712  28.3679245283019 37.951964984712  L 29.7366037735849 37.733185840708  L 29.7366037735849 37.3110619469027  L 30.6841509433962 36.8576696165192  L 31.4796226415095 35.7163716814159  L 32.0879245283019 34.8252212389381  C 32.0879245283019 34.8252212389381  32.3686792452831 34.3561946902655  32.5090566037736 34.1216814159292  C 32.774213836478 34.0278761061947  33.3045283018868 33.8402654867256  33.3045283018868 33.8402654867256  C 33.3045283018868 33.8402654867256  34.3963522012579 33.6526548672566  34.52893081761 33.1367256637168  C 34.6615094339623 32.620796460177  34.3807547169811 31.6827433628319  34.3807547169811 31.6827433628319  C 34.3807547169811 31.6827433628319  34.2045455792209 31.9412358119661  34.0064150943396 31.8234513274336  C 33.6256739499892 31.5971085743006  33.5384905660377 30.7446902654867  33.5384905660377 30.7446902654867  L 34.1935849056604 28.8685840707965  L 35.2698113207547 28.6809734513275  L 36.1120754716981 29.2438053097345  L 37.2818867924529 29.4314159292035  L 37.9837735849057 29.5721238938053  L 39.6683018867924 28.8685840707965  L 40.3233962264151 27.508407079646  L 41.6803773584906 27.0393805309735  C 41.6803773584906 27.0393805309735  43.1309433962264 26.7579646017699  43.5520754716981 26.1951327433628  C 43.9732075471698 25.6323008849558  44.253962264151 23.6154867256637  44.253962264151 23.6154867256637  L 45.0962264150944 23.4278761061947  L 48.0441509433963 21.645575221239  L 51.1792452830189 21.645575221239  C 51.1792452830189 21.645575221239  51.9279245283019 21.3641592920354  51.7641509433962 20.7544247787611  C 51.6003773584906 20.1446902654867  51.0388679245283 19.7694690265487  51.0388679245283 19.7694690265487  L 49.3543396226416 18.6907079646018  L 48.2781132075472 17.4243362831858  L 46.0788679245283 17.7057522123894  L 45.4705660377358 18.6907079646018  L 43.1309433962264 18.2216814159292  L 41.8597484276729 19.0346607669617  L 41.8597484276729 17.7057522123894  L 42.7098113207547 13.437610619469  L 42.5616352201258 12.0774336283186  L 44.253962264151 12.2650442477876  L 45.4705660377358 13.25  L 48.0441509433963 10.5296460176991  L 48.2781132075472 9.63849557522124  L 47.8487460508079 9.27703179612741  L 48.2781132075472 8.55973451327434  L 48.6446540880503 6.02699115044249  L 49.8690566037736 3.63495575221239  L 49.5025157232704 2.79070796460177  L 49.6818867924529 2.04026548672567  L 49.0267924528302 1.75884955752212  L 48.4184905660378 1.75884955752212  L 48.8006289308176 1.19601769911504  L 49.0267924528302 0.633185840707963  L 49.5025157232704 0.195427728613572  L 50.6723270440252 0.0390855457227181  L 51.0388679245283 0.195427728613572  L 50.4305660377358 1.05530973451328  L 50.6723270440252 2.65  L 51.6471698113208 3.11902654867256  L 51.6471698113208 2.79070796460177  L 52.3022641509434 2.93141592920354  L 52.7779874213837 2.65  L 52.9105660377358 2.22787610619469  L 53.8464150943396 2.36858407079646  L 53.8464150943396 3.82256637168141  C 53.8464150943396 3.82256637168141  54.6262893081761 4.76061946902655  55.0162264150943 5.22964601769912  C 55.3437735849056 5.40162241887906  55.5777358490566 5.7924778761062  55.9988679245283 5.74557522123894  C 56.42 5.69867256637168  57.0283018867924 4.90132743362832  57.3507243175031 4.71371681415929  C 57.6731467482138 4.52610619469026  58.3952877262688 4.57300884955752  58.3952877262688 4.57300884955752  C 58.3952877262688 4.57300884955752  58.9 3.82256637168141  58.9 3.82256637168141  C 58.9 3.82256637168141  59.414716981132 3.44734513274337  59.414716981132 3.44734513274337  L 59.9294339622642 3.82256637168141  L 60.4207547169811 4.71371681415929  L 60.8106918238994 5.74557522123894  L 60.5767295597484 6.63672566371681  L 60.8106918238994 7.23082595870207  L 60.5767295597484 8.32522123893805  L 60.5767295597484 8.98185840707965  C 60.5767295597484 8.98185840707965  61.0872151182385 9.47445822748889  61.0524528301887 10.0606194690265  C 61.0090674015803 10.7921839926633  60.3037735849056 11.3269911504425  60.3037735849056 11.3269911504425  L 60.1633962264151 12.2650442477876  L 60.4207547169811 13.0936578171091  L 60.1633962264151 14.2349557522124  L 59.562893081761 13.9066371681416  L 59.0403773584906 13.9066371681416  L 58.3952877262688 14.703982300885  L 57.8705660377359 16.1579646017699  L 57.0283018867924 16.533185840708  L 56.4433962264151 17.5494100294985  L 57.0283018867924 18.6907079646018  L 57.5036778186006 19.1967790485918  L 57.5036778186006 19.5349557522124  L 58.1591194968554 19.8945427728614  L 58.3952877262688 20.7544247787611  L 58.5256603773585 21.833185840708  L 57.6833962264151 22.7868731563422  L 56.653962264151 22.1146017699115  L 55.9988679245283 22.1146017699115  L 55.3905660377359 22.7868731563422  L 55.8584905660377 23.4278761061947  L 57.0283018867924 24.037610619469  L 57.0283018867924 26.0075221238938  L 57.3507243175031 26.814540614677  L 57.6833962264151 27.508407079646  L 58.3952877262688 28.1806784660767  L 59.7422641509434 27.0393805309735  L 60.1633962264151 27.9774336283186  L 60.8106918238994 28.3057522123894  L 60.8106918238994 29.2438053097345  L 60.5767295597484 30.2912979351033  L 61.2006289308177 30.9948377581121  L 61.7660377358491 30.9323008849558  L 61.9883018867925 31.166814159292  L 61.7660377358491 31.6827433628319  L 61.2006289308177 32.1674041297935  L 60.4207547169811 32.3393805309735  L 59.562893081761 32.1674041297935  L 58.9 32.9491150442478  L 58.7128301886793 33.6526548672566  L 57.6833962264151 33.3243362831858  L 57.0283018867924 34.1216814159292  L 55.9081735568283 35.1606592520372  L 55.0162264150943 36.1853982300885  L 54.4157232704403 36.5449852507375  L 53.8464150943396 35.7163716814159  L 52.7779874213837 35.2942477876106  L 53.2459950140946 37.951964984712  L 52.4660377358491 38.8901179941003  L 50.6723270440252 38.4836283185841  L 50.2433962264151 37.951964984712  L 50.4305660377358 37.1703539823009  L 50.4305660377358 36.5449852507375  L 50.2433962264151 35.903982300885  C 50.2433962264151 35.903982300885  49.8690566037736 36.1853982300885  49.6818867924529 36.3261061946903  C 49.5259119496856 36.2323008849558  49.2139622641509 36.0446902654867  49.2139622641509 36.0446902654867  L 49.2139622641509 35.2942477876106  L 48.8006289308176 34.8252212389381  L 48.0441509433963 34.6845132743363  L 47.5294339622642 35.2942477876106  L 46.6871698113208 35.2942477876106  L 46.3128301886792 35.903982300885  L 46.3128301886792 36.9827433628318  L 46.0788679245283 37.5924778761062  L 45.4705660377358 37.733185840708  L 44.9090566037736 37.951964984712  L 43.7392452830189 37.733185840708  L 43.1309433962264 39.0933628318584  L 42.3822641509434 38.8901179941003  L 42.1950943396226 38.108407079646  L 42.0547169811321 37.3110619469027  L 41.4698113207547 36.8576696165192  L 40.8381132075472 38.108407079646  L 40.1440251572327 39.3278761061947  L 39.6683018867924 40.2659292035398  L 39.8320754716981 41.3446902654867  L 40.3233962264151 41.9075221238938  L 39.8320754716981 42.8768436578171  L 38.9196226415094 43.1113569321534  L 37.9837735849057 42.8768436578171  C 37.9837735849057 42.8768436578171  37.6094339622641 43.033185840708  37.4222641509434 43.1113569321534  C 37.3130817610063 43.3198131760079  37.419252515176 43.5222241887906  37.0947169811321 43.7367256637168  C 36.7111945513283 43.9902144753583  36.4573714669346 43.5684692665666  36.1120754716981 43.8774336283186  C 35.7251658691511 44.223633063168  35.831320754717 44.9561946902655  35.831320754717 44.9561946902655  L 34.8954716981132 45.8473451327434  L 34.1935849056604 45.8473451327434  L 33.7256603773585 46.5977876106195  L 32.7430188679245 46.4570796460177  L 32.5090566037736 47.254424778761  L 31.6667924528302 46.7853982300885  L 30.6841509433962 46.7853982300885  L 31.0116981132076 47.7234513274336  L 29.14 48.708407079646  L 28.157358490566 49.8340707964602  L 28.157358490566 50.9128318584071  L 27.6894339622642 52.4137168141593  L 27.3150943396226 52.9609144542773  L 26.4962264150944 52.9609144542773  L 24.542641509434 52.0384955752213  C 24.542641509434 52.0384955752213  24.1059119496855 51.632005899705  23.8875471698113 51.4287610619469  C 23.6223899371069 51.4287610619469  23.0920754716981 51.4287610619469  23.0920754716981 51.4287610619469  L 22.8581132075472 50.9128318584071  L 22.8581132075472 49.974778761062  L 23.3260377358491 49.1305309734513  L 23.5132075471698 48.708407079646  L 23.3260377358491 47.9476352300203  L 22.6241509433962 47.4420353982301  L 21.6883018867925 47.254424778761  L 20.6120754716981 48.1924778761062  L 20.2845283018868 48.9898230088496  L 19.9101886792453 49.8340707964602  L 19.9101886792453 51.2411504424779  L 19.4422641509434 52.0384955752213  L 19.4422641509434 52.4137168141593  L 19.3096842996564 52.6175115639231  L 18.4128301886793 52.4137168141593  L 17.9449056603774 52.9609144542773  L 16.1745911949686 53  L 15.3635220125786 53  L 14.5758490566038 52.4137168141593  C 14.5758490566038 52.4137168141593  14.408176100629 51.7570796460177  14.408176100629 51.4287610619469  C 14.4640670859539 51.0691740412979  14.5758490566038 50.35  14.5758490566038 50.35  L 15.6052830188679 49.8340707964602  L 16.2018867924528 49.5057522123894  L 16.7283018867924 48.5051622418879  L 16.5879245283019 47.7234513274336  L 16.2018867924528 46.7853982300885  L 14.9969811320755 46.5977876106195  L 13.6606356629164 47.9476352300203  L 13.1252830188679 48.1924778761062  L 11.7215094339623 47.7234513274336  L 10.8792452830189 47.7234513274336  L 10.5516981132076 48.5051622418879  L 11.0196226415094 48.9898230088496  L 10.8792452830189 49.3181415929204  L 10.5516981132076 49.5057522123894  L 9.75622641509435 49.1305309734513  L 9.428679245283 48.708407079646  L 8.55911949685535 48.5051622418879  C 8.55911949685535 48.5051622418879  8.30566037735851 47.254424778761  8.30566037735851 47.254424778761  L 7.83773584905661 46.9730088495575  L 7.22943396226416 46.4570796460177  C 7.22943396226416 46.4570796460177  6.77411237998847 46.0571471501458  6.62113207547169 45.8473451327434  C 6.41836477987422 45.7379056047197  6.01283018867926 45.5190265486725  6.01283018867926 45.5190265486725  L 5.45132075471699 44.9561946902655  C 5.45132075471699 44.9561946902655  6.58703244460319 43.1993392355769  6.62113207547169 43.2676991150442  C 6.66792452830189 43.3615044247788  6.43396226415093 42.4703539823009  6.43396226415093 42.4703539823009  L 6.29748427672959 42.0951327433628  L 5.12377358490567 42.4703539823009  C 5.12377358490567 42.4703539823009  4.09506050185644 42.567978452273  3.58070396033185 42.6167906872591  C 3.34638125657344 42.6617837620075  2.8777358490566 42.7517699115044  2.8777358490566 42.7517699115044  L 2.55018867924529 43.2676991150442  L 2.0861635220126 43.1113569321534  L 2.0861635220126 42.2358407079646  L 1.38037735849057 41.6730088495575  L 1.24 40.8287610619469  L 0.72528301886792 40.125221238938  L 1.24 38.8901179941003  L 0.35094339622643 37.733185840708  Z " fill-rule="nonzero" fill="#169bd5" stroke="none" transform="matrix(1 0 0 1 723 530 )" />
    </g>
  </defs>
  <g transform="matrix(1 0 0 1 -673 -480 )">
    <use xlink:href="#widget160" filter="url(#filter159)" />
    <use xlink:href="#widget160" />
  </g>
</svg>