<?xml version="1.0" encoding="utf-8"?>
<svg version="1.1" xmlns:xlink="http://www.w3.org/1999/xlink" width="104px" height="105px" xmlns="http://www.w3.org/2000/svg">
  <defs>
    <filter x="717px" y="519px" width="104px" height="105px" filterUnits="userSpaceOnUse" id="filter261">
      <feOffset dx="0" dy="0" in="SourceAlpha" result="shadowOffsetInner" />
      <feGaussianBlur stdDeviation="25" in="shadowOffsetInner" result="shadowGaussian" />
      <feComposite in2="shadowGaussian" operator="atop" in="SourceAlpha" result="shadowComposite" />
      <feColorMatrix type="matrix" values="0 0 0 0 0.435294117647059  0 0 0 0 0.901960784313726  0 0 0 0 0.980392156862745  0 0 0 1 0  " in="shadowComposite" />
    </filter>
    <g id="widget262">
      <path d="M 0.801393728222984 1.69435215946845  L 1.10801393728227 1.46179401993357  L 1.49825783972125 1.29568106312293  L 1.49825783972125 1.06312292358804  L 2 1.06312292358804  C 2 1.06312292358804  2.09291521486645 0.974529346622368  2.13937282229964 0.930232558139534  C 2.09291521486645 0.819490586932454  2 0.598006644518274  2 0.598006644518274  C 2 0.598006644518274  1.8513356562137 0.354374307862691  1.77700348432057 0.232558139534895  C 1.8513356562137 0.166112956810648  2 0.033222591362137  2 0.033222591362137  L 2.4459930313589 0.033222591362137  L 3.31010452961675 0.797342192691023  L 3.95121951219513 0.797342192691023  L 3.95121951219513 0.930232558139534  C 3.95121951219513 0.930232558139534  3.76538908246227 1.17386489479513  3.67247386759585 1.29568106312293  C 3.62601626016263 1.42857142857143  3.5795586527294 1.56146179401994  3.53310104529621 1.69435215946845  C 3.62601626016263 1.91583610188262  3.81184668989549 2.35880398671096  3.81184668989549 2.35880398671096  C 3.81184668989549 2.35880398671096  3.81184668989549 2.58028792912514  3.81184668989549 2.69102990033224  C 3.71893147502905 2.75747508305648  3.53310104529621 2.89036544850499  3.53310104529621 2.89036544850499  L 3.00348432055749 2.89036544850499  L 3.11498257839722 3.55481727574751  C 3.11498257839722 3.55481727574751  3.04065040650409 3.95348837209304  3.00348432055749 4.15282392026579  C 2.9198606271777 4.2857142857143  2.75261324041812 4.55149501661129  2.75261324041812 4.55149501661129  L 2.4459930313589 4.98338870431894  L 2.13937282229964 4.98338870431894  L 1.77700348432057 4.6843853820598  C 1.77700348432057 4.6843853820598  1.63763066202089 4.38538205980066  1.30313588850173 4.31893687707642  C 0.968641114982567 4.25249169435218  0.578397212543552 4.31893687707642  0.578397212543552 4.31893687707642  L 0.160278745644628 4.15282392026579  L 0.0209059233449556 3.85382059800665  L 0.160278745644628 3.55481727574751  L 0.578397212543552 3.08970099667774  L 0.996515679442539 2.49169435215947  L 0.801393728222984 2.15946843853822  L 0.801393728222984 1.69435215946845  Z " fill-rule="nonzero" fill="#001b76" stroke="none" transform="matrix(1 0 0 1 767 569 )" />
    </g>
  </defs>
  <g transform="matrix(1 0 0 1 -717 -519 )">
    <use xlink:href="#widget262" filter="url(#filter261)" />
    <use xlink:href="#widget262" />
  </g>
</svg>