<?xml version="1.0" encoding="utf-8"?>
<svg version="1.1" xmlns:xlink="http://www.w3.org/1999/xlink" width="4px" height="11px" xmlns="http://www.w3.org/2000/svg">
  <g transform="matrix(1 0 0 1 -785 -619 )">
    <path d="M 1.48943089430894 1.84491228070177  C 1.78428184281839 1.45380116959064  2.37398373983737 0.67157894736844  2.37398373983737 0.67157894736844  L 3.05040650406506 0.0540350877193071  L 3.9609756097561 0.517192982456147  L 3.64878048780488 1.04210526315789  L 3.7788617886179 1.84491228070177  L 3.9609756097561 2.64771929824562  L 3.64878048780488 3.54315789473686  L 3.41463414634146 6.26035087719296  L 2.60813008130082 8.76140350877192  L 2.37398373983737 10.9536842105263  L 1.85365853658534 10.4287719298245  L 1.48943089430894 9.65684210526316  L 0.760975609756095 9.03929824561403  L 0.0845528455284411 8.60701754385964  C 0.0845528455284411 8.60701754385964  0.240650406504066 7.16608187134503  0.318699186991831 6.44561403508771  C 0.240650406504066 5.90011695906433  0.0845528455284411 4.80912280701753  0.0845528455284411 4.80912280701753  C 0.0845528455284411 4.80912280701753  0.535501355013523 4.0680701754386  0.760975609756095 3.69754385964911  C 1.0037940379404 3.08000000000002  1.24661246612467 2.4624561403509  1.48943089430894 1.84491228070177  Z " fill-rule="nonzero" fill="#031d6a" stroke="none" transform="matrix(1 0 0 1 785 619 )" />
  </g>
</svg>