<?xml version="1.0" encoding="utf-8"?>
<svg version="1.1" xmlns:xlink="http://www.w3.org/1999/xlink" width="23px" height="16px" xmlns="http://www.w3.org/2000/svg">
  <g transform="matrix(1 0 0 1 -779 -550 )">
    <path d="M 1.04020100502516 1.78039215686276  L 1.71825795644891 2.06274509803922  L 2.98190954773869 0.964705882352936  L 2.98190954773869 0.525490196078422  L 3.16683417085423 0.525490196078422  L 4.30720268006698 0.0549019607843201  L 4.46130653266331 0.7764705882353  L 5.10854271356784 1.78039215686276  L 5.78659966499163 2.4078431372549  L 6.58793969849245 2.53333333333333  L 7.57420435510885 2.18823529411764  L 8.34472361809045 2.06274509803922  L 8.7145728643216 2.18823529411764  L 9.11524288107201 2.06274509803922  L 9.33098827470688 1.78039215686276  L 9.63919597989945 2.18823529411764  L 9.91658291457283 2.69019607843137  L 10.2247906197655 3.06666666666667  L 10.7179229480737 3.06666666666667  L 10.9953098827471 2.53333333333333  L 12.043216080402 2.53333333333333  L 12.3206030150754 2.94117647058823  L 12.3206030150754 3.53725490196078  L 12.7212730318258 3.69411764705882  L 13.2452261306533 3.69411764705882  L 13.6150753768844 3.69411764705882  L 14.2931323283083 4.16470588235294  L 14.4164154103853 4.54117647058823  L 14.2931323283083 4.98039215686274  L 15.2793969849246 5.32549019607844  L 15.7108877721943 4.54117647058823  L 15.5876046901173 4.16470588235294  C 15.5876046901173 4.16470588235294  15.6197142189728 3.70230686418241  15.7108877721943 3.69411764705882  C 15.8081033004933 3.68538573916565  15.9266331658291 4.16470588235294  15.9266331658291 4.16470588235294  L 16.0807370184255 4.66666666666666  L 16.2040201005025 4.98039215686274  L 16.5122278056951 5.1686274509804  L 17.0361809045226 5.48235294117647  L 18.1457286432161 6.54901960784314  L 19.1011725293132 6.07843137254902  L 18.7313232830821 5.1686274509804  L 19.4710217755444 4.54117647058823  L 20.1490787269682 4.82352941176471  L 20.7654941373535 4.66666666666666  L 22.4606365159129 5.48235294117647  L 22.9845896147404 5.48235294117647  L 22.9845896147404 6.89411764705884  L 22.0291457286432 7.42745098039215  L 22.7996649916248 8.3372549019608  L 22.4606365159129 8.7764705882353  L 21.0737018425461 7.27058823529411  L 20.3031825795645 7.42745098039215  L 20.1490787269682 9.2470588235294  L 19.5943048576215 9.78757896450256  L 19.2552763819096 10.3137254901961  L 18.5865262624457 11.0313874804082  L 18.1457286432161 11.3099774716236  L 17.5909547738693 11.3099774716236  L 16.5122278056951 11.3099774716236  L 17.1594639865996 11.9450980392157  L 18.1457286432161 12.8235294117647  L 18.022445561139 13.4196078431373  L 15.9266331658291 13.2941176470588  L 14.9403685092128 12.8235294117647  L 14.2931323283083 12.8235294117647  L 12.7212730318258 15.9607843137255  L 12.7212730318258 14.8941176470588  L 12.3206030150754 14.5490196078431  L 12.043216080402 14.4114775125786  L 11.5861791638873 14.4114775125786  L 11.3651591289782 14.1098039215686  L 11.3651591289782 12.1960784313725  L 10.9953098827471 11.9450980392157  L 10.331733982429 11.3099774716236  L 9.91658291457283 10.5647058823529  L 9.91658291457283 9.5921568627451  L 9.51591289782242 9.2470588235294  L 9.11524288107201 9.2470588235294  L 8.87720234420089 9.78757896450256  L 8.7145728643216 10.156862745098  L 8.15979899497487 9.90588235294119  L 7.97487437185933 9.37254901960784  L 7.45092127303182 9.37254901960784  L 7.08107202680071 9.5921568627451  L 6.81601260193687 9.22196037796786  L 6.31055276381911 8.96470588235294  L 5.97152428810721 9.37254901960784  L 5.38592964824122 9.5921568627451  L 5.10854271356784 9.2470588235294  L 5.23182579564487 8.58823529411765  L 5.38592964824122 7.64705882352941  L 5.10854271356784 6.89411764705884  L 4.5845896147404 6.54901960784314  L 4.18391959798992 5.79607843137256  L 3.75242881072026 5.32549019607844  L 3.16683417085423 6.20392156862745  L 2.48877721943048 6.54901960784314  L 2.14974874371858 6.20392156862745  L 1.71825795644891 5.48235294117647  L 1.50251256281408 4.66666666666666  L 1.50251256281408 3.81960784313726  L 1.37922948073698 3.34901960784315  L 1.37922948073698 2.69019607843137  L 0.793634840870996 2.4078431372549  L 0.0231155778894701 1.78039215686276  L 0.331323283082073 1.49803921568628  L 0.793634840870996 1.37254901960784  L 1.04020100502516 1.78039215686276  Z " fill-rule="nonzero" fill="#169bd5" stroke="none" transform="matrix(1 0 0 1 779 550 )" />
  </g>
</svg>