<?xml version="1.0" encoding="utf-8"?>
<svg version="1.1" xmlns:xlink="http://www.w3.org/1999/xlink" width="131px" height="127px" xmlns="http://www.w3.org/2000/svg">
  <defs>
    <filter x="670px" y="542px" width="131px" height="127px" filterUnits="userSpaceOnUse" id="filter183">
      <feOffset dx="0" dy="0" in="SourceAlpha" result="shadowOffsetInner" />
      <feGaussianBlur stdDeviation="25" in="shadowOffsetInner" result="shadowGaussian" />
      <feComposite in2="shadowGaussian" operator="atop" in="SourceAlpha" result="shadowComposite" />
      <feColorMatrix type="matrix" values="0 0 0 0 0.435294117647059  0 0 0 0 0.901960784313726  0 0 0 0 0.980392156862745  0 0 0 1 0  " in="shadowComposite" />
    </filter>
    <g id="widget184">
      <path d="M 0.946564885496192 0.884482758620695  L 1.18683001531393 0.375013587448821  L 3.5022900763359 0.652849740932625  L 3.73893129770992 1.16580310880829  L 3.73893129770992 1.72538860103625  C 3.73893129770992 1.72538860103625  3.75218320610687 2.25139896373055  4.07022900763358 2.56476683937824  C 4.30876335877863 2.79979274611396  4.6381679389313 2.7979274611399  4.6381679389313 2.7979274611399  L 5.53740458015267 4.19689119170985  L 5.86870229007635 4.64079314467916  L 6.38931297709922 4.82829993840358  L 6.86259541984733 4.43005181347149  L 7.05190839694656 4.82829993840358  L 7.90381679389312 5.12953367875648  L 8.3297709923664 5.82901554404146  L 9.08702290076334 6.10880829015544  L 9.08702290076334 5.12953367875648  L 10.4595419847328 5.12953367875648  C 10.4595419847328 5.12953367875648  10.6804071246819 4.80370665603827  10.7908396946565 4.64079314467916  C 10.7277353689568 4.41510561976884  10.6015267175572 3.96373056994818  10.6015267175572 3.96373056994818  L 10.6015267175572 3.5906735751295  L 10.9328244274809 3.5906735751295  L 11.406106870229 3.73056994818655  L 11.6309341500766 3.07772020725389  L 12.0687022900763 3.07772020725389  L 12.2997107731014 2.83916069090076  L 12.6839694656489 3.07772020725389  L 13.7251908396947 3.07772020725389  L 14.0564885496183 2.7979274611399  L 13.7251908396947 1.35233160621761  L 15.0490045941807 0  C 15.0490045941807 0  15.233624050337 1.17108075988879  16.0916030534351 1.72538860103625  C 17.0356575116256 2.33530654396446  18.3160305343511 2.00518134715025  18.3160305343511 2.00518134715025  L 18.4580152671756 2.83916069090076  L 19.0259541984733 3.40414507772023  L 19.4992366412213 3.5906735751295  L 19.2625954198473 4.82829993840358  L 19.8778625954199 5.26943005181345  L 20.5404580152672 5.26943005181345  L 21.4870229007634 5.82901554404146  C 21.4870229007634 5.82901554404146  21.9918575063613 5.45595854922282  22.2442748091603 5.26943005181345  C 22.4410530376536 5.05988441610204  22.8346094946401 4.64079314467916  22.8346094946401 4.64079314467916  C 22.8346094946401 4.64079314467916  23.1667527832007 5.05988441610204  23.3328244274809 5.26943005181345  C 23.55368956743 5.36269430051814  23.9954198473282 5.54922279792747  23.9954198473282 5.54922279792747  L 25.3679389312977 5.40932642487048  L 25.9832061068702 4.98963730569946  L 26.1725190839695 5.54922279792747  L 26.5038167938931 5.82901554404146  L 26.787786259542 6.38860103626943  L 27.3557251908397 6.38860103626943  L 27.781679389313 6.10880829015544  L 28.3432464877155 6.44560408571506  L 28.8702290076336 6.89087466937206  L 29.9114503816794 6.76165803108808  L 31 6.89087466937206  L 30.1480916030534 7.46113989637305  L 30.1480916030534 8.76683937823837  L 29.2488549618321 9.74611398963732  L 28.8702290076336 10.538860103627  L 27.781679389313 11.4248704663213  L 27.5450381679389 12.0777202072539  L 26.787786259542 12.4974093264249  L 25.8412213740458 13.8031088082902  L 23.0015267175573 13.6632124352332  L 22.4335877862595 14.1295336787565  C 22.4335877862595 14.1295336787565  22.237509074014 15.0212877870232  22.575572519084 15.9481865284974  C 22.8609145489735 16.73053425716  23.4748091603054 17.2072538860104  23.4748091603054 17.2072538860104  L 23.9954198473282 17.3937823834197  L 24.3267175572519 18.279792746114  C 24.3267175572519 18.279792746114  23.73363763224 17.9522936530764  23.1908396946565 18.139896373057  C 22.5863870633226 18.3488082901554  22.2442748091603 18.8860103626943  22.2442748091603 18.8860103626943  L 23.3328244274809 19.9119170984456  C 23.3328244274809 19.9119170984456  24.136253626831 20.0663452146186  24.4486983154671 20.5181347150259  C 24.6471687069884 20.8051193951704  24.4486983154671 21.0945142939962  24.4486983154671 21.0945142939962  C 24.4486983154671 21.0945142939962  23.3726391015824 21.4563752309866  22.8346094946401 21.6373056994819  C 22.5589508590222 21.5906735751295  22.0076335877863 21.4974093264249  22.0076335877863 21.4974093264249  L 22.0076335877863 20.9378238341969  L 21.7539813289408 20.3440978880396  L 21.2503816793893 20.2038570238052  L 20.3511450381679 20.5181347150259  C 20.3511450381679 20.5181347150259  19.7377709923664 20.9299351557747  19.4992366412213 20.7512953367876  C 19.1544884621361 20.4931113393368  19.4992366412213 19.4922279792746  19.4992366412213 19.4922279792746  L 18.6946564885496 18.279792746114  L 17.7480916030534 18.4663212435233  L 17.1801526717557 19.0259067357513  L 17.1801526717557 19.6787564766839  L 15.8549618320611 19.0259067357513  L 16.375572519084 20.3440978880396  L 16.375572519084 20.9378238341969  L 15.8549618320611 21.7772020725389  L 14.624427480916 22.5233160621762  L 14.3404580152672 23.1761658031088  L 14.624427480916 23.9222797927461  L 14.8610687022901 24.4352331606218  L 14.8610687022901 25.0880829015544  L 14.3404580152672 25.6010362694301  C 14.3404580152672 25.6010362694301  13.696626156991 25.3046073219941  13.1572519083969 25.461139896373  C 12.1136551668612 25.7640036037003  11.7847328244275 27  11.7847328244275 27  L 11.6309341500766 25.7431034482759  L 11.3715193990171 25.3956637154136  L 10.7908396946565 25.8827586206897  L 10.4595419847328 24.2534482758621  L 9.41832061068703 22.298275862069  L 9.08702290076334 21.2741379310345  C 9.08702290076334 21.2741379310345  9.00773281004774 20.3019076831697  8.61374045801525 20.2038570238052  C 8.31421745532498 20.1293164197627  7.90381679389312 20.7512953367876  7.90381679389312 20.7512953367876  L 7.05190839694656 20.2038570238052  L 6.86259541984733 19.2258620689655  L 6.62595419847329 18.279792746114  L 5.53740458015267 18.279792746114  L 5.53740458015267 19.0259067357513  L 5.20610687022901 19.4922279792746  L 4.87480916030535 20.0637931034483  L 4.50995405819293 20.2038570238052  L 4.50995405819293 19.2258620689655  L 3.88091603053435 18.7603448275862  C 3.88091603053435 18.7603448275862  3.92824427480915 18.3879310344827  4.07022900763358 17.55  C 4.21221374045801 16.7120689655172  3.88091603053435 16.5724137931034  3.88091603053435 16.5724137931034  L 4.35419847328245 15.1293103448276  L 3.88091603053435 13.8031088082902  L 4.07022900763358 12.4974093264249  L 3.36030534351143 10.6603448275862  L 3.21832061068703 8.56551724137932  L 1.95727392560478 7.10114931119243  L 1.79847328244275 6.10880829015544  L 0 4.82829993840358  L 0.32931692635367 4.0956607561623  L 0.946564885496192 3.96373056994818  L 0.774309217110783 3.10567584523231  L 1.18683001531393 3.07772020725389  L 1.18683001531393 2.18793103448276  L 0.946564885496192 1.72538860103625  L 0.946564885496192 0.884482758620695  Z " fill-rule="nonzero" fill="#169bd5" stroke="none" transform="matrix(1 0 0 1 720 592 )" />
    </g>
  </defs>
  <g transform="matrix(1 0 0 1 -670 -542 )">
    <use xlink:href="#widget184" filter="url(#filter183)" />
    <use xlink:href="#widget184" />
  </g>
</svg>