<?xml version="1.0" encoding="utf-8"?>
<svg version="1.1" xmlns:xlink="http://www.w3.org/1999/xlink" width="104px" height="105px" xmlns="http://www.w3.org/2000/svg">
  <defs>
    <filter x="719px" y="522px" width="104px" height="105px" filterUnits="userSpaceOnUse" id="filter259">
      <feOffset dx="0" dy="0" in="SourceAlpha" result="shadowOffsetInner" />
      <feGaussianBlur stdDeviation="25" in="shadowOffsetInner" result="shadowGaussian" />
      <feComposite in2="shadowGaussian" operator="atop" in="SourceAlpha" result="shadowComposite" />
      <feColorMatrix type="matrix" values="0 0 0 0 0.435294117647059  0 0 0 0 0.901960784313726  0 0 0 0 0.980392156862745  0 0 0 1 0  " in="shadowComposite" />
    </filter>
    <g id="widget260">
      <path d="M 0.4827586206897 1.87301587301587  C 0.4827586206897 1.66137566137567  0.4827586206897 1.23809523809525  0.4827586206897 1.23809523809525  C 0.4827586206897 1.23809523809525  1.2183908045977 0.941798941798948  1.50738916256159 0.793650793650794  C 1.77011494252877 0.560846560846573  1.74110393432948 0.0678260121076095  2.13793103448275 0.0952380952380787  C 2.48597142495051 0.119280082573606  2.68965517241378 0.793650793650794  2.68965517241378 0.793650793650794  L 2.68965517241378 1.42857142857144  L 3.32019704433493 2.22222222222223  L 3.98378406278373 2.98185473018328  L 3.98378406278373 3.3015873015873  L 3.08374384236456 3.3015873015873  L 2.68965517241378 3.93650793650794  L 2.53201970443349 4.31746031746033  L 2.84729064039411 4.66666666666666  L 2.13793103448275 4.98412698412699  L 1.50738916256159 4.98412698412699  L 0.640394088669945 4.66666666666666  L 0.325123152709412 4.31746031746033  L 0.00985221674879237 3.80952380952382  L 0.00985221674879237 2.98185473018328  L 0.167487684729037 2.38095238095239  C 0.167487684729037 2.38095238095239  0.377668308702856 2.04232804232804  0.4827586206897 1.87301587301587  Z " fill-rule="nonzero" fill="#169bd5" stroke="none" transform="matrix(1 0 0 1 769 572 )" />
    </g>
  </defs>
  <g transform="matrix(1 0 0 1 -719 -522 )">
    <use xlink:href="#widget260" filter="url(#filter259)" />
    <use xlink:href="#widget260" />
  </g>
</svg>