<?xml version="1.0" encoding="utf-8"?>
<svg version="1.1" xmlns:xlink="http://www.w3.org/1999/xlink" width="107px" height="113px" xmlns="http://www.w3.org/2000/svg">
  <defs>
    <filter x="689px" y="527px" width="107px" height="113px" filterUnits="userSpaceOnUse" id="filter153">
      <feOffset dx="0" dy="0" in="SourceAlpha" result="shadowOffsetInner" />
      <feGaussianBlur stdDeviation="25" in="shadowOffsetInner" result="shadowGaussian" />
      <feComposite in2="shadowGaussian" operator="atop" in="SourceAlpha" result="shadowComposite" />
      <feColorMatrix type="matrix" values="0 0 0 0 0.435294117647059  0 0 0 0 0.901960784313726  0 0 0 0 0.980392156862745  0 0 0 1 0  " in="shadowComposite" />
    </filter>
    <g id="widget154">
      <path d="M 2.19806763285023 5.06315789473686  L 2.92850241545895 5.21520467836259  L 3.30724637681159 4.91111111111112  L 3.30724637681159 4.39415204678362  L 3.60483091787442 3.78596491228071  L 3.60483091787442 2.38713450292398  L 4.0647342995169 0.836257309941521  L 4.93043478260868 0.0152046783625708  C 4.93043478260868 0.0152046783625708  5.29114331723029 0.217933723196885  5.47149758454105 0.319298245614023  C 5.65185185185187 0.491617933723195  6.01256038647344 0.836257309941521  6.01256038647344 0.836257309941521  L 6.01256038647344 1.26198830409358  C 6.01256038647344 1.26198830409358  5.72399355877617 2.01208576998051  5.57971014492752 2.38713450292398  C 5.54363929146538 2.75204678362572  5.47149758454105 3.48187134502924  5.47149758454105 3.48187134502924  L 5.87729468599033 4.09005847953216  L 6.60772946859905 4.09005847953216  L 6.95942028985506 4.54619883040936  L 6.71594202898554 6.76608187134503  L 6.17487922705314 6.76608187134503  L 5.68792270531401 6.34035087719299  L 5.09275362318842 7.25263157894738  L 5.28212560386472 9.89824561403508  L 5.68792270531401 9.89824561403508  L 6.01256038647344 10.0502923976608  L 6.01256038647344 10.5976608187135  L 6.01256038647344 11.2362573099415  L 5.68792270531401 11.540350877193  L 5.28212560386472 11.3578947368421  L 4.68695652173913 11.753216374269  L 4.79516908212562 12.787134502924  L 4.68695652173913 12.9391812865497  L 4.36231884057971 12.574269005848  L 4.0647342995169 12.4222222222222  L 3.82125603864735 11.753216374269  L 2.92850241545895 11.3578947368421  C 2.92850241545895 11.3578947368421  2.85636070853463 10.9524366471735  2.82028985507247 10.7497076023392  C 2.85636070853463 10.5165692007797  2.92850241545895 10.0502923976608  2.92850241545895 10.0502923976608  L 2.82028985507247 9.13801169590644  L 2.33333333333334 8.6514619883041  L 2.33333333333334 7.25263157894738  L 1.95458937198068 6.88771929824561  L 1.65700483091788 6.1578947368421  L 0.493719806763271 6.00584795321638  L 0.087922705314002 5.76257309941519  L 1.76521739130435 5.54970760233918  L 2.19806763285023 5.06315789473686  Z " fill-rule="nonzero" fill="#001b76" stroke="none" transform="matrix(1 0 0 1 739 577 )" />
    </g>
  </defs>
  <g transform="matrix(1 0 0 1 -689 -527 )">
    <use xlink:href="#widget154" filter="url(#filter153)" />
    <use xlink:href="#widget154" />
  </g>
</svg>