<?xml version="1.0" encoding="utf-8"?>
<svg version="1.1" xmlns:xlink="http://www.w3.org/1999/xlink" width="113px" height="117px" xmlns="http://www.w3.org/2000/svg">
  <defs>
    <filter x="718px" y="540px" width="113px" height="117px" filterUnits="userSpaceOnUse" id="filter225">
      <feOffset dx="0" dy="0" in="SourceAlpha" result="shadowOffsetInner" />
      <feGaussianBlur stdDeviation="25" in="shadowOffsetInner" result="shadowGaussian" />
      <feComposite in2="shadowGaussian" operator="atop" in="SourceAlpha" result="shadowComposite" />
      <feColorMatrix type="matrix" values="0 0 0 0 0.435294117647059  0 0 0 0 0.901960784313726  0 0 0 0 0.980392156862745  0 0 0 1 0  " in="shadowComposite" />
    </filter>
    <g id="widget226">
      <path d="M 2.10689655172415 3.83714285714285  L 2.10689655172415 3.38380952380953  L 1.74827586206897 2.15333333333335  L 2.43563218390801 2.31523809523809  L 3.24252873563219 3.38380952380953  L 3.57126436781612 3.22190476190476  L 4.25862068965517 1.66761904761905  L 3.75057471264371 1.02000000000002  L 3.36206896551725 0.145714285714291  L 3.57126436781612 0.0161904761904725  L 4.25862068965517 1.02000000000002  L 4.916091954023 1.66761904761905  L 7.27701149425289 2.54190476190476  L 7.78505747126438 3.22190476190476  L 8.17356321839078 4.51714285714285  L 8.38275862068969 4.84095238095238  C 8.38275862068969 4.84095238095238  8.89027971197847 5.47666043857025  9.57816091954022 5.52095238095238  C 10.0770210414148 5.55307345582972  10.4104001643462 5.2639530914913  10.7137931034483 5.06761904761904  C 10.9555713611063 4.91115758484778  11.2218390804598 4.84095238095238  11.2218390804598 4.84095238095238  L 10.9827586206897 5.87714285714287  L 9.93678160919544 5.87714285714287  L 9.93678160919544 6.65428571428573  L 9.12988505747126 8.11142857142856  L 9.3390804597701 8.79142857142856  L 10.7137931034483 9.69809523809524  L 10.8632183908046 10.1514285714286  L 11.5505747126436 10.507619047619  L 12.0586206896552 10.1514285714286  C 12.0586206896552 10.1514285714286  12.4172413793104 10.3888888888889  12.5965517241379 10.507619047619  C 12.7061302681992 10.7126984126984  12.9252873563218 11.1228571428571  12.9252873563218 11.1228571428571  L 12.1781609195402 12.2238095238095  L 12.5965517241379 13.0980952380952  L 12.3574712643679 13.4542857142857  L 10.8632183908046 12.9361904761905  L 11.5505747126436 14.3609523809524  L 11.2218390804598 15.2352380952381  L 10.7137931034483 15.98  L 9.81172732035375 16.6490654349688  L 9.3390804597701 16.2714285714286  L 8.38275862068969 16.2714285714286  L 7.45632183908041 15.4295238095238  L 6.79885057471262 15.98  L 6.29080459770116 16.6276190476191  L 5.72298850574711 16.9514285714286  L 6.64942528735631 15.0085714285714  L 4.43793103448276 16.4333333333333  L 4.25862068965517 16.2714285714286  L 4.43793103448276 15.98  L 3.24252873563219 13.0980952380952  L 3.75057471264371 12.2238095238095  L 3.36206896551725 11.7057142857143  C 3.36206896551725 11.7057142857143  2.69036205375204 11.6193650793651  2.35450859786945 11.5761904761905  C 2.27197124915436 11.4250793650794  2.10689655172415 11.1228571428571  2.10689655172415 11.1228571428571  L 2.35450859786945 10.3780952380952  L 2.43563218390801 10.1514285714286  L 2.7344827586207 10.0219047619048  C 2.7344827586207 10.0219047619048  2.99348659003832 9.80603174603176  3.12298850574713 9.69809523809524  C 3.12221554039247 9.46063492063491  3.12066960968312 8.98571428571427  3.12066960968312 8.98571428571427  L 3.12298850574713 8.11142857142856  L 3.12066960968312 8.10935297664294  L 2.43563218390801 7.49619047619047  C 2.43563218390801 7.49619047619047  2.38154979321567 7.48703435716186  2.35450859786945 7.48245629764754  C 2.06277584685549 7.4330661031936  1.4793103448276 7.33428571428571  1.4793103448276 7.33428571428571  L 0.104597701149437 5.68285714285715  C 0.104597701149437 5.68285714285715  1.00114942528736 6.00666666666669  1.18045977011495 5.68285714285715  C 1.3597701149425 5.3590476190476  1.18045977011495 4.19333333333335  1.18045977011495 4.19333333333335  L 2.10689655172415 3.83714285714285  Z " fill-rule="nonzero" fill="#001b76" stroke="none" transform="matrix(1 0 0 1 768 590 )" />
    </g>
  </defs>
  <g transform="matrix(1 0 0 1 -718 -540 )">
    <use xlink:href="#widget226" filter="url(#filter225)" />
    <use xlink:href="#widget226" />
  </g>
</svg>