<?xml version="1.0" encoding="utf-8"?>
<svg version="1.1" xmlns:xlink="http://www.w3.org/1999/xlink" width="119px" height="112px" xmlns="http://www.w3.org/2000/svg">
  <defs>
    <filter x="717px" y="527px" width="119px" height="112px" filterUnits="userSpaceOnUse" id="filter209">
      <feOffset dx="0" dy="0" in="SourceAlpha" result="shadowOffsetInner" />
      <feGaussianBlur stdDeviation="25" in="shadowOffsetInner" result="shadowGaussian" />
      <feComposite in2="shadowGaussian" operator="atop" in="SourceAlpha" result="shadowComposite" />
      <feColorMatrix type="matrix" values="0 0 0 0 0.435294117647059  0 0 0 0 0.901960784313726  0 0 0 0 0.980392156862745  0 0 0 1 0  " in="shadowComposite" />
    </filter>
    <g id="widget210">
      <path d="M 2.16975308641975 3.62829403606103  L 3.51014109347442 2.13037447988905  L 4.44841269841269 1.23162274618587  L 5.18562610229279 1.03190013869624  L 5.52073364879271 0.632447067699914  L 6.32495590828923 0.0332871012482839  C 6.32495590828923 0.0332871012482839  6.52600135351375 0.321775312066564  6.62652407612593 0.466019417475732  C 6.66004015421923 0.821081830790562  6.72707231040567 1.53120665742024  6.72707231040567 1.53120665742024  L 7.43077601410936 0.19972260748961  L 9.13977072310406 0.19972260748961  L 9.37433862433861 2.26352288488211  C 9.37433862433861 2.26352288488211  9.44135802469137 2.79611650485439  9.94400352733689 2.92926490984744  C 10.4466490299824 3.0624133148405  11.8540564373898 2.79611650485438  11.8540564373898 2.79611650485438  L 11.8540564373898 1.93065187239946  L 13.7641093474426 0.19972260748961  C 13.7641093474426 0.19972260748961  14.7247207524986 0.488210818307909  15.2050264550264 0.632454923717059  C 15.8528806584362 0.710735909743493  17.1485890652557 0.867297881796307  17.1485890652557 0.867297881796307  L 17.4166666666667 0.466019417475732  L 17.61809819003 0.867297881796307  L 18.8910934744268 0.632454923717059  L 18.4889770723104 1.53120665742024  L 18.7235449735449 2.13037447988905  L 18.4889770723104 2.26352288488211  L 17.6847442680776 1.93065187239946  L 15.0374779541446 3.8613037447989  L 14.4343033509701 3.8613037447989  L 14.4343033509701 4.22746185852982  L 14.7023809523809 4.22746185852982  L 14.7023809523809 4.59361997226076  L 14.0992063492064 4.92649098474341  L 14.0992063492064 5.49237170596395  C 14.0992063492064 5.49237170596395  13.1609347442681 5.25936199722608  12.9263668430335 5.49237170596395  C 12.691798941799 5.72538141470179  13.1274250440918 6.75728155339805  13.1274250440918 6.75728155339805  C 13.1274250440918 6.75728155339805  12.8705173427396 7.34535367545076  12.6917989417989 7.5894590846047  C 12.4460611405056 7.64493758668517  11.8540564373898 7.75589459084605  11.8540564373898 7.75589459084605  L 11.418430335097 9.52011095700414  L 10.9492945326279 9.3869625520111  L 10.2791005291005 9.75312066574204  L 9.94400352733689 10.1525658807212  L 9.64241622574958 10.7850208044383  L 9.37433862433861 11.0180305131761  L 9.13977072310406 11.5839112343967  C 9.13977072310406 11.5839112343967  8.79007115951555 11.088234566875  8.26851851851856 11.0180305131761  C 7.8278174503287 10.9587095568156  7.43077601410936 11.2843273231623  7.43077601410936 11.2843273231623  L 6.62652407612593 11.5839112343967  L 5.65476190476189 11.5839112343967  C 5.65476190476189 11.5839112343967  5.31918382469078 11.5524672747239  5.18562610229279 11.2843273231623  C 5.04375315441989 10.9994931354605  5.18562610229279 10.5852981969487  5.18562610229279 10.5852981969487  L 4.18033509700176 10.1525658807212  C 4.18033509700176 10.1525658807212  3.82289829512053 10.9070735090153  3.64417989417991 11.2843273231623  C 3.40961199294532 11.495145631068  2.94047619047623 11.9167822468793  2.94047619047623 11.9167822468793  L 1.39902998236334 11.5839112343967  L 0.963403880070552 11.2843273231623  L 0.695326278659662 10.7850208044383  L 0.0586419753086276 10.3855755894591  L 0.0586419753086276 9.9861303744799  L 1.56657848324517 9.12066574202496  L 1.39902998236334 8.22191400832178  L 0.963403880070552 7.28987517337032  L 0.963403880070552 6.59084604715673  L 0.695326278659662 5.75866851595008  L 2.16975308641975 3.62829403606103  Z " fill-rule="nonzero" fill="#001b76" stroke="none" transform="matrix(1 0 0 1 767 577 )" />
    </g>
  </defs>
  <g transform="matrix(1 0 0 1 -717 -527 )">
    <use xlink:href="#widget210" filter="url(#filter209)" />
    <use xlink:href="#widget210" />
  </g>
</svg>