<?xml version="1.0" encoding="utf-8"?>
<svg version="1.1" xmlns:xlink="http://www.w3.org/1999/xlink" width="10px" height="21px" xmlns="http://www.w3.org/2000/svg">
  <g transform="matrix(1 0 0 1 -755 -572 )">
    <path d="M 1.1071428571429 7.42372881355932  C 1.25220382368696 6.81635302210095  0.892857142857154 6.23728813559324  0.892857142857154 6.23728813559324  L 1.85714285714288 5.3220338983051  L 1.7142857142857 4.64406779661016  L 2.1785714285714 4.23728813559321  L 2.9642857142857 4.03389830508475  C 2.9642857142857 4.03389830508475  3.39285714285715 3.6271186440678  3.6071428571429 3.42372881355933  C 3.84523809523815 3.19774011299436  4.32142857142859 2.74576271186442  4.32142857142859 2.74576271186442  L 4.32142857142859 2.10169491525425  L 4.46428571428573 2.10169491525425  L 5.21428571428571 1.93220338983052  L 5.60712809137501 1.73309946989713  L 5.60712809137501 1.38983050847458  L 6.15566957418638 1.16912136796403  L 7.24999999999997 1.38983050847458  L 8.07142857142859 1.05210491417953  L 8.89285714285714 0.0677966101694915  L 9.25000000000002 0.237288135593235  L 9.46428571428573 0.813559322033907  L 9.31041337532885 1.05210491417953  L 8.25000000000002 1.38983050847458  L 8.39285714285715 2.47457627118645  L 9.96428571428576 2.91525423728816  L 10 3.89830508474577  L 9.6785714285714 4.91525423728815  C 9.6785714285714 4.91525423728815  9.15476190476196 4.91525423728815  8.89285714285714 4.91525423728815  C 8.77380952380954 5.05084745762711  8.53571428571429 5.3220338983051  8.53571428571429 5.3220338983051  L 8.39285714285715 6.03389830508475  C 8.39285714285715 6.03389830508475  8.17857142857141 6.75706214689265  8.07142857142859 7.11864406779663  C 8.17857142857141 7.46892655367233  8.39285714285715 8.16949152542374  8.39285714285715 8.16949152542374  L 9.6785714285714 8.81355932203391  L 9.96428571428576 9.59322033898307  L 8.39285714285715 12.9152542372881  L 8.25000000000002 13.4237288135593  L 9.0714285714286 14.3050847457627  L 9.0714285714286 14.8135593220339  L 8.75 15.4915254237288  L 8.89285714285714 15.9661016949153  L 8.75 16.3389830508475  L 8.89285714285714 16.8135593220339  L 8.39285714285715 17.1525423728814  L 8.39285714285715 18  L 7.00000000000002 18.4745762711865  L 5.21428571428571 18.3389830508475  L 4.32142857142859 18.9830508474577  L 1.39285714285714 20.135593220339  L 0.714285714285731 20.9491525423729  L 0.0714285714285691 20.7796610169492  L 0 19.4576271186441  L 0.714285714285731 16.3389830508475  C 0.714285714285731 16.3389830508475  0.208991265551663 15.5444110534894  0.0714285714285691 14.4745762711864  C -0.0906489818944385 13.2140876984606  0.250000000000032 12.1694915254237  0.250000000000032 12.1694915254237  L 1.1071428571429 11.5254237288136  C 1.1071428571429 11.5254237288136  0.964285714285684 10.4858757062147  0.892857142857154 10.1016949152542  C 0.678571428571407 9.79661016949153  0.250000000000032 9.45762711864405  0.250000000000032 9.45762711864405  L 0.0714285714285691 8.81355932203391  C 0.0714285714285691 8.81355932203391  0.901995670885235 8.28268789529683  1.1071428571429 7.42372881355932  Z " fill-rule="nonzero" fill="#0d2f9b" stroke="none" transform="matrix(1 0 0 1 755 572 )" />
  </g>
</svg>