<?xml version="1.0" encoding="utf-8"?>
<svg version="1.1" xmlns:xlink="http://www.w3.org/1999/xlink" width="121px" height="118px" xmlns="http://www.w3.org/2000/svg">
  <defs>
    <filter x="705px" y="570px" width="121px" height="118px" filterUnits="userSpaceOnUse" id="filter195">
      <feOffset dx="0" dy="0" in="SourceAlpha" result="shadowOffsetInner" />
      <feGaussianBlur stdDeviation="25" in="shadowOffsetInner" result="shadowGaussian" />
      <feComposite in2="shadowGaussian" operator="atop" in="SourceAlpha" result="shadowComposite" />
      <feColorMatrix type="matrix" values="0 0 0 0 0.435294117647059  0 0 0 0 0.901960784313726  0 0 0 0 0.980392156862745  0 0 0 1 0  " in="shadowComposite" />
    </filter>
    <g id="widget196">
      <path d="M 4.95555555555556 6.04026845637585  L 5.5185185185185 5.39597315436239  L 6.14074074074076 4.23624161073824  L 5.96296296296299 3.6241610738255  L 5.96296296296299 2.88322147651007  L 6.43703703703706 2.36778523489932  C 6.43703703703706 2.36778523489932  6.22400505952515 1.61763180520301  6.43703703703706 1.46577181208053  C 6.62785185185184 1.32974933881671  7.11851851851853 1.78791946308724  7.11851851851853 1.78791946308724  C 7.11851851851853 1.78791946308724  8.00740740740743 2.65771812080537  8.59999999999999 2.23892617449663  C 9.19259259259259 1.82013422818791  8.1851851851852 0.789261744966434  8.1851851851852 0.467114093959725  C 8.1851851851852 0.144966442953016  8.59999999999999 0.0161073825503287  8.59999999999999 0.0161073825503287  L 9.01481481481482 0.0161073825503287  L 10.5851851851852 0.692617449664404  L 11.1185185185185 0.273825503355704  L 11.6814814814815 1.17583892617448  L 13.0444444444444 0.467114093959725  L 13.0444444444444 0.82147651006713  L 12.125925925926 2.04563758389261  L 11.8296296296296 2.56107382550334  L 12.3333333333333 3.49530201342283  L 13.0444444444444 3.04429530201342  L 13.4592592592593 2.88322147651007  L 15.237037037037 2.23892617449663  L 16.0074074074074 2.7543624161074  L 16.6592592592593 2.56107382550334  L 16.6592592592593 1.91677852348991  L 18.4666666666667 1.91677852348991  L 19.0888888888889 2.56107382550334  L 19.5037037037037 4.01073825503354  L 20.4814814814815 5.00939597315439  L 20.9555555555556 5.17046979865773  L 20.9727143891023 5.65043555996479  L 20.2740740740741 5.65043555996479  L 20.037037037037 6.04026845637585  C 20.037037037037 6.04026845637585  19.5234567901234 6.21208053691276  19.2666666666667 6.2979865771812  C 19.158024691358 6.57718120805369  18.9407407407407 7.13557046979864  18.9407407407407 7.13557046979864  L 17.4296296296296 8.4241610738255  L 17.162962962963 8.4241610738255  C 17.162962962963 8.4241610738255  16.7137855481815 7.94027418111737  16.4222222222222 8.06979865771815  C 16.0198198605011 8.24856241380216  16.0074074074074 9.1973154362416  16.0074074074074 9.1973154362416  C 16.0074074074074 9.1973154362416  15.4938271604938 8.68187919463087  15.237037037037 8.4241610738255  C 15.0592592592592 8.46711409395974  14.7037037037037 8.55302013422819  14.7037037037037 8.55302013422819  L 14.2592592592593 8.55302013422819  L 14.2592592592593 9.1973154362416  L 14.0222222222223 9.1973154362416  L 13.6962962962963 8.84295302013424  L 12.9259259259259 9.1973154362416  L 13.2894821737269 9.60908982986995  L 13.0444444444444 10.0993288590604  L 11.8296296296296 10.3570469798658  L 10.7925925925926 8.4241610738255  L 10.1111111111111 8.4241610738255  L 10.2888888888889 11.2268456375839  C 10.2888888888889 11.2268456375839  10.1703703703704 11.3986577181208  10.1111111111111 11.4845637583893  C 10.0024691358025 11.4845637583893  9.78518518518515 11.4845637583893  9.78518518518515 11.4845637583893  L 9.01481481481482 10.6469798657718  L 8.8187937502093 11.845543010586  L 7.97656542327119 12.1601432239504  L 7.71111111111113 12.7087248322147  L 6.14074074074076 12.7087248322147  L 6.14074074074076 13.2885906040268  L 5.98796971654496 13.1818120070578  L 5.72592592592593 12.7087248322147  L 5.31111111111114 12.7087248322147  L 4.95555555555556 13.2885906040268  L 2.67407407407403 14.544966442953  L 1.37037037037041 14.544966442953  L 1.4888888888889 15.5436241610738  L 0.955555555555586 15.5436241610738  L 0.955555555555586 16.2845637583893  L 2.17037037037037 17.3798657718121  L 1.78518518518517 17.9919463087248  L 0.748148148148155 17.9919463087248  L 0.748148148148155 17.7020134228188  L 0.274074074074083 17.0577181208054  L 0.254773863469376 16.6384104053217  L 0.0666666666666869 15.9624161073825  L 0.0666666666666869 14.7060402684564  L 0.254773863469376 13.6751677852349  L 0.629629629629628 12.7087248322147  L 1.60640337170001 12.7087248322147  L 1.60640337170001 11.8754667365013  L 2.43703703703705 11.8754667365013  L 2.55555555555554 11.0657718120805  L 2.43703703703705 10.3570469798658  L 4.24444444444447 9.00402684563758  L 4.24444444444447 7.90872483221477  L 4.95555555555556 6.04026845637585  Z " fill-rule="nonzero" fill="#169bd5" stroke="none" transform="matrix(1 0 0 1 755 620 )" />
    </g>
  </defs>
  <g transform="matrix(1 0 0 1 -705 -570 )">
    <use xlink:href="#widget196" filter="url(#filter195)" />
    <use xlink:href="#widget196" />
  </g>
</svg>