<?xml version="1.0" encoding="utf-8"?>
<svg version="1.1" xmlns:xlink="http://www.w3.org/1999/xlink" width="21px" height="17px" xmlns="http://www.w3.org/2000/svg">
  <g transform="matrix(1 0 0 1 -740 -619 )">
    <path d="M 0 6.3856143856144  L 0.128342245989314 6.04595404595405  L 1.50802139037434 5.6043956043956  L 2.37433155080215 5.74025974025974  L 2.9197860962567 6.04595404595405  L 4.2673796791444 6.04595404595405  L 4.71657754010697 5.43456543456544  C 4.71657754010697 5.43456543456544  5.10160427807484 5.2987012987013  5.29411764705882 5.23076923076925  C 5.44385026737968 5.07226107226109  5.74331550802141 4.75524475524475  5.74331550802141 4.75524475524475  L 6.51336898395726 4.44955044955047  L 7.09090909090907 3.63436563436564  L 7.54667993334662 3.7812081911822  L 8.02139037433154 4.44955044955047  L 8.72727272727269 4.27972027972028  C 8.72727272727269 4.27972027972028  9.11229946524061 4.4835164835165  9.30481283422461 4.58541458541458  C 9.55080213903743 4.58541458541458  10.0427807486631 4.58541458541458  10.0427807486631 4.58541458541458  C 10.0427807486631 4.58541458541458  9.98825448522176 4.01504016004655  10.331550802139 3.7812081911822  C 10.7663686404889 3.48503748899786  11.5187165775401 3.7812081911822  11.5187165775401 3.7812081911822  C 11.5187165775401 3.7812081911822  11.2506953842165 3.34463893672624  11.3903743315508 3.02297702297705  C 11.5118492162047 2.74323662819368  11.9358288770053 2.68331668331668  11.9358288770053 2.68331668331668  L 12.5133689839572 2.24175824175825  L 13.283422459893 2.24175824175825  L 13.5080213903743 1.80019980019978  L 13.7326203208556 1.52847152847153  L 14.3101604278075 2.10589410589409  C 14.3101604278075 2.10589410589409  14.7613132116361 1.43473788875008  15.3048128342246 1.35864135864136  C 15.6393082673966 1.31180794654006  15.8502673796792 1.66433566433566  15.8502673796792 1.66433566433566  C 15.8502673796792 1.66433566433566  16.2780748663102 1.46053946053947  16.4919786096257 1.35864135864136  C 16.6310160427808 1.13220113220113  16.9090909090909 0.679320679320654  16.9090909090909 0.679320679320654  L 17.0407954884865 0.619567738276165  L 17.0407954884865 0.407592407592422  C 17.0407954884865 0.407592407592422  17.4556662323476 0.619567738276165  17.7112299465241 0.619567738276165  C 17.8609625668449 0.506347625056075  18.2566844919786 0.0679320679320767  18.2566844919786 0.0679320679320767  L 18.4491978609626 0.407592407592422  L 18.4491978609626 1.35864135864136  L 18.8342245989305 1.66433566433566  L 18.7058823529412 2.37762237762238  L 18.2566844919786 3.43056943056943  L 17.9679144385027 3.7812081911822  L 17.7112299465241 4.00799200799202  L 17.5828877005348 4.58541458541458  C 17.5828877005348 4.58541458541458  17.5828877005347 5.02697302697305  17.7112299465241 5.23076923076925  C 17.8395721925134 5.43456543456544  18.7058823529412 4.44955044955047  18.7058823529412 4.44955044955047  L 18.8342245989305 4.58541458541458  L 18.8342245989305 5.43456543456544  C 18.8342245989305 5.43456543456544  19.3903743315508 5.63836163836163  19.668449197861 5.74025974025974  C 20.0320855614973 5.63836163836163  20.7593582887701 5.43456543456544  20.7593582887701 5.43456543456544  L 20.951871657754 6.55544455544456  L 20.5026737967915 7.57442557442558  L 19.9893048128342 8.11788211788212  L 19.1550802139037 10.0539460539461  L 19.1550802139037 11.2427572427573  L 17.4224598930482 12.1598401598402  L 17.1016042780749 12.7712287712288  L 17.4224598930482 13.4165834165834  L 17.2941176470588 13.7562437562437  L 16.620320855615 13.6203796203796  L 16.4919786096257 14.5034965034965  L 15.5614973262032 14.6393606393607  L 14.951871657754 16.0659340659341  L 14.5347593582888 15.4205794205794  L 13.283422459893 16.983016983017  L 13.0588235294118 16.5074925074925  L 12.2809267107019 16.4038748321284  L 11.5187165775401 14.9110889110889  L 11.3903743315508 16.0659340659341  L 10.714312020484 15.9225767946473  L 10.331550802139 16.4038748321284  L 8.98395721925132 15.4205794205794  L 8.21390374331554 15.8621378621379  L 6.22459893048129 14.6393606393607  C 6.22459893048129 14.6393606393607  5.76498927918791 13.9178172067525  5.9679144385027 13.2807192807193  C 6.08069669879404 12.9266313777327  6.51336898395726 12.7712287712288  6.51336898395726 12.7712287712288  L 6.38502673796792 11.8201798201798  L 5.06951871657756 11.8201798201798  L 4.3957219251337 11.4125874125874  L 2.9197860962567 11.2427572427573  C 2.9197860962567 11.2427572427573  3.00702924880859 10.9220104948894  3.20855614973263 10.7672327672328  C 3.4791760023884 10.5593899151828  3.91796118305167 10.4627798408723  4.2673796791444 10.0539460539461  C 4.87700534759358 9.34065934065937  4.2673796791444 7.84615384615385  4.2673796791444 7.84615384615385  L 2.9197860962567 8.35564435564438  L 1.86096256684493 8.35564435564438  L 1.86096256684493 7.03096903096906  L 0.994652406417123 6.72527472527473  L 0.256684491978609 7.03096903096906  L 0.128342245989314 6.86113886113886  L 0 6.3856143856144  Z " fill-rule="nonzero" fill="#0f34a8" stroke="none" transform="matrix(1 0 0 1 740 619 )" />
  </g>
</svg>