<?xml version="1.0" encoding="utf-8"?>
<svg version="1.1" xmlns:xlink="http://www.w3.org/1999/xlink" width="156px" height="143px" xmlns="http://www.w3.org/2000/svg">
  <defs>
    <filter x="614px" y="492px" width="156px" height="143px" filterUnits="userSpaceOnUse" id="filter139">
      <feOffset dx="0" dy="0" in="SourceAlpha" result="shadowOffsetInner" />
      <feGaussianBlur stdDeviation="25" in="shadowOffsetInner" result="shadowGaussian" />
      <feComposite in2="shadowGaussian" operator="atop" in="SourceAlpha" result="shadowComposite" />
      <feColorMatrix type="matrix" values="0 0 0 0 0.435294117647059  0 0 0 0 0.901960784313726  0 0 0 0 0.980392156862745  0 0 0 1 0  " in="shadowComposite" />
    </filter>
    <g id="widget140">
      <path d="M 21.1594202898551 11.0722070844687  L 20.3136095309947 9.66600654187118  L 21.3913043478261 9.37866945277975  L 23.505075345296 9.66600654187118  L 24.5797101449275 9.90054495912808  L 25.7391304347826 10.4277929155313  L 26.5804878572591 9.90054495912808  L 26.0869565217391 8.26021798365122  L 29.075633857531 4.68933472638988  C 29.075633857531 4.68933472638988  31.990852054377 7.13849933002233  33.7177659510601 6.21336851246659  C 34.9574620240166 5.54924678427986  34.7622456721042 3.63423441295217  35.1104055791188 2.93083420399368  C 35.4585654861336 2.22743399503519  37.6635782305599 1.64126715423646  37.6635782305599 1.64126715423646  L 38.3598980445892 0.234466736319496  L 39.8685909749862 0  L 40.3328041843391 1.99296725871571  L 41.261230603045 2.69636746767419  L 41.7254438123979 3.98593451743139  L 44.2786164638389 5.04103483086912  L 45.4391494872212 9.37866945277975  L 44.1625631615007 12.5439703930929  L 44.6267763708536 14.5369376518086  C 44.6267763708536 14.5369376518086  49.7331216737357 13.9507708110099  52.0541877205002 16.9988383831633  C 52.9138418118945 18.1277522987757  53.969067209081 17.9953220125212  53.969067209081 17.9953220125212  L 54.2592004649266 19.2262723781985  L 55.1832343223158 19.929672587157  L 56 22.7432734229909  L 55.7678933953235 24.7362406817066  L 55.6518400929853 25.5568742588249  L 54.4332804184339 25.5568742588249  L 53.7949872555736 26.1430410996236  L 52.5184009298531 25.9085743633041  L 51.8220811158238 26.4947412041028  L 50.893654697118 26.8464413085821  L 49.9652282784121 27.9015416220198  L 49.3849617667209 28.9566419354575  L 48.8046952550298 29.5428087762562  L 47.1799490222946 29.5428087762562  L 46.83178911528 30.7151424578537  L 46.83178911528 32.0047095076109  L 46.7157358129417 32.9425764528889  L 47.1799490222946 33.5287432936876  L 45.9033626965741 33.9976767663266  L 44.85888297553 34.2321435026461  L 44.0465098591624 34.2321435026461  L 43.2341367427948 34.4666102389656  L 42.4217636264273 34.7010769752851  L 40.9130706960303 34.7010769752851  L 39.8685909749862 35.1700104479241  L 39.5204310679715 36.2251107613618  L 39.752537672648 37.514677811119  L 41.261230603045 38.921478229036  L 41.4353105565523 39.8007284902341  L 40.3328041843391 40.9510856968782  L 40.9130706960303 42.2040125375089  L 40.5068841378465 42.7901793783077  L 39.5204310679715 42.7901793783077  L 38.3598980445892 42.2040125375089  L 36.9672584165305 42.2040125375089  L 35.69067209081 41.2661455922309  L 34.0078992069057 40.9510856968782  L 33.4276326952146 40.5627453832725  L 32.3831529741705 40.3868953310329  L 31.1645932996191 40.9510856968782  L 28.9595805551928 40.9510856968782  L 28.0311541364869 41.5006123285504  L 26.5804878572591 42.0867791693492  L 24.4335017640018 41.7936957489498  L 23.505075345296 42.2040125375089  L 22.4605956242519 42.2040125375089  L 21.5321692055461 41.7936957489498  L 20.8358493915168 41.7936957489498  L 20.3136095309947 41.5006123285504  L 19.7913696704727 40.7385954355121  C 19.7913696704727 40.7385954355121  19.3851831122889 39.8007284902341  18.6888632982595 40.7385954355121  C 17.9925434842301 41.67646238079  14.1627845070686 40.9510856968782  14.1627845070686 40.9510856968782  C 14.1627845070686 40.9510856968782  13.1183047860246 40.2110452787932  12.7121182278407 40.2696619628731  C 12.4736724268145 40.3040720188125  12.3639583208261 40.9730621718316  11.8997451114732 41.2661455922309  C 11.4355319021202 41.5592290126303  11.1453986462747 43  11.1453986462747 43  L 9.11446585535566 42.7901793783077  L 8.30209273898807 42.6729460101479  L 7.60577292495869 41.9695458011894  L 7.43169297145136 38.7456281767964  L 4.18220050598094 37.2802110747995  L 5.05260027351765 36.4009608136014  L 2.96364083142954 36.2251107613618  L 2.7895608779222 35.1700104479241  L 3.25377408727511 33.5287432936876  L 1.74508115687814 32.0047095076109  L 1.22284129635611 32.2206418342782  L 0.0623082729738302 31.2833063416067  L 1.74508115687814 31.1075559367308  L 2.3833743197384 28.4712998635924  L 2.15126771506194 26.3037115367896  L 1.22284129635611 25.4249595124101  L 0.410468179988519 26.3037115367896  L 0 25.6007817716736  L 0.236388226481184 24.9562917660744  L 0.584548133495873 24.1361232099869  L 0.236388226481184 23.0816207807315  L 1.45494790103257 21.7342010100162  C 1.45494790103257 21.7342010100162  1.95555602703575 21.0463906968922  2.67350757558399 20.9726159222207  C 3.60235223870763 20.8771703369784  4.41430711065739 21.6170340734323  4.41430711065739 21.6170340734323  L 5.28470687819412 21.3827002002644  L 5.28470687819412 20.9726159222207  L 6.21313329689994 20.8554489856367  L 6.21313329689994 22.2029972752044  L 7.82608695652173 22.0272479564033  L 8.92753623188404 20.8554489856367  L 10.2028985507246 20.4455040871935  L 11.0144927536232 20.6798365122616  L 11.768115942029 20.0940054495913  L 14.1627845070686 20.4455040871935  L 15.2463768115942 19.566757493188  L 17.5072463768116 19.566757493188  C 17.5072463768116 19.566757493188  18.4660310744932 18.7856494096276  18.8985507246377 18.3950953678474  C 19.2003305914014 17.8483197093551  19.5942028985507 16.7547683923706  19.5942028985507 16.7547683923706  L 20.1739130434782 17.2820163487738  L 20.8358493915168 14.7043596730245  L 20.7082002734751 13.4728540332002  L 21.1594202898551 11.0722070844687  Z " fill-rule="nonzero" fill="#169bd5" stroke="none" transform="matrix(1 0 0 1 664 542 )" />
    </g>
  </defs>
  <g transform="matrix(1 0 0 1 -614 -492 )">
    <use xlink:href="#widget140" filter="url(#filter139)" />
    <use xlink:href="#widget140" />
  </g>
</svg>