<?xml version="1.0" encoding="utf-8"?>
<svg version="1.1" xmlns:xlink="http://www.w3.org/1999/xlink" width="117px" height="112px" xmlns="http://www.w3.org/2000/svg">
  <defs>
    <filter x="721px" y="538px" width="117px" height="112px" filterUnits="userSpaceOnUse" id="filter229">
      <feOffset dx="0" dy="0" in="SourceAlpha" result="shadowOffsetInner" />
      <feGaussianBlur stdDeviation="25" in="shadowOffsetInner" result="shadowGaussian" />
      <feComposite in2="shadowGaussian" operator="atop" in="SourceAlpha" result="shadowComposite" />
      <feColorMatrix type="matrix" values="0 0 0 0 0.435294117647059  0 0 0 0 0.901960784313726  0 0 0 0 0.980392156862745  0 0 0 1 0  " in="shadowComposite" />
    </filter>
    <g id="widget230">
      <path d="M 0.0723404255319191 1.59266055045871  L 0.458156028368808 0.741284403669729  L 0.891884227926602 0.946788990825693  L 0.891884227926602 1.14452518036982  C 0.891884227926602 1.14452518036982  0.891884227926602 1.56071328642296  0.891884227926602 1.76880733944956  C 1.09025536392901 1.8960244648318  1.58345153664305 2.15045871559633  1.58345153664305 2.15045871559633  L 2.74089834515364 2.15045871559633  L 3.5768321513002 1.88623853211009  C 3.5768321513002 1.88623853211009  3.7697399527187 1.53394495412844  4.34846335697398 1.59266055045871  C 4.92718676122929 1.65137614678901  4.8950354609929 1.76880733944956  4.8950354609929 1.76880733944956  L 5.44160756501182 2.15045871559633  L 5.76312056737593 1.88623853211009  L 5.98817966903071 1.1816513761468  L 6.3739952718676 0.946788990825693  L 6.69550827423171 0.359633027522932  L 7.27423167848698 0.095412844036708  L 7.62789598108748 0.095412844036708  L 7.49929078014184 0.741284403669729  L 8.23877068557919 0.946788990825693  L 8.6888888888889 1.1816513761468  C 8.6888888888889 1.1816513761468  8.89824231024627 1.58381800030877  9.33191489361703 1.76880733944956  C 10.0246041885278 2.06428401888234  10.7787234042553 1.88623853211009  10.7787234042553 1.88623853211009  C 10.7787234042553 1.88623853211009  11.1431048069346 2.6691131498471  11.3252955082743 3.06055045871561  C 11.5074862096139 3.23669724770642  11.8718676122931 3.58899082568807  11.8718676122931 3.58899082568807  L 12.4505910165485 4.41100917431194  L 13.0936170212766 6.02568807339449  L 13.2222222222222 6.9651376146789  L 14.0581560283688 7.08256880733946  L 15.6657210401891 7.96330275229357  L 16.2122931442081 8.11009174311926  L 16.3408983451537 8.6678899082569  C 16.3408983451537 8.6678899082569  16.6409771473602 9.02018348623854  16.7910165484634 9.19633027522935  C 16.8338849487786 9.39204892966361  16.919621749409 9.78348623853211  16.919621749409 9.78348623853211  C 16.919621749409 9.78348623853211  15.7496700005442 8.88083543539689  14.9905437352246 9.19633027522935  C 14.8131026411029 9.27007525301122  14.5792165136263 9.24888422410146  14.5082742316785 9.43119266055046  C 14.3920623140928 9.72983561944684  14.7011820330969 9.75412844036698  14.5082742316785 10.2238532110092  C 14.5082742316785 10.2238532110092  14.208195429472 10.6837920489296  14.0581560283688 10.9577981651376  C 14.1117415287628 11.0850152905199  14.2189125295508 11.456880733945  14.2189125295508 11.456880733945  C 14.2189125295508 11.456880733945  13.7473601260835 11.7308868501529  13.5115839243498 11.8678899082569  C 13.2115051221434 11.9070336391437  12.6113475177305 11.9853211009174  12.6113475177305 11.9853211009174  C 12.6113475177305 11.9853211009174  11.6253743104807 11.7504587155963  11.1323877068558 11.6330275229358  C 10.9716312056738 11.7113149847095  10.6501182033097 11.8678899082569  10.6501182033097 11.8678899082569  L 9.84633569739949 10.9577981651376  L 9.33191489361703 10.7522935779817  L 9.01040189125296 10.7522935779817  L 8.6888888888889 10.9577981651376  L 8.23877068557919 10.9577981651376  L 8.07801418439715 10.4293577981651  L 7.62789598108748 10.2238532110092  L 6.56690307328606 9.54862385321102  L 6.56690307328606 9.31376146788991  L 7.08132387706856 8.6678899082569  L 7.49929078014184 7.6697247706422  L 8.39952718676126 7.55229357798166  L 8.88179669030732 6.02568807339449  L 8.23877068557919 5.82018348623853  L 6.69550827423171 6.73027522935779  L 5.76312056737593 6.31926605504586  L 5.57021276595743 6.02568807339449  L 4.8950354609929 4.41100917431194  L 4.34846335697398 3.94128440366974  L 1.77635933806147 3.23669724770642  L 0.458156028368808 1.76880733944956  L 0.0723404255319191 1.59266055045871  Z " fill-rule="nonzero" fill="#001b76" stroke="none" transform="matrix(1 0 0 1 771 588 )" />
    </g>
  </defs>
  <g transform="matrix(1 0 0 1 -721 -538 )">
    <use xlink:href="#widget230" filter="url(#filter229)" />
    <use xlink:href="#widget230" />
  </g>
</svg>