<?xml version="1.0" encoding="utf-8"?>
<svg version="1.1" xmlns:xlink="http://www.w3.org/1999/xlink" width="13px" height="18px" xmlns="http://www.w3.org/2000/svg">
  <g transform="matrix(1 0 0 1 -766 -605 )">
    <path d="M 0.34666666666664 3.40519480519481  L 1.58260869565219 2.43896103896106  L 2.7582608695652 2.43896103896106  L 3.3008695652174 1.81558441558439  L 3.70317347082961 1.65670752978288  L 4.56695652173912 1.47272727272727  L 5.5302803600868 1.04306117805378  L 6.43594202898551 1.04306117805378  L 7.64173913043479 0.101298701298714  L 7.37043478260865 1.12987012987012  C 7.37043478260865 1.12987012987012  7.38605885241768 1.30985975825158  7.63083363977669 1.47272727272727  C 7.87560842713578 1.63559478720299  7.85410741560184 1.43242158970669  8.03362318840577 1.34805194805194  C 8.36521739130434 1.19220779220779  8.84753623188407 0.537662337662329  8.84753623188407 0.537662337662329  L 8.96811594202898 0.101298701298714  L 9.35751075217139 0.0252838550845976  L 10.0834782608695 0.662337662337669  L 11.2289855072464 0.818181818181806  L 11.831884057971 1.12987012987012  C 11.831884057971 1.12987012987012  11.5002898550725 1.75324675324674  11.5907246376812 2.03376623376622  C 11.6811594202899 2.31428571428572  12.9171014492754 4.18441558441557  12.9171014492754 4.18441558441557  L 12.6156521739131 4.62077922077923  L 12.6156521739131 5.1818181818182  L 12.1333333333333 5.43116883116882  L 11.5907246376812 6.02337662337661  L 11.1084057971014 6.02337662337661  C 11.1084057971014 6.02337662337661  10.3375842462695 5.79107494175399  9.90260869565216 6.14805194805194  C 9.16885172163356 6.75023376623378  9.35751075217139 8.17402597402599  9.35751075217139 8.17402597402599  L 9.48057971014491 8.36103896103896  L 9.48057971014491 8.6103896103896  L 8.48579710144922 9.42077922077923  C 8.48579710144922 9.42077922077923  8.18835696237812 9.78232435698366  8.21449275362319 10.2  C 8.241933504132 10.6385301751971  8.6063768115942 10.9480519480519  8.6063768115942 10.9480519480519  L 8.21449275362319 11.6337662337662  L 7.91304347826085 11.9142857142857  L 7.91304347826085 12.5688311688312  L 7.37043478260865 12.7558441558442  L 7.63083363977669 13.0157590990521  L 7.00869565217391 13.5662337662338  L 7.00869565217391 14.0337662337662  L 6.888115942029 14.5324675324675  L 7.12927536231883 14.9064935064935  L 6.28521739130436 15.5610389610389  L 6.5866666666667 16.4337662337662  L 6.43594202898551 16.8077922077922  L 6.5866666666667 17.3376623376623  L 6.43594202898551 17.5558441558441  L 5.5302803600868 16.8077922077922  L 3.90376811594204 17.5558441558441  L 3.11999999999997 17.5558441558441  L 2.7582608695652 17.961038961039  L 2.51710144927537 17.5558441558441  L 3.11999999999997 16.6831168831169  C 3.11999999999997 16.6831168831169  4.02434782608695 15.7792207792208  3.51188405797102 15.374025974026  C 2.99942028985506 14.9688311688312  2.00463768115941 15.8727272727273  2.00463768115941 15.8727272727273  L 1.46202898550724 14.9064935064935  C 1.46202898550724 14.9064935064935  2.03924722898669 14.2997047903548  2.00463768115941 13.5662337662338  C 1.98271345342473 13.1015993870202  1.58260869565219 12.7558441558442  1.58260869565219 12.7558441558442  C 1.58260869565219 12.7558441558442  1.94434782608697 12.5688311688312  1.79362318840578 12.1636363636364  C 1.71465779956453 11.9513527858424  1.38195020187681 11.6755003251357  1.19072463768114 11.4155844155844  C 1.01694973392862 11.1793876374182  0.979710144927553 10.9480519480519  0.979710144927553 10.9480519480519  C 0.979710144927553 10.9480519480519  0.798840579710128 10.1376623376623  0.708405797101452 9.73246753246755  C 0.758647342995193 9.42077922077925  0.808888888888898 9.10909090909092  0.859130434782603 8.79740259740259  C 0.758647342995157 8.65194805194807  0.658164251207747 8.50649350649351  0.557681159420301 8.36103896103896  C 0.406956521739151 8.44415584415583  0.105507246376849 8.6103896103896  0.105507246376849 8.6103896103896  L 0.105507246376849 7.98701298701299  L 1.58260869565219 6.14805194805194  L 0.979710144927553 3.77922077922078  L 0.34666666666664 3.40519480519481  Z " fill-rule="nonzero" fill="#169bd5" stroke="none" transform="matrix(1 0 0 1 766 605 )" />
  </g>
</svg>