<?xml version="1.0" encoding="utf-8"?>
<svg version="1.1" xmlns:xlink="http://www.w3.org/1999/xlink" width="16px" height="16px" xmlns="http://www.w3.org/2000/svg">
  <g transform="matrix(1 0 0 1 -755 -586 )">
    <path d="M 3.66045548654245 4.72967032967033  L 4.32298136645967 4.09670329670331  L 5.2173913043478 4.09670329670331  L 5.78937198067634 4.25846153846153  L 7.42801932367146 3.70989010989012  L 7.42801932367146 2.83076923076922  L 7.86086956521742 2.3548717948718  L 7.86086956521742 1.76409075085459  L 8.09937888198759 1.27179487179487  L 7.86086956521742 0.74666666666668  L 8.09937888198759 0.0527472527472563  L 9.888198757764 0.580219780219779  L 11.2132505175984 0.228571428571444  L 12.2642729064529 0.0842694466219141  L 12.6045548654244 1.07252747252748  L 12.7701863354037 1.77582417582418  L 11.2132505175984 2.83076923076922  L 11.2132505175984 3.70989010989012  L 12.0745341614907 4.09670329670331  C 12.0745341614907 4.09670329670331  12.3637903901052 4.66718173539606  12.935817805383 5.01098901098901  C 13.7055403456179 5.47361755369989  14.5258799171843 5.43296703296704  14.5258799171843 5.43296703296704  L 15.0227743271222 5.15164835164836  L 15.9834368530021 6.62857142857146  L 15.3871635610766 7.82417582417583  L 14.5258799171843 6.87472527472528  C 14.5258799171843 6.87472527472528  13.8596553958491 6.3771763245244  13.5983436853002 6.62857142857146  C 13.3252429825349 6.89130814038123  13.5983436853002 7.82417582417583  13.5983436853002 7.82417582417583  L 13.7667423838035 8.36252751937317  C 13.7667423838035 8.36252751937317  13.0492220289557 8.4540480299788  12.7701863354037 8.91428571428572  C 12.5760144464441 9.23455019154576  12.7701863354037 9.65274725274725  12.7701863354037 9.65274725274725  L 12.7701863354037 10.1802197802198  C 12.7701863354037 10.1802197802198  12.0546583850932 9.88483516483516  11.776397515528 10.1802197802198  C 11.6094409937888 10.3574505494506  11.776397515528 10.8131868131868  11.776397515528 10.8131868131868  L 12.2642729064529 11.2  L 12.9950172692374 12.2065674259214  C 12.9950172692374 12.2065674259214  13.1763929199736 12.5201378599225  13.2670807453416 12.6769230769231  C 13.5431331953071 12.6769230769231  14.0952380952381 12.6769230769231  14.0952380952381 12.6769230769231  C 14.0952380952381 12.6769230769231  14.5484057971015 12.6764888659037  14.7246376811594 12.9582417582418  C 14.9554472359766 13.3272513730264  14.7246376811594 13.9076923076923  14.7246376811594 13.9076923076923  L 14.8902691511387 14.2945054945055  C 14.8902691511387 14.2945054945055  14.5148378191857 14.4586080586081  14.3271221532091 14.5406593406594  C 14.2056590752243 14.6930402930403  13.9627329192547 14.9978021978022  13.9627329192547 14.9978021978022  L 13.9627329192547 15.2791208791209  L 13.5983436853002 15.5956043956044  L 12.9950172692374 15.2791208791209  C 12.9950172692374 15.2791208791209  12.6695886641169 15.9170452614795  12.2642729064529 15.9120879120879  C 11.7823664605168 15.9061937947698  11.4120082815735 15.1384615384615  11.4120082815735 15.1384615384615  C 11.4120082815735 15.1384615384615  11.2937894501043 14.8883360295821  11.0144927536232 14.7868131868132  C 10.7222141384049 14.680571486602  10.3850931677019 14.7868131868132  10.3850931677019 14.7868131868132  L 9.32505175983437 14.9978021978022  L 9.32505175983437 13.9076923076923  L 9.12629399585922 13.3098901098901  L 8.09937888198759 13.0989010989011  L 6.44306418219461 13.0989010989011  L 4.32298136645967 12.9582417582418  L 3.66045548654245 12.4307692307692  L 2.73291925465841 12.2065674259214  C 2.73291925465841 12.2065674259214  2.03560333353721 11.7922555211134  1.60662525879915 10.989010989011  C 1.18637434849856 10.2021077282415  1.6873030705434 10.0839961656739  1.20910973084889 9.37142857142858  C 0.882699705676269 8.885037007457  0.612836438923388 8.94945054945057  0.314699792960654 8.73846153846155  C 0.215320910973063 8.43369963369965  0.0165631469979194 7.82417582417583  0.0165631469979194 7.82417582417583  L 0.0165631469979194 6.87472527472528  L 0.844720496894445 5.92527472527473  L 3.66045548654245 4.72967032967033  Z " fill-rule="nonzero" fill="#0d2f9b" stroke="none" transform="matrix(1 0 0 1 755 586 )" />
  </g>
</svg>