<?xml version="1.0" encoding="utf-8"?>
<svg version="1.1" xmlns:xlink="http://www.w3.org/1999/xlink" width="16px" height="21px" xmlns="http://www.w3.org/2000/svg">
  <g transform="matrix(1 0 0 1 -763 -563 )">
    <path d="M 0.078516902944376 5.23404255319148  L 1.02071973827701 3.47872340425531  L 1.89312977099239 2.32978723404255  L 2.18082288199574 3.25531914893618  L 2.18082288199574 4.02127659574468  L 3.39367502726279 4.3404255319149  L 4.37077426390404 3.06382978723404  L 5.20828789531081 3.47872340425531  L 6.04580152671754 2.90425531914893  L 6.70883315158121 2.90425531914893  L 7.09269356597599 2.1063829787234  L 7.23227917121047 0.510638297872352  L 8.05393270006048 0.777492765328833  L 8.59323882224651 0.0319148936170237  L 9.11668484187569 0.0319148936170237  L 9.25627044711017 0.510638297872352  L 9.53544165757906 1.3404255319149  L 10.2333696837514 1.78723404255319  L 10.6521264994547 1.50000000000001  L 10.6521264994547 2.1063829787234  L 10.4776444929117 2.90425531914893  L 11.2104689203926 3.70212765957448  L 12.8157033805889 4.02127659574468  L 12.6412213740458 4.3404255319149  L 12.6412213740458 4.81914893617021  L 12.2922573609596 5.23404255319148  L 12.8157033805889 5.87234042553193  L 13.2344601962923 5.87234042553193  L 14.2813522355507 6.06382978723405  L 14.80479825518 6.44680851063829  L 14.9443838604144 6.98936170212768  L 15.9912758996728 7.30851063829788  L 15.3282442748092 7.81914893617022  C 15.3282442748092 7.81914893617022  15.2581162216223 9.17730047410308  14.2813522355507 9.89361702127659  C 13.4437153904798 10.507903728406  12.2922573609596 10.2446808510638  12.2922573609596 10.2446808510638  C 12.2922573609596 10.2446808510638  11.4314794620138 9.09574468085106  11.001090512541 8.52127659574467  C 10.9545619774628 8.19148936170212  10.8615049073064 7.53191489361703  10.8615049073064 7.53191489361703  L 10.4776444929117 6.98936170212768  C 10.4776444929117 6.98936170212768  10.0356234096692 7.09574468085107  9.81461286804798 7.14893617021277  C 9.72155579789172 7.27659574468085  9.53544165757906 7.53191489361703  9.53544165757906 7.53191489361703  L 9.25627044711017 6.6063829787234  L 9.81461286804798 6.06382978723405  L 9.53544165757906 5.64893617021277  L 8.59323882224651 5.5212765957447  C 8.59323882224651 5.5212765957447  7.6510359869138 4.94680851063831  7.23227917121047 4.94680851063831  C 6.81352235550707 4.94680851063831  6.60414394765539 4.91489361702128  6.49945474372956 5.23404255319148  C 6.3947655398037 5.5531914893617  6.70883315158121 5.87234042553193  6.70883315158121 5.87234042553193  L 6.35986913849512 5.87234042553193  L 6.04580152671754 6.22340425531916  L 5.83642311886586 6.22340425531916  L 5.20828789531081 6.6063829787234  C 5.20828789531081 6.6063829787234  5.20828789531081 6.96808510638299  5.20828789531081 7.14893617021277  C 5.3013449654671 7.27659574468085  5.48745910577969 7.53191489361703  5.48745910577969 7.53191489361703  L 5.03380588876775 7.97872340425532  L 4.37077426390404 8.52127659574467  C 4.37077426390404 8.52127659574467  4.37077426390404 8.88297872340426  4.37077426390404 9.06382978723405  C 4.64994547437296 9.19148936170214  5.20828789531081 9.4468085106383  5.20828789531081 9.4468085106383  L 6.18538713195202 9.63829787234044  C 6.18538713195202 9.63829787234044  6.65067248273353 9.93617021276596  6.88331515812431 10.0851063829787  C 7.23227917121047 10.0851063829787  7.9302071973828 10.0851063829787  7.9302071973828 10.0851063829787  C 7.9302071973828 10.0851063829787  7.81512551495552 11.1480201722139  8.38386041439482 11.8085106382979  C 8.90296790222748 12.4113671658722  9.81461286804798 12.3829787234042  9.81461286804798 12.3829787234042  L 10.4776444929117 12.2234042553192  L 10.2333696837514 12.6702127659575  L 10.6521264994547 13.0531914893617  L 11.4547437295529 13.6914893617021  L 11.001090512541 13.9148936170213  L 10.6521264994547 14.1702127659575  L 10.2333696837514 14.4893617021277  L 9.53544165757906 14.6489361702128  C 9.53544165757906 14.6489361702128  8.73282442748091 15.1276595744681  7.23227917121047 16.8191489361702  C 5.73173391494 18.5106382978723  5.20828789531081 19.3085106382979  5.20828789531081 19.3085106382979  L 5.48745910577969 20.2340425531915  L 5.48745910577969 20.4255319148936  L 4.78953107960741 20.4255319148936  L 4.11867834091382 20.6522734304932  L 3.18429661941115 20.968085106383  L 2.18082288199574 20.6560541470897  L 1.43947655398033 20.4255319148936  C 1.43947655398033 20.4255319148936  1.16030534351149 20.0212765957447  1.02071973827701 19.8191489361702  C 0.869501999272997 19.6489361702128  0.56706652126502 19.3085106382979  0.56706652126502 19.3085106382979  L 0.881134133042525 18.6063829787234  L 2.18082288199574 15.7021276595745  L 1.71864776444933 14.936170212766  L 0.56706652126502 14.2978723404255  L 0.392584514721919 13.9148936170213  L 0.881134133042525 12  L 1.71864776444933 11.8085106382979  C 1.71864776444933 11.8085106382979  2.02676450948028 11.2978723404255  2.18082288199574 11.0425531914894  C 2.18082288199574 10.7234042553191  2.18082288199574 10.0851063829787  2.18082288199574 10.0851063829787  L 2.03271537622684 9.4468085106383  L 0.706652126499462 9.06382978723405  L 0.56706652126502 8.39361702127662  L 1.43947655398033 8.20212765957447  L 1.71864776444933 7.69148936170213  L 1.16030534351145 6.7340425531915  L 0.392584514721919 6.06382978723405  L 0.078516902944376 5.23404255319148  Z " fill-rule="nonzero" fill="#169bd5" stroke="none" transform="matrix(1 0 0 1 763 563 )" />
  </g>
</svg>