<?xml version="1.0" encoding="utf-8"?>
<svg version="1.1" xmlns:xlink="http://www.w3.org/1999/xlink" width="111px" height="112px" xmlns="http://www.w3.org/2000/svg">
  <defs>
    <filter x="728px" y="551px" width="111px" height="112px" filterUnits="userSpaceOnUse" id="filter233">
      <feOffset dx="0" dy="0" in="SourceAlpha" result="shadowOffsetInner" />
      <feGaussianBlur stdDeviation="25" in="shadowOffsetInner" result="shadowGaussian" />
      <feComposite in2="shadowGaussian" operator="atop" in="SourceAlpha" result="shadowComposite" />
      <feColorMatrix type="matrix" values="0 0 0 0 0.435294117647059  0 0 0 0 0.901960784313726  0 0 0 0 0.980392156862745  0 0 0 1 0  " in="shadowComposite" />
    </filter>
    <g id="widget234">
      <path d="M 0.193406593406554 5.63809523809523  L 1.29019341376528 4.78476190476189  C 1.29019341376528 4.78476190476189  2.09259428285351 4.21234873499849  2.12747252747252 3.44380952380951  C 2.14640209222863 3.02669814321293  1.7406593406593 2.68190476190476  1.7406593406593 2.68190476190476  L 2.44981684981684 2.86476190476191  L 3.38461538461541 2.40761904761905  L 2.93333333333336 1.28000000000002  L 3.64249084249087 0.243809523809512  L 4.19047619047618 0.243809523809512  L 5.54432234432236 0.548571428571443  L 7.31721611721613 0  L 8.05860805860811 0.548571428571443  L 7.09157509157511 1.58476190476191  L 4.89963369963368 2.16380952380952  L 7.09157509157511 2.86476190476191  L 7.89743589743587 2.04190476190475  L 9.44468864468865 2.04190476190475  L 9.96043956043953 2.86476190476191  L 10.4788418543989 2.86476190476191  L 10.4788418543989 3.13904761904762  L 9.7992673992674 3.77904761904763  L 10.4788418543989 3.91418213963936  L 10.959706959707 4.78476190476189  L 10.8067290476292 5.02143517038971  L 9.7992673992674 5.02143517038971  C 9.7992673992674 5.02143517038971  9.09010989010994 5.15047619047617  9.44468864468865 5.63809523809523  C 9.79926739926744 6.12571428571429  10.2505494505495 5.88190476190474  10.2505494505495 5.88190476190474  L 9.7992673992674 7.40571428571429  L 10.2505494505495 7.40571428571429  L 10.2505494505495 7.9847619047619  L 9.18681318681315 8.71619047619049  L 9.18681318681315 7.9847619047619  L 8.8967032967033 7.9847619047619  L 7.89743589743587 9.53904761904762  L 8.05860805860811 9.9047619047619  L 7.89743589743587 10.24  L 7.67179487179488 10.4228571428571  L 7.67179487179488 11.7028571428571  L 7.47737883726391 11.9519909278521  L 6.64029304029306 11.4285714285714  L 5.96336996336998 11.2761904761905  L 5.96336996336998 11.7028571428571  L 5.4153846153846 11.5504761904762  L 5.12527472527471 11.2761904761905  L 4.70622710622709 10.6361904761905  L 4.06153846153849 11.0019047619048  L 4.19047619047618 11.2761904761905  C 4.19047619047618 11.2761904761905  3.4482299704006 11.9016806324964  2.93333333333336 11.7028571428571  C 2.50539888098854 11.5376134511588  2.44981684981684 10.7580952380952  2.44981684981684 10.7580952380952  C 2.44981684981684 10.7580952380952  2.50375238497249 9.90396729030294  1.96630036630036 9.29523809523809  C 1.71324574863677 9.00862323778832  1.29019341376528 8.96038719179441  1.29019341376528 8.96038719179441  L 1.41831501831501 8.71619047619049  L 0.967032967032964 7.9847619047619  L 0.0644688644688642 6.70476190476188  L 0.0644688644688642 6.49142857142859  L 0.0644688644688642 6.18666666666666  L 0.515750915750914 5.88190476190474  L 0.193406593406554 5.63809523809523  Z " fill-rule="nonzero" fill="#001b76" stroke="none" transform="matrix(1 0 0 1 778 601 )" />
    </g>
  </defs>
  <g transform="matrix(1 0 0 1 -728 -551 )">
    <use xlink:href="#widget234" filter="url(#filter233)" />
    <use xlink:href="#widget234" />
  </g>
</svg>