<?xml version="1.0" encoding="utf-8"?>
<svg version="1.1" xmlns:xlink="http://www.w3.org/1999/xlink" width="107px" height="107px" xmlns="http://www.w3.org/2000/svg">
  <defs>
    <filter x="702px" y="587px" width="107px" height="107px" filterUnits="userSpaceOnUse" id="filter173">
      <feOffset dx="0" dy="0" in="SourceAlpha" result="shadowOffsetInner" />
      <feGaussianBlur stdDeviation="25" in="shadowOffsetInner" result="shadowGaussian" />
      <feComposite in2="shadowGaussian" operator="atop" in="SourceAlpha" result="shadowComposite" />
      <feColorMatrix type="matrix" values="0 0 0 0 0.435294117647059  0 0 0 0 0.901960784313726  0 0 0 0 0.980392156862745  0 0 0 1 0  " in="shadowComposite" />
    </filter>
    <g id="widget174">
      <path d="M 0.255913978494644 3.54842767295596  L 2.06236559139782 2.06918238993711  L 1.64086021505375 1.47044025157232  L 3.02580645161294 0.977358490566028  L 3.14623655913982 0.695597484276738  L 5.07311827956987 0.695597484276738  L 5.3440860215054 0.413836477987427  L 6.27741935483872 0.554716981132072  L 6.27741935483872 0.0616352201257835  L 6.66881720430109 0.413836477987427  L 6.81935483870966 0.977358490566028  L 6.93978494623654 1.47044025157232  L 6.81935483870966 1.89308176100629  L 6.27741935483872 2.35094339622643  L 5.82580645161292 3.30188679245283  L 5.82580645161292 4.92201257861638  L 5.3440860215054 5.23899371069182  L 4.23010752688171 6.57735849056609  L 3.56774193548388 6.78867924528298  L 2.75483870967745 6.92955974842765  L 1.52221360816479 6.31207704614337  L 0.587096774193557 6.18993710691824  L 0.255913978494644 5.41509433962265  L 0.0451612903225757 4.39371069182391  L 0.255913978494644 3.54842767295596  Z " fill-rule="nonzero" fill="#001b76" stroke="none" transform="matrix(1 0 0 1 752 637 )" />
    </g>
  </defs>
  <g transform="matrix(1 0 0 1 -702 -587 )">
    <use xlink:href="#widget174" filter="url(#filter173)" />
    <use xlink:href="#widget174" />
  </g>
</svg>