<?xml version="1.0" encoding="utf-8"?>
<svg version="1.1" xmlns:xlink="http://www.w3.org/1999/xlink" width="121px" height="113px" xmlns="http://www.w3.org/2000/svg">
  <defs>
    <filter x="701px" y="545px" width="121px" height="113px" filterUnits="userSpaceOnUse" id="filter219">
      <feOffset dx="0" dy="0" in="SourceAlpha" result="shadowOffsetInner" />
      <feGaussianBlur stdDeviation="25" in="shadowOffsetInner" result="shadowGaussian" />
      <feComposite in2="shadowGaussian" operator="atop" in="SourceAlpha" result="shadowComposite" />
      <feColorMatrix type="matrix" values="0 0 0 0 0.435294117647059  0 0 0 0 0.901960784313726  0 0 0 0 0.980392156862745  0 0 0 1 0  " in="shadowComposite" />
    </filter>
    <g id="widget220">
      <path d="M 2.6021739130435 2.5095652173913  C 2.77934540505154 2.12699849943213  3.75869565217391 2.20811594202898  3.75869565217391 2.20811594202898  L 4.27608695652172 1.5738639646887  L 3.57608695652174 0.851594202898553  L 2.93695652173913 0.459710144927539  L 2.7870414392792 0.115719362854649  L 3.36304347826086 0.218550724637694  L 5.15869565217391 0.218550724637694  L 5.8891304347826 0.459710144927539  L 6.25434782608695 0.00753623188405033  L 6.86304347826085 0.851594202898553  L 7.68478260869566 1.48463768115941  L 8.2936277396747 1.5738639646887  L 9.20652173913042 2.08753623188405  L 13.65 2.35884057971013  L 13.7717391304348 3.68521739130434  L 14.1065217391304 4.04695652173916  L 15.5978260869565 3.68521739130434  L 16.2065217391304 4.28811594202897  C 16.2065217391304 4.28811594202897  16.5226635257242 4.79294171667386  16.9369565217391 4.80057971014493  C 17.374542295353 4.80864713420003  17.7282608695652 4.28811594202897  17.7282608695652 4.28811594202897  L 18.3369565217391 4.55942028985508  L 19.0065217391304 5.28289855072465  L 19.9195652173913 5.43362318840582  L 20.0717391304348 5.70492753623187  L 19.5847826086956 6.42840579710146  L 20.8934782608696 9.20173913043479  L 20.6804347826087 9.38260869565218  L 20.6804347826087 9.65391304347826  L 19.9195652173913 9.65391304347826  L 19.1891304347826 10.1965217391304  L 18.3369565217391 10.1965217391304  L 17.5152173913044 10.6185507246377  L 17.3934782608696 10.8597101449275  C 17.3934782608696 10.8597101449275  16.6021739130435 11.0204830917874  16.2065217391304 11.1008695652174  C 16.0036231884058 11.2114009661836  15.5978260869565 11.4324637681159  15.5978260869565 11.4324637681159  L 14.8369565217391 12.2463768115942  L 14.5021739130435 11.8846376811594  C 14.5021739130435 11.8846376811594  14.6847826086957 11.0104347826087  14.5021739130435 10.6969153726675  C 14.3195652173913 10.3833959627262  13.65 10.3171014492754  13.65 10.3171014492754  L 13.1021739130435 10.8597101449275  L 12.8282608695652 10.8597101449275  L 12.6152173913044 9.98550724637682  L 12.1282608695652 9.80463768115941  L 11.7021739130435 10.4376811594203  L 10.9108695652174 11.1008695652174  L 10.545652173913 10.8597101449275  C 10.545652173913 10.8597101449275  9.81521739130435 10.4979710144927  9.45000000000001 10.3171014492754  C 9.01376811594202 10.2065700483092  8.14130434782609 9.98550724637682  8.14130434782609 9.98550724637682  L 6.68043478260867 9.38260869565218  L 5.37173913043476 9.53333333333335  L 5.61521739130435 10.6185507246377  L 4.8833744643915 10.6969153726675  L 4.27608695652172 10.3171014492754  L 3.36304347826086 10.8597101449275  L 2.6021739130435 11.703768115942  L 2.3282608695652 12.9698550724637  L 0.471739130434767 10.6185507246377  L 0.471739130434767 9.80463768115941  L 0.0760869565217143 9.20173913043479  L 0.228260869565216 8.65913043478261  L 2.6021739130435 8.44811594202898  L 4.27608695652172 7.36289855072464  C 4.27608695652172 7.36289855072464  4.74636719320041 6.87288290964149  4.6413043478261 6.12695652173912  C 4.55750563775613 5.53200148420295  4.06304347826088 4.95130434782608  4.06304347826088 4.95130434782608  L 3.18043478260869 4.55942028985508  L 3.18043478260869 3.68521739130434  C 3.18043478260869 3.68521739130434  2.40656888956179 2.931935492663  2.6021739130435 2.5095652173913  Z " fill-rule="nonzero" fill="#169bd5" stroke="none" transform="matrix(1 0 0 1 751 595 )" />
    </g>
  </defs>
  <g transform="matrix(1 0 0 1 -701 -545 )">
    <use xlink:href="#widget220" filter="url(#filter219)" />
    <use xlink:href="#widget220" />
  </g>
</svg>