<?xml version="1.0" encoding="utf-8"?>
<svg version="1.1" xmlns:xlink="http://www.w3.org/1999/xlink" width="116px" height="118px" xmlns="http://www.w3.org/2000/svg">
  <defs>
    <filter x="702px" y="555px" width="116px" height="118px" filterUnits="userSpaceOnUse" id="filter221">
      <feOffset dx="0" dy="0" in="SourceAlpha" result="shadowOffsetInner" />
      <feGaussianBlur stdDeviation="25" in="shadowOffsetInner" result="shadowGaussian" />
      <feComposite in2="shadowGaussian" operator="atop" in="SourceAlpha" result="shadowComposite" />
      <feColorMatrix type="matrix" values="0 0 0 0 0.435294117647059  0 0 0 0 0.901960784313726  0 0 0 0 0.980392156862745  0 0 0 1 0  " in="shadowComposite" />
    </filter>
    <g id="widget222">
      <path d="M 1.41666666666665 2.31999999999998  L 1.91666666666665 1.61599999999998  L 2.71666666666668 1.328  L 3.01666666666666 1.48799999999999  L 4.38333333333333 1.48799999999999  L 4.25 0.239999999999994  L 4.38333333333333 0.079999999999998  L 5.41666666666665 0.079999999999998  L 6.91666666666665 0.720000000000002  L 8.04999999999998 0.911999999999985  L 9.98333333333334 2.064  L 11.4833333333333 0.720000000000002  L 11.7166666666667 1.328  L 11.7166666666667 1.93600000000001  L 12.75 1.61599999999998  L 13.15 1.10399999999999  L 13.6166666666667 1.328  L 13.6166666666667 2.44800000000001  L 13.9833333333333 3.15200000000003  L 14.9166666666667 3.47200000000002  C 14.9166666666667 3.47200000000002  14.9166666666667 4.176  14.9166666666667 4.528  C 15.1166666666667 4.86933333333335  15.5166666666667 5.55200000000001  15.5166666666667 5.55200000000001  L 13.75 7.63199999999999  L 13.9833333333333 9.13600000000001  L 14.65 8.49600000000001  L 14.65 9.808  C 14.65 9.808  14.7722222222222 10.704  14.9166666666667 11.152  C 15.1611111111111 11.4293333333334  15.8166666666666 11.984  15.8166666666666 11.984  L 15.3833333333333 12.4  L 15.3833333333333 12.816  L 15.65 12.816  L 15.9833333333333 13.136  L 15.9833333333333 13.7794907294874  L 15.5166666666667 14.608  L 15.3833333333333 14.864  L 14.9166666666667 15.312  C 14.9166666666667 15.312  14.0846509600645 14.6450417032244  13.15 14.608  C 12.60172301595 14.5862709116069  12.2833333333333 14.864  12.2833333333333 14.864  C 12.2833333333333 14.864  11.8166666666666 15.216  11.8833333333333 15.504  C 11.95 15.792  12.25 16.016  12.4833333333333 16.368  C 12.7166666666667 16.72  12.4833333333333 17.008  12.4833333333333 17.008  L 10.7833333333333 16.144  C 10.7833333333333 16.144  10.2073333333334 15.7069771793259  9.98333333333334 15.856  C 9.66872672967012 16.0653016226812  9.98333333333334 17.008  9.98333333333334 17.008  L 9.48333333333334 17.392  L 8.95000000000002 17.52  L 8.04999999999998 17.904  L 7.61666666666667 17.648  L 7.75 16.752  L 6.45000000000002 16.752  L 6.91666666666665 15.728  L 7.25 15.504  L 7.61666666666667 13.936  L 7.08333333333335 13.616  L 7.08333333333335 12.592  L 6.45000000000002 12.144  L 5.88333333333333 12.592  L 4.71666666666668 12.592  L 4.38333333333333 13.36  C 4.38333333333333 13.36  4.20555555555553 13.5649938196583  4.01666666666666 13.7794907294874  C 3.96012290781203 13.7794907294874  3.8470353901027 13.7794907294874  3.8470353901027 13.7794907294874  L 3.54999999999998 13.488  L 3.01666666666666 13.616  L 2.18333333333331 14.256  L 1.41666666666665 13.36  C 1.41666666666665 13.36  1.08333333333335 13.264  1.08333333333335 12.816  C 1.08333333333335 12.368  1.21666666666668 12.144  1.21666666666668 12.144  L 1.21666666666668 11.664  L 1.58333333333335 11.152  L 1.41666666666665 10.2862455364665  L 0.783333333333323 9.96799999999998  L 0.01625151365826 10.2862455364665  L 0.0499999999999842 9.67999999999999  L 1.21666666666668 8.912  L 0.916666666666654 7.63199999999999  C 0.916666666666654 7.63199999999999  0.827777777777793 7.312  0.783333333333323 7.152  C 0.927777777777761 6.99200000000001  1.21666666666668 6.67200000000002  1.21666666666668 6.67200000000002  L 0.783333333333323 5.712  L 0.616666666666669 3.76000000000002  L 1.41666666666665 2.31999999999998  Z " fill-rule="nonzero" fill="#001b76" stroke="none" transform="matrix(1 0 0 1 752 605 )" />
    </g>
  </defs>
  <g transform="matrix(1 0 0 1 -702 -555 )">
    <use xlink:href="#widget222" filter="url(#filter221)" />
    <use xlink:href="#widget222" />
  </g>
</svg>