<?xml version="1.0" encoding="utf-8"?>
<svg version="1.1" xmlns:xlink="http://www.w3.org/1999/xlink" width="39px" height="33px" xmlns="http://www.w3.org/2000/svg">
  <g transform="matrix(1 0 0 1 -711 -564 )">
    <path d="M 0.0461538461538481 7.33588850174216  L 0.519230769230764 6.46202090592335  L 1.76538461538461 6.6  L 2.7346153846154 5.49616724738678  L 4.07307692307692 3.97839721254356  L 4.81153846153847 3.51846689895471  L 5.36538461538463 3.10452961672474  L 6.56538461538459 3.24250871080139  L 7.76538461538462 2.78257839721255  L 9.01153846153845 2.36864111498258  L 9.01153846153845 0.252961672473871  C 9.01153846153845 0.252961672473871  9.45096608260991 0.189922585571145  9.67067989314563 0.158403042119787  C 9.94968403132784 0.118377870124001  10.5076923076923 0.0383275261324008  10.5076923076923 0.0383275261324008  L 11.4576923076923 1.03484320557491  L 11.7807692307692 1.77073170731707  L 12.0531454652684 2.55416927379452  L 12.5192307692308 2.9205574912892  L 12.3346153846154 3.51846689895471  L 11.7807692307692 4.20836236933798  L 12.6576923076923 4.99024390243903  L 12.7961538461539 5.81811846689897  L 13.2576923076923 6.2780487804878  L 13.3961538461539 7.1979094076655  L 13.8115384615384 7.61184668989546  L 14.3653846153846 7.61184668989546  L 14.8269230769231 7.05993031358886  L 17.7076923076923 6.6  L 17.7076923076923 7.1979094076655  L 16.6730769230769 8.80766550522647  L 17.0423076923077 9.45156794425088  L 17.8269230769231 9.91149825783973  L 18.3807692307692 10.5094076655052  L 18.75 10.7393728222997  L 19.0269230769231 11.1379790940767  L 19.5807692307692 11.4752613240418  L 19.8576923076923 12.6710801393728  L 20.7991713333882 12.8531186758301  C 20.7991713333882 12.8531186758301  21.088408733738 13.6455701142269  21.6576923076923 13.7749128919861  C 22.2840058117497 13.9172130251169  22.95 13.2689895470383  22.95 13.2689895470383  L 22.7653846153846 12.6710801393728  L 22.4884615384615 12.4411149825784  L 22.7653846153846 12.0271777003484  L 23.3192307692308 12.0271777003484  L 23.3225288929066 12.0264749366492  C 23.3225288929066 12.0264749366492  24.0298380818431 12.5898454084921  24.75 12.4411149825784  C 25.9406731137181 12.1952128946418  26.6423076923077 10.8773519163763  26.6423076923077 10.8773519163763  L 27.4923076923077 11.1379790940767  C 27.4923076923077 11.1379790940767  28.0111131311197 11.7229710909083  27.8884615384615 12.3031358885017  C 27.7391697024546 13.0093139816046  26.8730769230769 13.406968641115  26.8730769230769 13.406968641115  L 25.8576923076923 14.0048780487805  L 25.35 15.8445993031359  C 25.35 15.8445993031359  25.5346153846154 16.212543554007  26.1807692307692 16.8564459930314  C 26.8269230769231 17.5003484320557  27.3346153846154 17.2703832752613  27.3346153846154 17.2703832752613  L 27.8884615384615 17.9602787456446  L 28.5346153846154 17.822299651568  L 29.1807692307693 18.0982578397212  L 29.4115384615385 18.4968641114983  L 29.8730769230769 19.1101045296167  L 30.095153026207 20.4221111339228  C 30.095153026207 20.4221111339228  30.6402479344089 20.7805655712773  30.7038461538462 21.3177700348432  C 30.7381602822301 21.6076162458584  30.5192307692308 21.8696864111498  30.5192307692308 21.8696864111498  L 30.270880322059 22.2119065239127  L 30.5192307692308 22.9275261324042  L 31.7653846153846 23.801393728223  L 31.9961538461539 24.3073170731707  L 32.5961538461539 24.7672473867596  L 33.4730769230769 24.6292682926829  L 33.3384615384615 23.6174216027874  L 33.75 23.387456445993  L 34.2615384615384 23.387456445993  L 34.7192307692308 23.1026631503876  L 34.9038461538461 22.0076655052265  L 34.5807692307692 21.3177700348432  L 33.75 20.9498257839721  L 33.75 18.9261324041812  L 34.2615384615384 18.4968641114983  L 35.4115384615385 18.7421602787456  L 36.4269230769231 19.7080139372823  L 37.3038461538462 20.3519163763066  L 38.6434316572952 20.6738675958188  L 39 21.3177700348432  L 38.6434316572952 22.0076655052265  L 38.6434316572952 23.1026631503876  L 38.5038461538462 23.801393728223  C 38.5038461538462 23.801393728223  37.1971523569184 23.7380796231451  36.4269230769231 24.3073170731707  C 35.8886219028261 24.7051482068958  36.0115384615385 25.3191637630662  36.0115384615385 25.3191637630662  L 35.8269230769231 25.528937461317  L 34.5807692307692 24.9512195121951  L 33.9346153846154 24.9512195121951  L 32.7346153846154 26.7909407665505  L 32.7346153846154 27.7567944250871  C 32.7346153846154 27.7567944250871  33.1371794871795 28.3393728222996  33.3384615384615 28.6306620209059  C 33.3384615384615 28.9117305458769  33.3384615384615 29.4738675958188  33.3384615384615 29.4738675958188  C 33.3384615384615 29.4738675958188  32.0913846153846 29.2869064891993  31.5346153846154 29.9644599303136  C 31.0151747377294 30.5965868121566  31.35 31.7581881533101  31.35 31.7581881533101  C 31.35 31.7581881533101  31.1038461538462 32.218118466899  30.9807692307692 32.4480836236934  C 30.7205128205128 32.601393728223  30.2 32.9080139372822  30.2 32.9080139372822  L 29.1807692307693 32.4480836236934  L 28.5346153846154 32.4480836236934  L 28.7192307692308 31.5742160278746  L 28.5346153846154 31.0682926829268  C 28.5346153846154 31.0682926829268  27.8397435897436 30.429409489536  27.4923076923077 30.1099678928406  C 27.4923076923077 29.8979344605  27.4923076923077 29.4738675958188  27.4923076923077 29.4738675958188  C 27.4923076923077 29.4738675958188  25.9973361541226 29.5570577793999  25.0730769230769 28.8606271777004  C 24.3374723519441 28.3063481216963  24.3807692307692 27.4348432055749  24.3807692307692 27.4348432055749  L 23.5038461538462 27.4348432055749  L 23.0884615384615 27.8947735191638  L 22.1653846153846 29.0445993031359  L 22.4884615384615 30.3324041811847  L 21.7961538461539 30.4703832752613  L 21.3793667891165 30.1099678928406  L 20.7346153846154 30.3324041811847  L 19.4307692307692 29.7191637630662  C 19.4307692307692 29.7191637630662  19.3153846153846 29.146806039489  19.2576923076923 28.8606271777004  C 19.2576923076923 28.5386759581881  19.2576923076923 27.8947735191638  19.2576923076923 27.8947735191638  L 21.0576923076923 28.1247386759582  L 21.6576923076923 27.5728222996516  L 21.6576923076923 26.7909407665505  L 20.9192307692308 26.3310104529617  L 21.7961538461539 25.6871080139373  L 22.6319221634001 25.528937461317  L 23.3192307692308 24.6292682926829  L 23.3192307692308 24.1233449477352  L 23.7807692307692 23.9853658536586  L 24.6115384615385 22.2376306620209  L 23.9192307692308 21.0878048780488  L 23.5038461538462 18.7421602787456  L 23.0884615384615 17.9602787456446  L 22.35 17.408362369338  L 22.35 16.4885017421603  L 21.0576923076923 16.7184668989547  L 17.7076923076923 14.0048780487805  L 17.1807692307693 14.5108013937282  L 13.8115384615384 11.797212543554  L 13.2576923076923 12.1651567944251  L 12.1961538461539 12.4411149825784  L 10.1653846153846 11.2912891986063  L 9.51923076923078 11.6132404181185  L 9.51923076923078 12.8550522648084  C 9.51923076923078 12.8550522648084  9.52827805042296 13.4575889646249  9.24230769230771 13.5909407665505  C 8.88769623443214 13.756300831149  8.31923076923078 13.2689895470383  8.31923076923078 13.2689895470383  L 6.56538461538459 11.6132404181185  L 4.81153846153847 10.8773519163763  L 4.07307692307692 10.3714285714286  L 2.7346153846154 10.2334494773519  L 1.76538461538461 10.2334494773519  L 0.519230769230764 9.91149825783973  L 0.0461538461538481 9.2369337979094  L 0.0461538461538481 7.33588850174216  Z " fill-rule="nonzero" fill="#169bd5" stroke="none" transform="matrix(1 0 0 1 711 564 )" />
  </g>
</svg>