<?xml version="1.0" encoding="utf-8"?>
<svg version="1.1" xmlns:xlink="http://www.w3.org/1999/xlink" width="12px" height="16px" xmlns="http://www.w3.org/2000/svg">
  <g transform="matrix(1 0 0 1 -773 -609 )">
    <path d="M 1.59999999999998 7.68165374677002  L 2.33142857142861 7.0201550387597  L 2.33142857142861 6.68940568475451  C 2.33142857142861 6.68940568475451  1.77178625738672 6.28737763799027  1.81333333333333 5.86253229974162  C 1.89692600929046 5.00774389687639  3.15428571428575 4.47338501291988  3.15428571428575 4.47338501291988  L 3.3980952380952 3.15038759689922  L 3.03238095238098 3.5142118863049  L 3.15428571428575 2.15813953488372  L 3.91619047619052 1.66201550387598  L 4.37333333333333 1.95968992248062  L 5.1352380952381 1.95968992248062  C 5.1352380952381 1.95968992248062  5.43999999999999 1.49664082687338  5.59238095238098 1.26511627906974  C 5.81587301587304 1.09974160206718  6.26285714285713 0.768992248062026  6.26285714285713 0.768992248062026  L 6.26285714285713 0.0744186046511696  C 6.26285714285713 0.0744186046511696  6.71950802361824 0.00115179626851861  6.99428571428572 0.272868217054249  C 7.37309625443095 0.647458468082732  7.22536344798942 1.20339624527129  7.32952380952383 1.66201550387598  C 7.46491243890169 2.25813318160007  7.78666666666664 2.72041343669252  7.78666666666664 2.72041343669252  C 7.78666666666664 2.72041343669252  8.50396165731348 3.13136394808237  9.09714285714284 2.85271317829458  C 9.56697301579003 2.6320073713435  9.73714285714284 1.95968992248062  9.73714285714284 1.95968992248062  C 9.73714285714284 1.95968992248062  9.87936507936508 2.3786391042205  9.95047619047619 2.58811369509043  C 10.1231746031746 2.67631352282514  10.4685714285715 2.85271317829458  10.4685714285715 2.85271317829458  L 11.1390476190476 3.01808785529716  L 11.5047619047619 2.72041343669252  L 11.6266666666667 3.3157622739018  L 11.9619047619048 3.5142118863049  L 11.9619047619048 3.81188630490954  L 11.3523809523809 4.47338501291988  L 11.3523809523809 5.20103359173129  L 10.1333333333334 4.96950904392764  L 9.95047619047619 5.20103359173129  L 10.1333333333334 5.4656330749354  L 11.3523809523809 6.32558139534884  L 11.1390476190476 6.68940568475451  L 10.1333333333334 7.28475452196381  L 10.4685714285715 8.11162790697673  L 10.2857142857143 8.47545219638244  L 10.4685714285715 9.13695090439276  L 9.95047619047619 9.13695090439276  L 9.24952380952378 9.66614987080103  L 9.73714285714284 10.2284237726098  L 9.49333333333331 10.4599483204135  L 8.90321234303116 10.2284237726098  L 8.90321234303116 11.4852713178295  L 8.90321234303116 12.0144702842377  L 8.30476190476192 12.8082687338501  L 7.32952380952383 12.8082687338501  L 7.32952380952383 13.568992248062  L 6.59809523809521 13.43669250646  L 6.41523809523811 14.1974160206718  L 5.74476190476192 15.7519379844961  L 4.8304761904762 14.8589147286822  C 4.8304761904762 14.8589147286822  4.94326315624161 15.7988896176663  4.67809523809526 15.9173126614987  C 4.29164744801571 16.0898988623612  3.52000000000001 14.9912144702842  3.52000000000001 14.9912144702842  L 3.03238095238098 13.568992248062  L 2.33142857142861 12.6759689922481  L 0.25904761904764 12.6759689922481  L 0.0152380952381095 11.6258800722726  L 0.716190476190518 11.0883720930232  L 0.533333333333352 10.4599483204135  L 0.716190476190518 10.2284237726098  L 0.716190476190518 9.66614987080103  L 1.23428571428572 9.13695090439276  L 1.31938448495743 8.79831496942014  L 1.59999999999998 8.60775193798449  L 1.59999999999998 7.68165374677002  Z " fill-rule="nonzero" fill="#153ec5" stroke="none" transform="matrix(1 0 0 1 773 609 )" />
  </g>
</svg>