<?xml version="1.0" encoding="utf-8"?>
<svg version="1.1" xmlns:xlink="http://www.w3.org/1999/xlink" width="153px" height="133px" xmlns="http://www.w3.org/2000/svg">
  <defs>
    <filter x="621px" y="531px" width="153px" height="133px" filterUnits="userSpaceOnUse" id="filter143">
      <feOffset dx="0" dy="0" in="SourceAlpha" result="shadowOffsetInner" />
      <feGaussianBlur stdDeviation="25" in="shadowOffsetInner" result="shadowGaussian" />
      <feComposite in2="shadowGaussian" operator="atop" in="SourceAlpha" result="shadowComposite" />
      <feColorMatrix type="matrix" values="0 0 0 0 0.435294117647059  0 0 0 0 0.901960784313726  0 0 0 0 0.980392156862745  0 0 0 1 0  " in="shadowComposite" />
    </filter>
    <g id="widget144">
      <path d="M 2.67274678111587 7.52631578947368  L 1.64914163090129 4.57368421052633  L 2.78942311614268 2.49384885764501  L 5.06115879828325 2.66315789473684  L 5.51609442060084 1.21578947368421  L 6.77431328206079 0  C 6.77431328206079 0  8.2998456287256 0.795251466850681  10.1791845493562 0.81052631578947  C 11.8312326881174 0.82395379578373  12.6244635193133 0.173989455184531  12.6244635193133 0.173989455184531  C 12.6244635193133 0.173989455184531  12.8426534155378 0.186839720121888  13.1362660944206 0.347368421052622  C 13.4298787733034 0.507897121983356  13.7374296481921 1.24887077986753  13.9324034334764 1.4473684210526  C 14.2736051502146 1.79473684210528  14.8991416309013 1.4473684210526  14.8991416309013 1.4473684210526  L 16.3776824034335 1.85150290797747  L 18.0268240343348 1.4473684210526  C 18.0268240343348 1.4473684210526  18.8903685458038 1.82370784883585  19.9034334763948 1.67894736842105  C 21.3920792276522 1.46622943928128  22.4624463519313 0.578947368421055  22.4624463519313 0.578947368421055  L 24.3390557939914 0.694736842105263  L 25.6469957081545 0.173989455184531  L 26.4710561021704 0.173989455184531  L 28.6040772532189 0.81052631578947  L 30.0257510729614 1.85150290797747  L 30.0257510729614 3.53157894736843  L 29.4570815450644 3.87894736842105  L 29.2296137339056 5.03684210526316  C 29.2296137339056 5.03684210526316  30.0257510729614 5.32631578947369  29.912017167382 6.19473684210527  C 29.7982832618026 7.06315789473683  29.2296137339056 9.03157894736841  29.2296137339056 9.03157894736841  C 29.2296137339056 9.03157894736841  30.9356223175966 11.9842105263158  31.5611587982833 12.1  C 32.18669527897 12.2157894736842  32.8122317596567 11.4631578947368  32.8122317596567 11.4631578947368  L 33.2671673819742 11.6947368421053  L 34.06330472103 13.0263157894737  C 34.06330472103 13.0263157894737  34.4811147201004 13.1718942730971  35.0300429184549 13.4315789473684  C 35.5442566565856 13.6748410488465  36.270449522797 13.8475250758146  37.0203862660944 14.1511423550088  C 37.4876444598184 14.3403151922215  37.9284754354341 14.6735773478083  38.4420600858369 14.8210526315789  C 40.6598712446352 15.4578947368421  42.1384120171674 14.8210526315789  42.1384120171674 14.8210526315789  L 43.6327594476828 16.6412458158287  L 44.1287553648069 18.0052631578947  L 45.3229613733906 18.7  L 46.0622317596566 18.4105263157895  L 46.5740343347639 17.4842105263158  L 46.9721030042919 17.4842105263158  L 47.4270386266094 18.4105263157895  L 48.5643776824034 17.8315789473684  L 48.5643776824034 17.1947368421053  L 49.1330472103005 16.9631578947368  L 49.1330472103005 15.6315789473684  L 50.5547210300429 16.9631578947368  L 50.725321888412 18.0052631578947  L 51.7489270386266 19.1047596615513  L 51.9763948497854 21.2473684210526  L 52.431330472103 22.8105263157895  L 52.6019313304721 23.1578947368421  L 52.431330472103 24.721052631579  L 53 25.8207924918015  L 52.431330472103 27.1423550087873  L 51.1802575107296 28.2526315789474  L 51.4077253218884 29.5840867501313  L 50.2703862660944 30.1001757469244  C 50.2703862660944 30.1001757469244  49.6448497854077 28.4842105263158  48.7349785407725 28.6  C 47.8251072961374 28.7157894736842  48.2800429184549 29.7  48.2800429184549 29.7  L 47.9388412017167 30.9121265377856  L 46.5740343347639 30.3321616871705  L 45.3229613733906 29.121052631579  L 43.3326180257511 29.121052631579  L 40.4892703862661 30.9121265377856  L 39.181330472103 30.6801405975395  L 38.2714592274678 32.1315789473684  L 37.1341201716738 32.7105263157895  L 34.06330472103 33  L 33.4377682403433 31.6684210526316  L 33.4377682403433 30.3321616871705  L 32.4710300429185 30.3321616871705  L 32.4710300429185 29.121052631579  L 30.6024064668783 28.8159656066995  L 29.1158798283262 28.021052631579  C 29.1158798283262 28.021052631579  28.1875763802243 27.4183215074994  27.5236051502146 27.5  C 26.9169167900726 27.5746318340831  26.6137339055794 28.021052631579  26.6137339055794 28.021052631579  L 25.1920600858369 30.3321616871705  L 24.5096566523605 29.2947368421053  C 24.5096566523605 29.2947368421053  25.5332618025751 28.3105263157895  24.9645922746781 27.7894736842105  C 24.3959227467811 27.2684210526316  21.7800429184549 27.7894736842105  21.7800429184549 27.7894736842105  L 20.6995708154507 27.7894736842105  L 19.2778969957082 26.8052631578947  L 18.0268240343348 27.1423550087873  C 18.0268240343348 27.1423550087873  17.5767421904479 26.1460851285987  16.6051502145923 25.5315789473684  C 15.9307916996275 25.1050650545934  15.1834763948498 25.1263157894737  15.1834763948498 25.1263157894737  L 14.7854077253219 24.2  L 13.2988667774025 23.3267810993998  L 12.2263948497854 21.478947368421  L 11.2715464693113 21.6906854130053  C 11.2715464693113 21.6906854130053  10.5433051893412 20.5846144359141  10.1791845493562 20.0315789473684  C 9.90631011302288 19.866653396421  9.36056124035616 19.5368022945261  9.36056124035616 19.5368022945261  L 7.84763948497854 17.8315789473684  L 7.56330472103004 16.7894736842105  L 6.48283261802575 16.6157894736842  L 5.74356223175966 17.6  L 5.51609442060084 17.6  L 4.26952517776942 16.4710017574692  L 2.27708009481036 14.1511423550088  L 1.30932105451597 12.8752196836555  L 0.227708009481036 12.8752196836555  L 0 11.2513181019332  L 0.626197026072844 9.97539543057995  L 0.227708009481036 9.33743409490334  L 0.398489016591808 7.94551845342707  L 0.796137339055795 8.9157894736842  L 1.64914163090129 8.9157894736842  C 1.64914163090129 8.9157894736842  2.21781115879829 8.5298245614035  2.50214592274677 8.33684210526315  C 2.55901287553648 8.06666666666667  2.67274678111587 7.52631578947368  2.67274678111587 7.52631578947368  Z " fill-rule="nonzero" fill="#169bd5" stroke="none" transform="matrix(1 0 0 1 671 581 )" />
    </g>
  </defs>
  <g transform="matrix(1 0 0 1 -621 -531 )">
    <use xlink:href="#widget144" filter="url(#filter143)" />
    <use xlink:href="#widget144" />
  </g>
</svg>