<?xml version="1.0" encoding="utf-8"?>
<svg version="1.1" xmlns:xlink="http://www.w3.org/1999/xlink" width="17px" height="15px" xmlns="http://www.w3.org/2000/svg">
  <g transform="matrix(1 0 0 1 -737 -609 )">
    <path d="M 7.4815850815851 5.45161290322581  C 8.08391608391609 5.03225806451613  8.13143959094962 4.88570204648269  8.05221445221444 4.29032258064517  C 7.99925118304208 3.89230190927393  7.67179487179487 3.86021505376346  7.4815850815851 3.64516129032256  C 7.18570318570319 3.59139784946237  6.59393939393938 3.48387096774195  6.59393939393938 3.48387096774195  C 6.59393939393938 3.48387096774195  5.81209996998554 2.90395693307776  5.92820512820515 2.48387096774194  C 5.98260469440608 2.28704513647138  6.43441044999759 2.24945860207873  6.43441044999759 2.24945860207873  L 7.03776223776223 2.24945860207873  C 7.03776223776223 2.24945860207873  7.33364413364414 2.6637980286499  7.4815850815851 2.87096774193548  C 7.68957982294305 2.82795698924731  8.10556930565904 2.74193548387095  8.10556930565904 2.74193548387095  L 8.30582750582749 2.48387096774194  L 8.55944055944057 2.74193548387095  L 9.19347319347319 2.74193548387095  L 9.41538461538464 2.48387096774194  L 9.41538461538464 2.06451612903224  L 9.54219114219116 1.74193548387097  L 9.73240093240095 1.58064516129032  L 10.6517482517482 1.58064516129032  L 11.0638694638695 1.03225806451613  L 11.2223776223776 0.032258064516138  L 11.4759906759907 0.032258064516138  C 11.4759906759907 0.032258064516138  11.5393939393939 1.09677419354839  12.0466200466201 1.2258064516129  C 12.5538461538462 1.35483870967739  12.8708624708625 0.290322580645146  12.8708624708625 0.290322580645146  L 13.1561771561771 0.290322580645146  L 13.5048951048951 0.451612903225798  L 13.5048951048951 1.2258064516129  L 13.8219114219114 1.74193548387097  L 14.0121212121212 2.87096774193548  L 14.7412587412587 2.87096774193548  L 14.8997668997669 3.48387096774195  C 14.8997668997669 3.48387096774195  15.0899766899767 3.77419354838711  15.4703962703963 3.80645161290323  C 15.8508158508159 3.83870967741935  15.8825174825175 3.19354838709676  15.8825174825175 3.19354838709676  L 16.0410256410256 3.19354838709676  L 15.8825174825175 2.99999999999999  L 16.2946386946387 2.87096774193548  L 16.5482517482518 2.99999999999999  L 16.2946386946387 3.48387096774195  L 16.1678321678321 3.80645161290323  C 16.1678321678321 3.80645161290323  16.651380534563 4.99799292021203  16.5205620621533 5.32157710526731  C 16.3897435897436 5.64516129032258  15.4703962703963 6.32258064516131  15.4703962703963 6.32258064516131  C 15.4703962703963 6.32258064516131  15.1918205990974 7.18113878194594  15.4703962703963 7.38707581735152  C 15.8254545454546 7.64955260945903  16.7384615384616 6.96774193548388  16.7384615384616 6.96774193548388  L 16.8969696969697 7.87096774193547  L 16.7384615384616 8.22580645161291  L 16.5205620621533 9.38709677419356  L 16.8969696969697 10.258064516129  L 16.7384615384616 11  L 15.6923076923077 11.1290322580645  C 15.6923076923077 11.1290322580645  15.4175602175602 11.4516129032258  15.2801864801865 11.6129032258064  C 15.0160062160062 11.763440860215  14.4876456876457 12.0645161290322  14.4876456876457 12.0645161290322  L 14.2657342657343 12.5161290322581  L 13.8219114219114 12.5161290322581  L 13.1561771561771 13.0322580645161  L 12.8708624708625 13.4516129032258  L 12.1722850769789 13.1772540096427  C 12.1722850769789 13.1772540096427  11.6235511251158 13.1772540096427  11.3491841491841 13.1772540096427  C 11.2540792540793 13.0321478343855  11.0638694638695 12.741935483871  11.0638694638695 12.741935483871  L 10.239627039627 12.3548387096774  C 10.239627039627 12.3548387096774  9.77466977466978 12.9354838709678  9.54219114219116 13.2258064516129  C 9.27204199157292 13.3625709822872  8.73174369033652 13.6361000436358  8.73174369033652 13.6361000436358  L 8.10556930565904 14.1681657553369  C 8.10556930565904 14.1681657553369  7.68957982294305 14.314119767908  7.4815850815851 14.3870967741936  C 7.37591297591297 14.5806451612903  7.16456876456876 14.9677419354839  7.16456876456876 14.9677419354839  L 6.05501165501168 14.9677419354839  L 5.07779938735062 14.5522947485026  L 4.24801864801863 14.3870967741936  L 2.97995337995339 14.9677419354839  L 3.51888111888114 13.4516129032258  L 2.40932400932403 12.5161290322581  L 2.40932400932403 11.6129032258064  C 2.40932400932403 11.6129032258064  3.01095512385251 10.8208002142596  2.97995337995339 9.83870967741935  C 2.95975922941093 9.19898811169742  2.53613053613052 8.70967741935483  2.53613053613052 8.70967741935483  L 1.96550116550117 8.58064516129034  L 1.36317016317018 8.58064516129034  L 1.04615384615386 9.03225806451611  L 0.412121212121216 8.70967741935483  L 0.0951048951048961 7.87096774193547  L 0.0951048951048961 7.35483870967744  L 0.412121212121216 6.74193548387095  L 1.23636363636363 6.51612903225806  L 2.97995337995339 6.51612903225806  L 3.51888111888114 6.74193548387095  C 3.51888111888114 6.74193548387095  4.11064491064491 6.46236559139783  4.40652680652679 6.32258064516131  C 4.63028433346807 6.13978494623654  5.07779938735062 5.64516129032258  5.07779938735062 5.64516129032258  L 5.45268065268067 5.87096774193547  C 5.45268065268067 5.87096774193547  6.87925407925409 5.87096774193545  7.4815850815851 5.45161290322581  Z " fill-rule="nonzero" fill="#0f34a8" stroke="none" transform="matrix(1 0 0 1 737 609 )" />
  </g>
</svg>