<?xml version="1.0" encoding="utf-8"?>
<svg version="1.1" xmlns:xlink="http://www.w3.org/1999/xlink" width="116px" height="116px" xmlns="http://www.w3.org/2000/svg">
  <defs>
    <filter x="724px" y="510px" width="116px" height="116px" filterUnits="userSpaceOnUse" id="filter169">
      <feOffset dx="0" dy="0" in="SourceAlpha" result="shadowOffsetInner" />
      <feGaussianBlur stdDeviation="25" in="shadowOffsetInner" result="shadowGaussian" />
      <feComposite in2="shadowGaussian" operator="atop" in="SourceAlpha" result="shadowComposite" />
      <feColorMatrix type="matrix" values="0 0 0 0 0.435294117647059  0 0 0 0 0.901960784313726  0 0 0 0 0.980392156862745  0 0 0 1 0  " in="shadowComposite" />
    </filter>
    <g id="widget170">
      <path d="M 5.96714975845413 3.63781094527363  L 6.8019323671498 3.76517412935325  L 6.8019323671498 2.90547263681592  L 7.23478260869561 2.27661691542288  L 8.00772946859901 2.49154228855722  L 8.99710144927537 2.27661691542288  L 9.67729468599037 1.44875621890547  L 9.95555555555557 0.907462686567171  L 9.83188405797101 0.429850746268657  L 9.95555555555557 0.0477611940298582  L 10.5739130434783 0.620895522388061  L 11.4396135265701 0.429850746268657  L 11.5632850241546 0.907462686567171  L 11.9961352657005 1.22587064676617  L 12.5526570048309 1.22587064676617  L 12.8927536231884 0.429850746268657  L 13.1400966183575 0.620895522388061  C 13.1400966183575 0.620895522388061  12.9545893719807 1.15422885572139  13.1400966183575 1.6318407960199  C 13.3256038647343 2.10945273631841  13.5111111111112 2.27661691542288  13.5111111111112 2.27661691542288  L 14.624154589372 3.10447761194029  L 14.624154589372 4.53731343283582  L 14.7478260869565 5.23781094527363  C 14.7478260869565 5.23781094527363  15.551690821256 5.71542288557213  15.2115942028986 5.65174129353234  C 14.8714975845411 5.58805970149254  15.6135265700483 5.65174129353234  15.6135265700483 5.65174129353234  L 15.8299516908213 5.90646766169155  L 15.9845410628019 7.08457711442786  L 15.6135265700483 7.56218905472637  L 14.0057971014493 9.3452736318408  L 13.1418113205523 11.410825991821  L 13.1400966183575 11.4149253731343  L 12.8321240932639 11.5082094127808  L 12.119806763285 11.7572139303483  L 11.6869565217391 11.7572139303483  L 11.0376811594203 12.0517412935323  L 8.47149758454105 14.6228855721393  L 8.00772946859901 15.6099502487562  L 7.79130434782609 15.9363184079602  L 6.64734299516909 15.9363184079602  L 6.8019323671498 15.6099502487562  L 7.51304347826085 15.3950248756219  L 7.79130434782609 14.9094527363184  L 7.79130434782609 14.6228855721393  L 8.13140096618357 14.3124378109452  L 8.00772946859901 13.5164179104478  L 7.51304347826085 13.8268656716418  L 7.11111111111113 13.9860696517413  L 7.11111111111113 13.3174129353234  L 7.35845410628021 12.7442786069652  L 7.77722416580478 12.2305305412469  L 8.00772946859901 11.5082094127808  L 8.00772946859901 10.228855721393  L 7.35845410628021 9.06982881512029  L 6.8019323671498 8.76417910447762  L 6.24541062801933 9.06982881512029  L 6.05988362326415 9.06982881512029  L 5.81256038647345 9.20995024875623  L 5.34879227053144 9.3452736318408  L 4.76135265700481 10.0059701492537  L 3.67922705314009 12.0517412935323  L 3.12270531400968 12.2029850746268  L 2.13333333333332 12.0517412935323  L 1.94782608695652 11.2159203980099  L 1.5051941804372 10.9509343501526  L 0.896618357487921 10.6427860696517  L 0.0927536231884005 10.4835820895522  L 0 10.3562189054726  L 0.0927536231884005 9.8547263681592  L 0.0927536231884005 9.3452736318408  L 0.587439613526524 8.50945273631841  L 1.26763285024156 7.91243781094529  L 0.896618357487921 5.65174129353234  L 1.76231884057968 6.43980099502488  L 2.25700483091788 6.72636815920399  L 2.968115942029 6.24875621890547  L 4.29758454106277 4.53731343283582  L 4.94685990338161 4.27462686567164  L 5.34879227053144 3.51044776119403  L 5.96714975845413 3.63781094527363  Z " fill-rule="nonzero" fill="#001b76" stroke="none" transform="matrix(1 0 0 1 774 560 )" />
    </g>
  </defs>
  <g transform="matrix(1 0 0 1 -724 -510 )">
    <use xlink:href="#widget170" filter="url(#filter169)" />
    <use xlink:href="#widget170" />
  </g>
</svg>