<?xml version="1.0" encoding="utf-8"?>
<svg version="1.1" xmlns:xlink="http://www.w3.org/1999/xlink" width="12px" height="12px" xmlns="http://www.w3.org/2000/svg">
  <g transform="matrix(1 0 0 1 -742 -600 )">
    <path d="M 0.00754716981131423 6.99555555555556  L 0.309433962264138 6.62222222222222  L 3.02641509433959 6.82962962962963  L 3.50943396226416 6.26666666666667  L 3.99245283018867 5.4962962962963  L 4.6566037735849 5.20000000000002  L 5.29056603773581 4.22222222222223  L 5.92452830188682 3.77777777777778  L 6.46792452830188 2.80000000000002  L 6.83018867924529 2.40888888888889  L 7.22264150943396 1.7037037037037  L 7.37358490566039 0.755555555555581  L 8.24603773584906 0.0266666666666719  L 9.36905660377361 0.986666666666667  L 9.87622641509432 1.27111111111111  L 10.5283018867924 1.1288888888889  L 11.3615094339622 1.44888888888891  C 11.3615094339622 1.44888888888891  11.8012024550742 1.75188915675573  11.9049056603774 2.40888888888889  C 11.9849206463982 2.91581463172038  11.76 3.33333333333334  11.76 3.33333333333334  L 10.6900269541779 3.77777777777778  L 9.87622641509432 4.22222222222223  L 8.9132075471698 4.22222222222223  L 7.55773584905659 4.43555555555557  L 7.22264150943396 5.33333333333334  L 7.67547169811325 6.09523809523811  L 7.88377358490568 6.99555555555556  L 9.12452830188679 8.44444444444445  L 9.6950943396227 9.41333333333335  L 10.0211320754717 11.2977777777778  L 9.6950943396227 11.2977777777778  L 9.36905660377361 11.4518518518518  L 9.12452830188679 11.9555555555555  L 8.9132075471698 11.9555555555555  L 8.73207547169812 11.2977777777778  L 8.4 11.0370370370371  L 8.09811320754718 11.1851851851852  L 7.88377358490568 11.0370370370371  L 7.88377358490568 10.5333333333333  L 7.67547169811325 9.97037037037038  C 7.67547169811325 9.97037037037038  7.56194512428126 8.89660520944108  7.10188679245286 8.78518518518517  C 6.58243636516356 8.65938118337895  5.92452830188682 9.67407407407407  5.92452830188682 9.67407407407407  L 5.80377358490568 9.67407407407407  L 5.59245283018867 8.78518518518517  C 5.59245283018867 8.78518518518517  5.50188679245279 8.5185185185185  5.13962264150941 8.57777777777777  C 4.77735849056604 8.63703703703703  4.6566037735849 9.0222222222222  4.6566037735849 9.0222222222222  L 4.53584905660377 9.67407407407407  L 4.29433962264153 10.0888888888889  L 3.38867924528302 10.0888888888889  L 3.02641509433959 10.5333333333333  L 2.69433962264151 10.7707585520943  L 2.81509433962266 11.0370370370371  L 2.69433962264151 11.0370370370371  L 2.51320754716984 10.7707585520943  L 2.03018867924528 10.7707585520943  L 1.78867924528302 11.1851851851852  L 1.48679245283021 11.1851851851852  C 1.48679245283021 11.1851851851852  1.8401973039955 10.5914381098864  1.63773584905661 10.0888888888889  C 1.44193114696553 9.60286304000223  0.792452830188668 9.41333333333335  0.792452830188668 9.41333333333335  L 0.188679245283001 8.57777777777777  L 0.00754716981131423 7.68888888888889  L 0.00754716981131423 6.99555555555556  Z " fill-rule="nonzero" fill="#0f34a8" stroke="none" transform="matrix(1 0 0 1 742 600 )" />
  </g>
</svg>