<?xml version="1.0" encoding="utf-8"?>
<svg version="1.1" xmlns:xlink="http://www.w3.org/1999/xlink" width="14px" height="25px" xmlns="http://www.w3.org/2000/svg">
  <g transform="matrix(1 0 0 1 -742 -575 )">
    <path d="M 4.11900826446279 7.84259259259259  L 4.48925619834711 5.6574074074074  L 5.67404958677684 6.02777777777777  L 6.52561983471071 6.32407407407409  L 7.56231404958675 6.32407407407409  L 7.93256198347106 5.6574074074074  L 8.4509090909091 3.95370370370371  L 8.4509090909091 3.02777777777779  L 9.63570247933884 1.9537037037037  L 11.3018181818182 1.17592592592594  L 11.1537190082645 0.472222222222223  L 11.7090909090909 0.472222222222223  L 12.5236363636364 0.879629629629638  L 12.745785123967 0.0277777777777833  L 13.3752066115703 0.0277777777777833  L 13.5973553719008 0.620370370370364  L 12.5236363636364 1.47222222222222  L 12.9679338842975 2.21296296296298  L 12.9537699069627 2.65809506867269  L 12.0793388429752 3.80555555555557  L 12.1190989637162 4.91257820741614  L 12.5236363636364 5.17592592592594  L 12.745785123967 5.6574074074074  L 12.745785123967 6.50925925925926  L 12.0793388429752 7.06481481481481  C 12.0793388429752 7.06481481481481  11.8571900826446 7.69444444444443  11.8942148760331 8.69444444444443  C 11.9312396694214 9.69444444444444  12.2644628099174 10.3981481481481  12.2644628099174 10.3981481481481  L 12.5236363636364 11.3240740740741  L 11.8942148760331 14.5833333333333  L 11.7090909090909 15.4351851851852  L 11.8942148760331 15.8796296296297  L 12.5236363636364 16.1759259259259  C 12.5236363636364 16.1759259259259  12.4495867768595 17.0648148148148  12.5236363636364 17.5833333333333  C 12.5976859504132 18.1018518518518  13.7454545454546 18.7685185185185  13.7454545454546 18.7685185185185  L 13.9305785123967 20.0277777777778  L 13.5973553719008 20.287037037037  L 12.9679338842975 20.0277777777778  L 11.3018053153022 20.0277777777778  C 11.3018053153022 20.0277777777778  10.7094171987646 20.0277777777778  10.4132231404959 20.0277777777778  C 10.339173553719 20.1141975308642  10.2651239669422 20.2006172839506  10.1910743801653 20.287037037037  C 10.2651239669422 20.5216049382716  10.1170247933884 20.5833333333334  10.4132231404959 20.9166666666667  C 10.7094214876033 21.25  11.3018181818182 21.3240740740741  11.3018181818182 21.3240740740741  L 11.8942148760331 22.1018518518519  L 10.8575206611571 22.1018518518519  L 10.1910743801653 22.6203703703704  L 10.6723966942149 24.1388888888889  L 10.8575206611571 24.9166666666667  L 10.4132231404959 24.9166666666667  L 9.96892561983474 24.9166666666667  L 8.4509090909091 23.8055555555556  L 7.22909090909089 23.5092592592592  L 6.15537190082647 23.8055555555556  L 5.67404958677684 23.3611111111111  L 4.9705785123967 22.6203703703704  L 4.48925619834711 23.0277777777778  L 4.11900826446279 23.0277777777778  L 3.78578512396697 22.4722222222223  L 3.4525619834711 21.8796296296296  L 1.34214876033055 22.4722222222223  L 0.527603305785152 21.6944444444444  L 0.0833057851239568 20.0277777777778  L 0.527603305785152 19.3611111111111  L 1.19404958677686 19.1759259259259  L 2.41586776859502 19.1759259259259  L 2.26776859504132 17.9537037037037  L 1.93454545454543 17.1759259259259  L 1.78644628099173 16.1759259259259  L 2.8601652892562 14.5833333333333  L 3.2304132231405 14.5833333333333  L 4.7114049586777 15.287037037037  C 4.7114049586777 15.287037037037  5.08165289256201 15.287037037037  5.26677685950415 15.287037037037  C 5.40253443526171 15.1018518518518  5.67404958677684 14.7314814814815  5.67404958677684 14.7314814814815  L 4.9705785123967 14.3240740740741  C 4.9705785123967 14.3240740740741  5.08165289256201 13.8425925925926  5.97024793388429 13.6203703703704  C 6.85884297520657 13.3981481481482  7.22909090909089 13.6203703703704  7.22909090909089 13.6203703703704  L 7.71041322314048 12.2870370370371  L 7.71041322314048 11.3240740740741  L 8.11768595041324 10.6574074074074  L 7.71041322314048 9.91666666666667  L 7.22909090909089 9.5462962962963  L 5.97024793388429 9.25  L 4.9705785123967 8.47222222222222  L 4.11900826446279 7.84259259259259  Z " fill-rule="nonzero" fill="#169bd5" stroke="none" transform="matrix(1 0 0 1 742 575 )" />
  </g>
</svg>