<?xml version="1.0" encoding="utf-8"?>
<svg version="1.1" xmlns:xlink="http://www.w3.org/1999/xlink" width="35px" height="25px" xmlns="http://www.w3.org/2000/svg">
  <g transform="matrix(1 0 0 1 -699 -575 )">
    <path d="M 5.41597337770384 5.99078341013824  L 3.66888519134776 3.51382488479262  L 3.43594009983361 1.84331797235023  L 4.36772046589018 1.43568107277784  L 5.29069767441859 1.43568107277784  L 6.16279069767441 1.26146788990826  L 6.86046511627907 1.43568107277784  L 7.7906976744186 0.974770642201824  L 8.66279069767442 0.974770642201824  L 9.36046511627906 0.68807339449543  L 10.2325581395349 0.458715596330275  L 11.2396006655574 0  L 12.5581395348837 0.344036697247706  L 13.7209302325581 0.229357798165156  L 14.9418604651163 0.68807339449543  L 15.5813953488372 1.14678899082569  L 16.6279069767442 1.43568107277784  L 17.9651162790698 2.5802752293578  L 18.8372093023256 3.51382488479262  L 19.6838602329451 3.67716506829408  L 20.3488372093023 3.51382488479262  L 20.5813953488372 2.5802752293578  L 20.5813953488372 1.72018348623853  L 20.8485856905158 1.43568107277784  L 22.3255813953488 2.29357798165139  L 22.9651162790698 2.5802752293578  L 23.7790697674419 2.29357798165139  L 24.1279069767442 2.29357798165139  L 24.6921797004992 2.06789450741064  L 27.7787021630616 4.59674824594179  L 28.3720930232558 4.59674824594179  L 28.5940099833611 4.13695665711795  L 30.2246256239601 5.63127932079545  L 31.738768718802 6.83823224145803  L 32.9034941763727 6.49338854984018  L 32.9034941763727 7.28211009174312  L 33.6627906976744 8.02752293577982  L 33.8953488372093 8.60091743119267  L 34.2130535080533 9.60687995126017  L 34.4186046511628 10.9447004608295  L 35 12.098623853211  L 34.4186046511628 13.4174311926605  L 33.6627906976744 13.6467889908257  L 33.6627906976744 14.2775229357798  L 33.1976744186047 14.9655963302752  L 32.3837209302325 14.9655963302752  L 31.3372093023256 15.9977064220184  L 31.3372093023256 16.2844036697248  L 32.2093023255814 16.8577981651376  L 31.738768718802 17.4885321100917  L 29.7004991680533 17.2984908872006  L 29.8255813953488 19.7247706422018  L 31.046511627907 20.2408256880734  L 31.046511627907 20.6422018348624  C 31.046511627907 20.6422018348624  30.2906976744186 20.2981651376147  30.0581395348837 20.4128440366972  C 29.8255813953488 20.5275229357798  30.2246256239601 22.1774193548387  30.2246256239601 22.1774193548387  L 28.7209302325581 22.1774193548387  L 28.5940099833611 23.0504587155963  L 28.1395348837209 22.3050458715596  L 27.1511627906977 22.0183486238532  L 26.8023255813954 21.2557603686636  L 26.089850249584 21.7165898617511  L 25 20.4128440366972  L 24.8255813953488 19.954128440367  L 24.2441860465116 19.7247706422018  L 23.8953488372093 19.0366972477064  L 23.8953488372093 18.4331797235023  L 23.546511627907 17.6605504587156  L 22.7906976744186 17.6605504587156  L 21.5697674418605 17.4885321100917  L 21.1046511627907 17.2984908872006  L 20.5813953488372 17.947247706422  L 20.5813953488372 18.75  L 20.8485856905158 19.954128440367  L 20.3488372093023 20.1261467889908  L 20.3488372093023 20.9288990825688  L 19.8255813953488 21.3876146788991  L 19.4242404685806 22.3313995394711  L 19.6838602329451 23.2224770642202  L 19.1279069767442 23.5665137614679  L 19.0116279069768 24.4266055045871  L 18.4302325581395 24.6559633027523  L 17.9651162790698 23.9678899082569  L 17.3837209302325 23.5665137614679  L 16.9186046511628 24.197247706422  L 16.6279069767442 24.8853211009174  L 16.1314475873544 25  L 15.2906976744186 24.6559633027523  L 15.1162790697675 23.9678899082569  L 14.5930232558139 23.0504587155963  L 14.1860465116279 22.8211009174312  L 12.8702163061564 21.1405529953917  L 11.6279069767442 21.3876146788991  L 9.14309484193012 21.2557603686636  L 7.20930232558141 20.4128440366972  L 6.16279069767441 20.1261467889908  L 4.7171381031614 19.4124423963134  C 4.7171381031614 19.4124423963134  4.0230429903649 18.1192660550458  3.43594009983361 17.947247706422  C 2.84883720930235 17.7752293577982  2.80578298000949 18.5768055880992  2.2093023255814 18.4331797235023  C 1.68165317865704 18.3061277154142  1.42909478922737 17.9438769643419  1.10465116279069 17.4885321100917  C 0.49595970826455 16.6342557456935  0 15.668202764977  0 15.668202764977  L 0.232945091514146 14.9655963302752  L 0.755813953488368 13.302752293578  L 0.755813953488368 12.4426605504587  L 0.232945091514146 11.8119266055046  L 0.232945091514146 10.9447004608295  L 0.755813953488368 10.493119266055  L 0.931780366056567 8.75576036866358  L 1.86046511627906 8.75576036866358  L 2.79069767441862 9.11697247706422  L 4.12790697674418 9.40366972477063  L 4.7171381031614 9.11697247706422  L 4.7171381031614 8.37155963302753  L 4.36772046589018 7.14285714285715  L 5.41597337770384 5.99078341013824  Z " fill-rule="nonzero" fill="#169bd5" stroke="none" transform="matrix(1 0 0 1 699 575 )" />
  </g>
</svg>