<?xml version="1.0" encoding="utf-8"?>
<svg version="1.1" xmlns:xlink="http://www.w3.org/1999/xlink" width="131px" height="128px" xmlns="http://www.w3.org/2000/svg">
  <defs>
    <filter x="723px" y="478px" width="131px" height="128px" filterUnits="userSpaceOnUse" id="filter161">
      <feOffset dx="0" dy="0" in="SourceAlpha" result="shadowOffsetInner" />
      <feGaussianBlur stdDeviation="25" in="shadowOffsetInner" result="shadowGaussian" />
      <feComposite in2="shadowGaussian" operator="atop" in="SourceAlpha" result="shadowComposite" />
      <feColorMatrix type="matrix" values="0 0 0 0 0.435294117647059  0 0 0 0 0.901960784313726  0 0 0 0 0.980392156862745  0 0 0 1 0  " in="shadowComposite" />
    </filter>
    <g id="widget162">
      <path d="M 0.0347014925373467 2.76543209876543  L 0.266044776119398 1.06008230452675  L 3.31977611940297 0.0460905349794268  L 4.70783582089554 0.506995884773663  L 7.34514925373136 0.645267489711934  L 9.79738805970152 3.22633744855967  L 12.7585820895523 6.86748971193415  L 14.2391791044776 10.001646090535  L 16.7376865671642 10.1399176954733  L 19.5600746268657 10.6469135802469  L 20.3466417910448 11.1539094650206  L 21.1794776119403 11.0156378600823  L 21.3645522388059 12.0296296296296  L 21.8735074626865 12.398353909465  L 22.3361940298508 12.9053497942387  L 22.0123134328358 13.3201646090535  L 23.1690298507463 14.4724279835391  L 26.4541044776119 13.7813297315454  L 27.0555970149254 13.043621399177  C 27.0555970149254 13.043621399177  27.009328358209 12.4444444444444  27.1944029850746 12.0296296296296  C 27.3794776119403 11.6148148148148  28.2585820895523 11.4765432098765  28.2585820895523 11.4765432098765  C 28.2585820895523 11.4765432098765  28.5824626865672 10.6008230452675  28.9063432835821 10.3703703703704  C 29.230223880597 10.1399176954733  30.0630597014925 10.001646090535  30.0630597014925 10.001646090535  L 30.0630597014925 11.0156378600823  L 30.340671641791 11.6609053497942  L 30.664552238806 12.0296296296296  L 30.664552238806 12.5827160493827  L 30.340671641791 13.043621399177  L 30.4310761742773 13.7813297315454  L 30.8496268656716 16.0855967078189  L 30.9884328358209 18.7127572016461  L 30.8496268656716 19.2658436213992  L 30.4310761742773 20.3259259259259  L 29.9242537313433 20.879012345679  L 28.9063432835821 20.879012345679  L 28.4899772798185 20.7407407407407  L 27.8421641791045 20.7407407407407  L 26.8242537313433 21.7547325102881  L 26.2227611940299 22.9069958847737  L 26.6391791044777 23.7827160493827  L 27.4257462686567 24.7045267489712  L 27.8421641791045 27.0551440329218  L 27.4257462686567 27.0551440329218  L 26.2227611940299 26.5020576131687  L 26.2227611940299 26.0411522633745  L 26.2227611940299 25.6263374485597  L 25.575 25.6263374485597  L 25.3436567164179 26.5020576131687  L 25.2048507462687 26.5020576131687  L 24.5108208955224 26.0411522633745  C 24.5108208955224 26.0411522633745  23.7705223880597 26.317695473251  23.4929104477612 26.9168724279835  C 23.2152985074627 27.516049382716  23.6858544704738 27.8340140517272  23.6858544704738 27.8340140517272  L 23.1690298507463 27.9308641975309  L 22.1973880597015 26.9168724279835  L 21.3645522388059 26.5020576131687  L 21.3645522388059 25.8567901234568  L 21.0406716417911 25.3497942386831  L 20.6242537313433 25.3497942386831  L 20.3466417910448 25.8567901234568  L 20.3466417910448 26.5020576131687  L 20.2078358208955 26.6864197530864  L 19.8376865671642 26.6864197530864  L 19.6988805970149 25.8567901234568  L 18.4496268656716 24.9349794238683  L 18.3108208955224 25.3497942386831  L 17.7555970149254 25.3497942386831  L 17.7555970149254 24.9349794238683  L 17.2929104477612 24.1514403292181  L 15.6735074626866 24.1514403292181  L 15.4884328358209 24.7045267489712  C 15.4884328358209 24.7045267489712  15.2108208955224 24.4279835390946  15.0720149253732 24.2897119341564  C 15.0720149253732 24.1975308641975  15.0720149253732 24.0131687242798  15.0720149253732 24.0131687242798  L 14.5167910447761 23.3679012345679  L 13.6839552238806 23.7827160493827  L 13.2212686567165 23.6444444444444  L 12.619776119403 23.7827160493827  L 11.6018656716418 24.1514403292181  L 11.2317164179104 24.1514403292181  L 10.3063432835821 23.3679012345679  L 9.98246268656719 22.5843621399177  L 9.51977611940294 21.524279835391  L 8.31679104477614 22.2156378600823  L 7.90037313432832 21.9851851851852  L 7.76156716417912 20.4641975308642  L 7.02126865671643 20.3259259259259  L 7.02126865671643 20.00329218107  L 5.91082089552241 18.7127572016461  L 6.55858208955225 17.837037037037  L 7.02126865671643 17.6987654320988  L 7.34514925373136 17.2378600823045  L 7.90037313432832 15.6707818930041  L 8.50186567164181 15.3020576131687  L 9.28843283582088 15.6707818930041  L 9.65858208955221 15.4864197530864  L 9.98246268656719 14.1497942386831  L 9.65858208955221 13.5045267489712  L 9.79738805970152 12.5827160493827  L 10.3729391531383 11.8913580246914  L 10.4914179104478 11.2921810699588  L 10.1212686567164 9.58683127572016  L 10.3729391531383 8.34161491155416  L 10.1212686567164 7.69711934156378  L 10.3063432835821 6.68312757201646  L 9.28843283582088 4.79341563786008  L 8.50186567164181 4.33251028806584  L 7.62276119402988 4.79341563786008  L 7.34514925373136 5.34650205761317  L 6.55858208955225 5.53086419753087  L 5.54067164179104 6.17613168724281  L 5.12425373134329 6.40658436213991  L 4.33768656716418 6.17613168724281  L 3.31977611940297 5.02386831275721  L 3.31977611940297 4.00987654320988  L 3.59738805970149 3.50288065843622  L 2.20932835820896 2.99588477366255  L 1.74664179104478 3.22633744855967  L 1.46902985074627 3.73333333333333  L 0.451119402985061 3.73333333333333  L 0.266044776119398 3.22633744855967  L 0.0347014925373467 2.76543209876543  Z " fill-rule="nonzero" fill="#001b76" stroke="none" transform="matrix(1 0 0 1 773 528 )" />
    </g>
  </defs>
  <g transform="matrix(1 0 0 1 -723 -478 )">
    <use xlink:href="#widget162" filter="url(#filter161)" />
    <use xlink:href="#widget162" />
  </g>
</svg>