<?xml version="1.0" encoding="utf-8"?>
<svg version="1.1" xmlns:xlink="http://www.w3.org/1999/xlink" width="63px" height="44px" xmlns="http://www.w3.org/2000/svg">
  <g transform="matrix(1 0 0 1 -1059 -1016 )">
    <path d="M 1060 1026  A 9 9 0 0 1 1069 1017 L 1112 1017  A 9 9 0 0 1 1121 1026 L 1121 1050  A 9 9 0 0 1 1112 1059 L 1069 1059  A 9 9 0 0 1 1060 1050 L 1060 1026  Z " fill-rule="nonzero" fill="#ffffff" stroke="none" />
    <path d="M 1059.5 1026  A 9.5 9.5 0 0 1 1069 1016.5 L 1112 1016.5  A 9.5 9.5 0 0 1 1121.5 1026 L 1121.5 1050  A 9.5 9.5 0 0 1 1112 1059.5 L 1069 1059.5  A 9.5 9.5 0 0 1 1059.5 1050 L 1059.5 1026  Z " stroke-width="1" stroke="#d7d7d7" fill="none" stroke-opacity="0.4" />
  </g>
</svg>