<svg t="1589773703593" class="icon" viewBox="0 0 1024 1024" version="1.1" xmlns="http://www.w3.org/2000/svg" p-id="2228" width="200" height="200"><path d="M767.8 514.3c-33.3 0-65.5-11.5-90.7-32.5-15.1-12.5-27.2-28-35.6-45.1-8.4 17.2-20.5 32.6-35.6 45.1-25.3 21-57.5 32.5-90.7 32.5s-65.5-11.5-90.7-32.5c-15.1-12.5-27.2-28-35.6-45.1-8.4 17.2-20.5 32.6-35.6 45.1-25.3 21-57.5 32.5-90.7 32.5-33.6 0-66.1-11.8-91.5-33.2-25.2-21.2-41.8-50.5-46.8-82.5l-0.1-0.5-1.1-9.7c-0.3-3.4-0.4-6.8-0.4-10.1 0-10.9 3.7-33.2 35.6-100.9 19.3-41 42.6-85.1 58.8-114.9 14.3-26.4 42.3-42.8 73-42.8h453.5c31.4 0 59.7 17 73.8 44.4 59.9 116.2 90.2 188.3 90.2 214.3v1.3l-0.1 1.5-1.5 17.5c-4.9 31.9-21.5 61.2-46.8 82.5-25.3 21.3-57.8 33.1-91.4 33.1zM641.5 382.5c7.9 0 14.7 5.7 16 13.5 8.9 52.3 55.3 90.3 110.3 90.3 54.8 0 102.2-39.3 110.5-91.4l1.3-15.7v-0.9c0-15.7-22.9-76.9-87.1-201.5-9.3-18-28-29.2-48.9-29.2H290.1c-20.4 0-38.9 10.8-48.4 28.2-16 29.5-39.1 73.1-58.1 113.5-28.7 60.9-33 81.9-33 89 0 2.6 0.1 5.2 0.3 7.8l1 8.6c8.2 52.3 55.7 91.7 110.6 91.7 55 0 101.4-38 110.3-90.3 1.3-7.8 8.1-13.5 16-13.5s14.7 5.7 16 13.5c8.9 52.3 55.3 90.3 110.3 90.3s101.4-38 110.3-90.3c1.4-8 8.2-13.6 16.1-13.6z" fill="#F05459" p-id="2229"></path><path d="M769.3 900.2H267.6c-40.7 0-73.9-29.9-73.9-66.6V491.8h28v341.8c0 21.3 20.6 38.6 45.9 38.6h501.7c25.3 0 45.9-17.3 45.9-38.6V482.3h28v351.4c0 36.6-33.2 66.5-73.9 66.5z" fill="#F05459" p-id="2230"></path></svg>