<?xml version="1.0" encoding="utf-8"?>
<svg version="1.1" xmlns:xlink="http://www.w3.org/1999/xlink" width="190px" height="22px" xmlns="http://www.w3.org/2000/svg">
  <g transform="matrix(1 0 0 1 -1044 -476 )">
    <path d="M 1057.5 483.5  A 3.5 3.5 0 0 0 1054 487 A 3.5 3.5 0 0 0 1057.5 490.5 A 3.5 3.5 0 0 0 1061 487 A 3.5 3.5 0 0 0 1057.5 483.5 Z M 1220.5 483.5  A 3.5 3.5 0 0 0 1217 487 A 3.5 3.5 0 0 0 1220.5 490.5 A 3.5 3.5 0 0 0 1224 487 A 3.5 3.5 0 0 0 1220.5 483.5 Z " fill-rule="nonzero" fill="#ff0000" stroke="none" />
    <path d="M 1056 487  L 1222 487  " stroke-width="2" stroke="#ff0000" fill="none" />
  </g>
</svg>