<?xml version="1.0" encoding="utf-8"?>
<svg version="1.1" xmlns:xlink="http://www.w3.org/1999/xlink" width="12px" height="12px" viewBox="978 2072  12 12" xmlns="http://www.w3.org/2000/svg">
  <path d="M 984 2072  C 987.36 2072  990 2074.64  990 2078  C 990 2081.36  987.36 2084  984 2084  C 980.64 2084  978 2081.36  978 2078  C 978 2074.64  980.64 2072  984 2072  Z " fill-rule="nonzero" fill="#ffffff" stroke="none" />
  <path d="M 984 2072.5  C 987.08 2072.5  989.5 2074.92  989.5 2078  C 989.5 2081.08  987.08 2083.5  984 2083.5  C 980.92 2083.5  978.5 2081.08  978.5 2078  C 978.5 2074.92  980.92 2072.5  984 2072.5  Z " stroke-width="1" stroke="#797979" fill="none" />
  <path d="M 984 2081  C 982.32 2081  981 2079.68  981 2078  C 981 2076.32  982.32 2075  984 2075  C 985.68 2075  987 2076.32  987 2078  C 987 2079.68  985.68 2081  984 2081  " fill-rule="nonzero" fill="#797979" stroke="none" />
</svg>