<?xml version="1.0" encoding="utf-8"?>
<svg version="1.1" xmlns:xlink="http://www.w3.org/1999/xlink" width="12px" height="12px" viewBox="978 2095  12 12" xmlns="http://www.w3.org/2000/svg">
  <path d="M 984 2095  C 987.36 2095  990 2097.64  990 2101  C 990 2104.36  987.36 2107  984 2107  C 980.64 2107  978 2104.36  978 2101  C 978 2097.64  980.64 2095  984 2095  Z " fill-rule="nonzero" fill="#ffffff" stroke="none" />
  <path d="M 984 2095.5  C 987.08 2095.5  989.5 2097.92  989.5 2101  C 989.5 2104.08  987.08 2106.5  984 2106.5  C 980.92 2106.5  978.5 2104.08  978.5 2101  C 978.5 2097.92  980.92 2095.5  984 2095.5  Z " stroke-width="1" stroke="#797979" fill="none" />
  <path d="M 984 2104  C 982.32 2104  981 2102.68  981 2101  C 981 2099.32  982.32 2098  984 2098  C 985.68 2098  987 2099.32  987 2101  C 987 2102.68  985.68 2104  984 2104  " fill-rule="nonzero" fill="#797979" stroke="none" />
</svg>