<?xml version="1.0" encoding="utf-8"?>
<svg version="1.1" xmlns:xlink="http://www.w3.org/1999/xlink" width="119px" height="25px" viewBox="153 580  119 25" xmlns="http://www.w3.org/2000/svg">
  <path d="M 154 583  A 2 2 0 0 1 156 581 L 269 581  A 2 2 0 0 1 271 583 L 271 602  A 2 2 0 0 1 269 604 L 156 604  A 2 2 0 0 1 154 602 L 154 583  Z " fill-rule="nonzero" fill="#f0f0f0" stroke="none" />
  <path d="M 153.5 583  A 2.5 2.5 0 0 1 156 580.5 L 269 580.5  A 2.5 2.5 0 0 1 271.5 583 L 271.5 602  A 2.5 2.5 0 0 1 269 604.5 L 156 604.5  A 2.5 2.5 0 0 1 153.5 602 L 153.5 583  Z " stroke-width="1" stroke="#aaaaaa" fill="none" stroke-opacity="0.701960784313725" />
</svg>