<?xml version="1.0" encoding="utf-8"?>
<svg version="1.1" xmlns:xlink="http://www.w3.org/1999/xlink" width="119px" height="28px" viewBox="208 500  119 28" xmlns="http://www.w3.org/2000/svg">
  <path d="M 209 503  A 2 2 0 0 1 211 501 L 324 501  A 2 2 0 0 1 326 503 L 326 525  A 2 2 0 0 1 324 527 L 211 527  A 2 2 0 0 1 209 525 L 209 503  Z " fill-rule="nonzero" fill="#ffffff" stroke="none" />
  <path d="M 208.5 503  A 2.5 2.5 0 0 1 211 500.5 L 324 500.5  A 2.5 2.5 0 0 1 326.5 503 L 326.5 525  A 2.5 2.5 0 0 1 324 527.5 L 211 527.5  A 2.5 2.5 0 0 1 208.5 525 L 208.5 503  Z " stroke-width="1" stroke="#aaaaaa" fill="none" stroke-opacity="0.701960784313725" />
</svg>