<?xml version="1.0" encoding="utf-8"?>
<svg version="1.1" xmlns:xlink="http://www.w3.org/1999/xlink" width="99px" height="25px" viewBox="286 1585  99 25" xmlns="http://www.w3.org/2000/svg">
  <path d="M 287 1588  A 2 2 0 0 1 289 1586 L 382 1586  A 2 2 0 0 1 384 1588 L 384 1607  A 2 2 0 0 1 382 1609 L 289 1609  A 2 2 0 0 1 287 1607 L 287 1588  Z " fill-rule="nonzero" fill="#f0f0f0" stroke="none" />
  <path d="M 286.5 1588  A 2.5 2.5 0 0 1 289 1585.5 L 382 1585.5  A 2.5 2.5 0 0 1 384.5 1588 L 384.5 1607  A 2.5 2.5 0 0 1 382 1609.5 L 289 1609.5  A 2.5 2.5 0 0 1 286.5 1607 L 286.5 1588  Z " stroke-width="1" stroke="#aaaaaa" fill="none" stroke-opacity="0.701960784313725" />
</svg>