<?xml version="1.0" encoding="utf-8"?>
<svg version="1.1" xmlns:xlink="http://www.w3.org/1999/xlink" width="769px" height="136px" xmlns="http://www.w3.org/2000/svg">
  <g transform="matrix(1 0 0 1 -181 -497 )">
    <path d="M 767.41641337386 134.625  L 1.40060790273557 134.625  C 1.40060790273557 134.625  0.23343465045593 67.3500000000001  0.23343465045593 67.65  C 11.5785094510873 67.3665183447412  42.4350805603575 66  66.1398176291793 66  C 106.796352583587 66  103.489361702128 87  136.948328267477 87  C 170.407294832827 87  158.184203289099 48.1541653553063  209.313069908815 48.4999999999999  C 246.273556231003 48.75  251.656728284037 61.8612534815959  273.896656534954 61.9999999999999  C 313.969604863222 62.25  310.468085106383 0.249999999999773  350.151975683891 0.499999999999886  C 389.835866261399 0.75  369.2469974715 64.9527752257547  414.735562310031 69  C 440.024316109423 71.25  450.334346504559 68.625  483.987841945289 70.5  C 517.641337386018 72.375  517.057750759878 110.25  556.352583586626 110.5  C 595.647416413374 110.75  587.216608600672 96.8931589660243  626.382978723404 96.9999999999999  C 668.704944833559 97.115449111187  670.73556231003 111.5  701.860182370821 112  C 727.954733626132 112.419194695459  748.858358662614 86.25  765.665653495441 87  C 766.132522796353 87.45  767.41641337386 134.625  767.41641337386 134.625  Z " fill-rule="nonzero" fill="#49a9ee" stroke="none" transform="matrix(1 0 0 1 181 497 )" />
  </g>
</svg>