<?xml version="1.0" encoding="utf-8"?>
<svg version="1.1" xmlns:xlink="http://www.w3.org/1999/xlink" width="769px" height="115px" xmlns="http://www.w3.org/2000/svg">
  <g transform="matrix(1 0 0 1 -180 -497 )">
    <path d="M 0 66.7022222222222  C 0 66.7022222222222  25.4944105691057 65.7066666666667  66.1686991869919 65.7066666666667  C 106.842987804878 65.7066666666667  103.534552845528 86.6133333333333  137.008130081301 86.6133333333333  C 170.481707317073 86.6133333333333  158.253278263541 47.940146842616  209.404471544715 48.2844444444443  C 246.381097560976 48.5333333333333  251.766620306837 61.5863145772332  274.016260162602 61.7244444444443  C 314.106707317073 61.9733333333333  310.603658536585 0.248888888888663  350.30487804878 0.497777777777665  C 390.006097560976 0.746666666666667  369.408238141445 64.6640962247513  414.916666666667 68.6933333333333  C 440.216463414634 70.9333333333333  450.530995934959 68.32  484.19918699187 70.1866666666667  C 517.86737804878 72.0533333333333  517.283536585366 109.76  556.595528455284 110.008888888889  C 595.907520325203 110.257777777778  587.473030995497 96.4625227039531  626.656504065041 96.5688888888888  C 668.996951089639 96.6838248929151  671.028455284553 111.004444444444  702.166666666667 111.502222222222  C 733.30487804878 112  746.017503191561 84.0092561983473  765.221544715447 85.12  " stroke-width="2" stroke="#49a9ee" fill="none" transform="matrix(1 0 0 1 181 498 )" />
  </g>
</svg>