<?xml version="1.0" encoding="utf-8"?>
<svg version="1.1" xmlns:xlink="http://www.w3.org/1999/xlink" width="6px" height="6px" xmlns="http://www.w3.org/2000/svg">
  <g transform="matrix(1 0 0 1 -477 -452 )">
    <path d="M 480 453  C 481.12 453  482 453.88  482 455  C 482 456.12  481.12 457  480 457  C 478.88 457  478 456.12  478 455  C 478 453.88  478.88 453  480 453  Z " fill-rule="nonzero" fill="#ffffff" stroke="none" />
    <path d="M 480 453  C 481.12 453  482 453.88  482 455  C 482 456.12  481.12 457  480 457  C 478.88 457  478 456.12  478 455  C 478 453.88  478.88 453  480 453  Z " stroke-width="2" stroke="#2db7f5" fill="none" />
  </g>
</svg>