<?xml version="1.0" encoding="utf-8"?>
<svg version="1.1" xmlns:xlink="http://www.w3.org/1999/xlink" width="127px" height="63px" xmlns="http://www.w3.org/2000/svg">
  <defs>
    <mask fill="white" id="clip134">
      <path d="M 0 52.0535714285715  L 0 2.94642857142852  C 0 1.29642857142865  2.30999999999999 0  5.25 0  L 113.75 0  C 116.69 0  119 1.29642857142865  119 2.94642857142852  L 119 52.0535714285715  C 119 53.7035714285715  116.69 55  113.75 55  L 5.25 55  C 2.30999999999999 55  0 53.7035714285715  0 52.0535714285715  Z " fill-rule="evenodd" />
    </mask>
    <filter x="491px" y="427px" width="127px" height="63px" filterUnits="userSpaceOnUse" id="filter135">
      <feOffset dx="0" dy="0" in="SourceAlpha" result="shadowOffsetInner" />
      <feGaussianBlur stdDeviation="2" in="shadowOffsetInner" result="shadowGaussian" />
      <feComposite in2="shadowGaussian" operator="atop" in="SourceAlpha" result="shadowComposite" />
      <feColorMatrix type="matrix" values="0 0 0 0 0  0 0 0 0 0  0 0 0 0 0  0 0 0 0.149019607843137 0  " in="shadowComposite" />
    </filter>
    <g id="widget136">
      <path d="M 0 52.0535714285715  L 0 2.94642857142852  C 0 1.29642857142865  2.30999999999999 0  5.25 0  L 113.75 0  C 116.69 0  119 1.29642857142865  119 2.94642857142852  L 119 52.0535714285715  C 119 53.7035714285715  116.69 55  113.75 55  L 5.25 55  C 2.30999999999999 55  0 53.7035714285715  0 52.0535714285715  Z " fill-rule="nonzero" fill="#ffffff" stroke="none" transform="matrix(1 0 0 1 495 431 )" />
      <path d="M 0 52.0535714285715  L 0 2.94642857142852  C 0 1.29642857142865  2.30999999999999 0  5.25 0  L 113.75 0  C 116.69 0  119 1.29642857142865  119 2.94642857142852  L 119 52.0535714285715  C 119 53.7035714285715  116.69 55  113.75 55  L 5.25 55  C 2.30999999999999 55  0 53.7035714285715  0 52.0535714285715  Z " stroke-width="2" stroke="#ebebeb" fill="none" transform="matrix(1 0 0 1 495 431 )" mask="url(#clip134)" />
    </g>
  </defs>
  <g transform="matrix(1 0 0 1 -491 -427 )">
    <use xlink:href="#widget136" filter="url(#filter135)" />
    <use xlink:href="#widget136" />
  </g>
</svg>