<?xml version="1.0" encoding="utf-8"?>
<svg version="1.1" xmlns:xlink="http://www.w3.org/1999/xlink" width="12px" height="12px" viewBox="978 1527  12 12" xmlns="http://www.w3.org/2000/svg">
  <path d="M 984 1527  C 987.36 1527  990 1529.64  990 1533  C 990 1536.36  987.36 1539  984 1539  C 980.64 1539  978 1536.36  978 1533  C 978 1529.64  980.64 1527  984 1527  Z " fill-rule="nonzero" fill="#ffffff" stroke="none" />
  <path d="M 984 1527.5  C 987.08 1527.5  989.5 1529.92  989.5 1533  C 989.5 1536.08  987.08 1538.5  984 1538.5  C 980.92 1538.5  978.5 1536.08  978.5 1533  C 978.5 1529.92  980.92 1527.5  984 1527.5  Z " stroke-width="1" stroke="#797979" fill="none" />
  <path d="M 984 1536  C 982.32 1536  981 1534.68  981 1533  C 981 1531.32  982.32 1530  984 1530  C 985.68 1530  987 1531.32  987 1533  C 987 1534.68  985.68 1536  984 1536  " fill-rule="nonzero" fill="#797979" stroke="none" />
</svg>