<?xml version="1.0" encoding="utf-8"?>
<svg version="1.1" xmlns:xlink="http://www.w3.org/1999/xlink" width="12px" height="12px" viewBox="980 2081  12 12" xmlns="http://www.w3.org/2000/svg">
  <path d="M 986 2081  C 989.36 2081  992 2083.64  992 2087  C 992 2090.36  989.36 2093  986 2093  C 982.64 2093  980 2090.36  980 2087  C 980 2083.64  982.64 2081  986 2081  Z " fill-rule="nonzero" fill="#ffffff" stroke="none" />
  <path d="M 986 2081.5  C 989.08 2081.5  991.5 2083.92  991.5 2087  C 991.5 2090.08  989.08 2092.5  986 2092.5  C 982.92 2092.5  980.5 2090.08  980.5 2087  C 980.5 2083.92  982.92 2081.5  986 2081.5  Z " stroke-width="1" stroke="#797979" fill="none" />
  <path d="M 986 2090  C 984.32 2090  983 2088.68  983 2087  C 983 2085.32  984.32 2084  986 2084  C 987.68 2084  989 2085.32  989 2087  C 989 2088.68  987.68 2090  986 2090  " fill-rule="nonzero" fill="#797979" stroke="none" />
</svg>