<?xml version="1.0" encoding="utf-8"?>
<svg version="1.1" xmlns:xlink="http://www.w3.org/1999/xlink" width="12px" height="12px" viewBox="980 2104  12 12" xmlns="http://www.w3.org/2000/svg">
  <path d="M 986 2104  C 989.36 2104  992 2106.64  992 2110  C 992 2113.36  989.36 2116  986 2116  C 982.64 2116  980 2113.36  980 2110  C 980 2106.64  982.64 2104  986 2104  Z " fill-rule="nonzero" fill="#f0f0f0" stroke="none" />
  <path d="M 986 2104.5  C 989.08 2104.5  991.5 2106.92  991.5 2110  C 991.5 2113.08  989.08 2115.5  986 2115.5  C 982.92 2115.5  980.5 2113.08  980.5 2110  C 980.5 2106.92  982.92 2104.5  986 2104.5  Z " stroke-width="1" stroke="#797979" fill="none" />
  <path d="M 986 2113  C 984.32 2113  983 2111.68  983 2110  C 983 2108.32  984.32 2107  986 2107  C 987.68 2107  989 2108.32  989 2110  C 989 2111.68  987.68 2113  986 2113  " fill-rule="nonzero" fill="#797979" stroke="none" />
</svg>