<?xml version="1.0" encoding="utf-8"?>
<svg version="1.1" xmlns:xlink="http://www.w3.org/1999/xlink" width="10px" height="8px" xmlns="http://www.w3.org/2000/svg">
  <g transform="matrix(1 0 0 1 -748 -344 )">
    <path d="M 1.71794871794873 0.844444444444434  L 2.53846153846159 0.311111111111131  L 5.41025641025639 0.844444444444434  L 7.15384615384621 1.91111111111112  L 8.38461538461537 2.71111111111111  L 9.61538461538462 3.24444444444445  L 9.88939570057456 4.06452917674172  L 7.97435897435898 5.37777777777778  L 7.97435897435898 7.33333333333333  L 6.23076923076925 7.33333333333333  L 3.87179487179485 7.33333333333333  L 3.46153846153846 7.95555555555556  L 2.53846153846159 7.95555555555556  L 1.30769230769226 6.97777777777776  L 0.282051282051288 5.91111111111112  L 0.794871794871772 5.02222222222224  L 1.71794871794873 4.06452917674172  C 1.71794871794873 4.06452917674172  2.1282051282052 3.24444444444445  2.1282051282052 2.35555555555557  C 2.1282051282052 1.4666666666667  1.71794871794873 0.844444444444434  1.71794871794873 0.844444444444434  Z " fill-rule="nonzero" fill="#169bd5" stroke="none" transform="matrix(1 0 0 1 748 344 )" />
  </g>
</svg>