<?xml version="1.0" encoding="utf-8"?>
<svg version="1.1" xmlns:xlink="http://www.w3.org/1999/xlink" width="82px" height="77px" xmlns="http://www.w3.org/2000/svg">
  <g transform="matrix(1 0 0 1 -530 -380 )">
    <path d="M 11.2585110362888 7.13999999999999  C 12.5990802905427 5.35127916373818  10.8674214444527 2.93999999999999  10.8674214444527 2.93999999999999  L 12.6691943127962 1.96000000000001  L 14.2117758784425 0  L 14.2117758784425 6.57999999999998  L 16.7109004739336 8.24373576309795  C 16.7109004739336 8.24373576309795  16.5810524651234 10.8482842391368  17.7990521327014 11.3307517084283  C 18.6659483803111 11.674141981723  20.1206316317427 10.36  20.1206316317427 10.36  L 21.2189573459716 8.66469248291573  L 22.2972928306261 7.13999999999999  L 22.2972928306261 5.15671981776769  L 23.1282051282051 5.15671981776769  L 24.3279620853081 8.24373576309795  L 24.7943127962085 11.3307517084283  L 28.6805687203791 13.8564920273348  L 30.7597340930674 11.8920273348519  L 31.6341232227488 14.98  L 34.8985781990521 21.84  L 36.1421800947867 22.96  L 36.763981042654 26.46  C 36.763981042654 26.46  36.9500802510245 28.532122547043  38.0075829383886 28.7  C 38.8016359854715 28.8260550962658  39.7929724596392 27.6077448747153  39.7929724596392 27.6077448747153  L 39.7929724596392 30.94  L 42.1291547958215 30.94  L 43.7592417061611 29.26  L 46.1785375118708 27.0464692482916  C 46.1785375118708 27.0464692482916  48.1899428376435 28.123368942355  50.1327014218009 27.6077448747153  C 51.8530741367758 27.1511438413262  52.7753554502369 25.48  52.7753554502369 25.48  L 52.7753554502369 22.96  L 51.5848587953748 20.86  L 51.5848587953748 18.1842729512135  C 51.5848587953748 18.1842729512135  54.3198816648004 17.2395307793701  56.3507109004739 14.98  C 57.8738906020178 13.2852876343842  58.2161137440758 11.3307517084283  58.2161137440758 11.3307517084283  L 57.2834123222749 8.66469248291573  L 60.3513770180437 10.36  L 60.3513770180437 7.13999999999999  L 62.2578199052133 5.85831435079726  L 64.2450142450142 5.85831435079726  L 65.335232668566 8.24373576309795  L 65.335232668566 11.3307517084283  C 65.335232668566 11.3307517084283  65.9615576750586 13.0692001897248  67.2041785375119 13.2952164009111  C 68.7108633566156 13.5692623344338  70.3190883190883 11.8920273348519  70.3190883190883 11.8920273348519  L 73.7454890788224 11.3307517084283  L 73.7454890788224 14.2774487471526  L 72.8110161443495 15.5403189066059  L 70.3190883190883 16.9435079726651  L 67.854028436019 16.38  L 63.345971563981 16.38  L 59.3042654028436 16.9435079726651  L 57.2834123222749 19.18  L 57.2834123222749 21.28  L 58.8379146919431 24.5207289293849  L 62.2578199052133 26.46  L 63.345971563981 24.5207289293849  L 65.8024691358024 24.5207289293849  L 66.7369420702754 27.6077448747153  L 64.7122507122508 32.6592255125285  L 64.7122507122508 35.42  L 68.2943969610636 38.1316628701595  L 67.2041785375119 39.9  L 66.7369420702754 42.98  L 66.7369420702754 45.22  L 67.2041785375119 47.04  L 69.7194312796208 47.04  L 71.4293838862559 46.2  L 72.3620853080569 47.04  L 72.3620853080569 49.0765375854214  L 72.8110161443495 50.7603644646925  L 77.1718898385565 50.7603644646925  L 81.5716999050333 49.9184510250569  L 82 53.2861047835991  L 80.4425451092118 54.8296127562642  L 77.9506172839506 55.9521640091116  L 77.1718898385565 56.3731207289294  L 76.0816714150047 55.5312072892938  L 73.7454890788224 54.8296127562642  L 65.8024691358024 61.1439635535307  L 62.8796208530806 60.48  L 60.3513770180437 62.6874715261959  L 54.6407582938389 61.1439635535307  L 50.9099526066351 64.96  L 46.1785375118708 61.1439635535307  L 42.1291547958215 63.3890660592255  L 38.6293838862559 63.3890660592255  L 37.3857819905213 68.04  L 39.0957345971564 73.78  L 39.5620853080569 77  L 34.4322274881517 75.88  L 33.9658767772512 73.2113895216401  L 31.6341232227488 70.7  L 27.4279942279942 73.2113895216401  L 25.5622846289513 73.2113895216401  L 22.2972928306261 71.3872437357631  C 22.2972928306261 71.3872437357631  22.153892267345 68.9251091745285  20.1206316317427 67.34  C 17.5095794070956 65.3044504182143  13.1242206353317 65.66  13.1242206353317 65.66  C 13.1242206353317 65.66  14.3162017680536 63.5761579347001  14.6789786345342 62.6874715261959  C 16.0782608338164 61.0504176157935  18.8768252323808 57.7763097949886  18.8768252323808 57.7763097949886  L 14.2117758784425 57.3553530751709  L 10.8674214444527 55.291588483513  L 12.1913658358103 50.7603644646925  L 10.1701804368471 49.0765375854214  L 11.7364928909953 47.04  L 10.1701804368471 45.78  L 7.52709183820293 47.04  L 5.67393364928911 47.04  L 2.56492890995262 47.6  L 0 48.5854214123007  L 1.01042654028437 46.2  L 0 45.22  L 0 41.86  L 3.03127962085309 38.64  L 6.43876123876124 32.6592255125285  C 6.43876123876124 32.6592255125285  8.60386798269893 34.238451025057  10.1701804368471 32.6592255125285  C 11.7364928909953 31.08  12.1913658358103 26.04  12.1913658358103 26.04  L 12.6691943127962 17.64  L 10.8674214444527 13.2952164009111  L 9.40473933649291 14.2774487471526  L 7.52709183820293 13.8564920273348  L 7.06066443844223 8.66469248291573  C 7.06066443844223 8.66469248291573  10.0831139888918 8.70833164932591  11.2585110362888 7.13999999999999  Z " fill-rule="nonzero" fill="#169bd5" stroke="none" transform="matrix(1 0 0 1 530 380 )" />
  </g>
</svg>