<?xml version="1.0" encoding="utf-8"?>
<svg version="1.1" xmlns:xlink="http://www.w3.org/1999/xlink" width="208px" height="158px" xmlns="http://www.w3.org/2000/svg">
  <g transform="matrix(1 0 0 1 -539 -141 )">
    <path d="M 1.17735849056604 112.487610619469  L 0.196226415094384 108.945427728614  C 0.196226415094384 108.945427728614  6.51471698113213 111.648672566372  15.462641509434 111.229203539823  C 24.4105660377359 110.809734513274  30.8075471698114 110.809734513274  30.8075471698114 110.809734513274  C 30.8075471698114 110.809734513274  39.0098113207548 115.563716814159  44.6611320754717 118.220353982301  C 50.3124528301887 120.876991150442  56.9056603773585 118.919469026549  56.9056603773585 118.919469026549  L 58.6324528301887 121.296460176991  L 63.1849056603774 120.597345132743  C 63.1849056603774 120.597345132743  68.6792452830189 115.703539823009  75.9003773584906 113.606194690265  C 83.1215094339623 111.508849557522  95.1698113207548 113.139820143104  95.1698113207548 113.139820143104  L 99.7615094339623 112.487610619469  L 99.7615094339623 111.229203539823  L 102.940377358491 109.877581120944  L 105.609056603774 106.475221238938  L 107.649811320755 103.818584070796  C 107.649811320755 103.818584070796  108.591698113208 102.420353982301  109.062641509434 101.721238938053  C 109.952201257862 101.441592920354  111.731320754717 100.882300884956  111.731320754717 100.882300884956  C 111.731320754717 100.882300884956  115.394213836478 100.323008849558  115.838993710692 98.7849557522124  C 116.283773584906 97.2469026548672  115.341886792453 94.4504424778761  115.341886792453 94.4504424778761  C 115.341886792453 94.4504424778761  114.750733556096 95.2210426092573  114.086037735849 94.8699115044248  C 112.808712606416 94.1951538630094  112.516226415094 91.653982300885  112.516226415094 91.653982300885  L 114.713962264151 86.0610619469026  L 118.324528301887 85.5017699115044  L 121.150188679245 87.1796460176992  L 125.074716981132 87.7389380530974  L 127.429433962264 88.158407079646  L 133.080754716981 86.0610619469026  L 135.278490566038 82.0061946902655  L 139.830943396226 80.6079646017699  C 139.830943396226 80.6079646017699  144.697358490566 79.7690265486726  146.110188679245 78.0911504424779  C 147.523018867925 76.4132743362832  148.464905660377 70.4008849557522  148.464905660377 70.4008849557522  L 151.290566037736 69.841592920354  L 161.180377358491 65  L 171.698113207547 65  C 171.698113207547 65  174.209811320755 63.6893805309735  173.660377358491 61.8716814159292  C 173.110943396226 60.053982300885  171.227169811321 58.9353982300885  171.227169811321 58.9353982300885  L 165.575849056604 55.7194690265487  L 161.965283018868 51.9442477876106  L 154.587169811321 52.783185840708  L 152.54641509434 55.7194690265487  L 144.697358490566 54.3212389380531  L 140.432704402516 56.7448377581121  L 140.432704402516 52.783185840708  L 143.284528301887 40.0592920353982  L 142.787421383648 36.0044247787611  L 148.464905660377 36.5637168141593  L 152.54641509434 39.5  L 161.180377358491 31.3902654867257  L 161.965283018868 28.7336283185841  L 160.524825460775 27.6560570526062  L 161.965283018868 25.5176991150443  L 163.194968553459 17.9672566371681  L 167.302641509434 10.8362831858407  L 166.072955974843 8.31946902654867  L 166.674716981132 6.08230088495575  L 164.476981132075 5.24336283185841  L 162.436226415094 5.24336283185841  L 163.718238993711 3.56548672566372  L 164.476981132075 1.88761061946903  L 166.072955974843 0.582595870206496  L 169.99748427673 0.116519174041305  L 171.227169811321 0.582595870206496  L 169.18641509434 3.14601769911505  L 169.99748427673 7.9  L 173.267924528302 9.29823008849558  L 173.267924528302 8.31946902654867  L 175.465660377358 8.73893805309735  L 177.061635220126 7.9  L 177.50641509434 6.64159292035399  L 180.646037735849 7.06106194690266  L 180.646037735849 11.3955752212389  C 180.646037735849 11.3955752212389  183.262389937107 14.1920353982301  184.570566037736 15.5902654867257  C 185.669433962264 16.1029498525074  186.454339622642 17.2681415929204  187.867169811321 17.1283185840708  C 189.28 16.9884955752212  191.320754716981 14.6115044247788  192.402429968398 14.0522123893805  C 193.484105219814 13.4929203539823  195.906771726837 13.6327433628319  195.906771726837 13.6327433628319  C 195.906771726837 13.6327433628319  197.6 11.3955752212389  197.6 11.3955752212389  C 197.6 11.3955752212389  199.32679245283 10.2769911504425  199.32679245283 10.2769911504425  L 201.05358490566 11.3955752212389  L 202.701886792453 14.0522123893805  L 204.010062893082 17.1283185840708  L 203.225157232704 19.7849557522124  L 204.010062893082 21.5560471976401  L 203.225157232704 24.8185840707965  L 203.225157232704 26.7761061946903  C 203.225157232704 26.7761061946903  204.937753945058 28.2446113196838  204.821132075472 29.9920353982301  C 204.675580960141 32.1729258649208  202.309433962264 33.7672566371681  202.309433962264 33.7672566371681  L 201.838490566038 36.5637168141593  L 202.701886792453 39.0339233038348  L 201.838490566038 42.4362831858407  L 199.823899371069 41.4575221238938  L 198.070943396226 41.4575221238938  L 195.906771726837 43.8345132743363  L 194.14641509434 48.1690265486726  L 191.320754716981 49.287610619469  L 189.358490566038 52.3171091445428  L 191.320754716981 55.7194690265487  L 192.91556429466 57.2281337675  L 192.91556429466 58.2362831858407  L 195.114465408805 59.3082595870207  L 195.906771726837 61.8716814159292  L 196.344150943396 65.087610619469  L 193.518490566038 67.9306784660767  L 190.064905660377 65.9265486725664  L 187.867169811321 65.9265486725664  L 185.82641509434 67.9306784660767  L 187.396226415094 69.841592920354  L 191.320754716981 71.6592920353982  L 191.320754716981 77.5318584070797  L 192.402429968398 79.9376871154523  L 193.518490566038 82.0061946902655  L 195.906771726837 84.0103244837758  L 200.425660377359 80.6079646017699  L 201.838490566038 83.4044247787611  L 204.010062893082 84.383185840708  L 204.010062893082 87.1796460176992  L 203.225157232704 90.3023598820059  L 205.318238993711 92.3997050147493  L 207.215094339623 92.2132743362832  L 207.960754716981 92.912389380531  L 207.215094339623 94.4504424778761  L 205.318238993711 95.8952802359882  L 202.701886792453 96.4079646017699  L 199.823899371069 95.8952802359882  L 197.6 98.2256637168142  L 196.972075471698 100.323008849558  L 193.518490566038 99.3442477876106  L 191.320754716981 101.721238938053  L 187.562904835811 104.818569090979  L 184.570566037736 107.873451327434  L 182.555974842767 108.945427728614  L 180.646037735849 106.475221238938  L 177.061635220126 105.216814159292  L 178.631725208575 113.139820143104  L 176.015094339623 115.936578171091  L 169.99748427673 114.724778761062  L 168.558490566038 113.139820143104  L 169.18641509434 110.809734513274  L 169.18641509434 108.945427728614  L 168.558490566038 107.034513274336  C 168.558490566038 107.034513274336  167.302641509434 107.873451327434  166.674716981132 108.292920353982  C 166.151446540881 108.013274336283  165.104905660377 107.453982300885  165.104905660377 107.453982300885  L 165.104905660377 105.216814159292  L 163.718238993711 103.818584070796  L 161.180377358491 103.399115044248  L 159.45358490566 105.216814159292  L 156.627924528302 105.216814159292  L 155.372075471698 107.034513274336  L 155.372075471698 110.250442477876  L 154.587169811321 112.06814159292  L 152.54641509434 112.487610619469  L 150.662641509434 113.139820143104  L 146.738113207547 112.487610619469  L 144.697358490566 116.542477876106  L 142.185660377359 115.936578171091  L 141.557735849057 113.606194690265  L 141.08679245283 111.229203539823  L 139.124528301887 109.877581120944  L 137.005283018868 113.606194690265  L 134.676729559748 117.241592920354  L 133.080754716981 120.038053097345  L 133.630188679245 123.253982300885  L 135.278490566038 124.93185840708  L 133.630188679245 127.821533923304  L 130.569056603774 128.520648967552  L 127.429433962264 127.821533923304  C 127.429433962264 127.821533923304  126.17358490566 128.287610619469  125.545660377359 128.520648967552  C 125.179371069182 129.142084562439  125.535556825107 129.745498525074  124.44679245283 130.384955752212  C 123.160136559295 131.14063937937  122.308601050361 129.883361209765  121.150188679245 130.804424778761  C 119.852169367475 131.836491018501  120.208301886792 134.020353982301  120.208301886792 134.020353982301  L 117.068679245283 136.676991150442  L 114.713962264151 136.676991150442  L 113.144150943396 138.914159292035  L 109.847547169811 138.494690265487  L 109.062641509434 140.871681415929  L 106.236981132076 139.473451327434  L 102.940377358491 139.473451327434  L 104.039245283019 142.269911504425  L 97.76 145.206194690266  L 94.4633962264151 148.561946902655  L 94.4633962264151 151.777876106195  L 92.8935849056604 156.252212389381  L 91.6377358490566 157.883480825959  L 88.8905660377359 157.883480825959  L 82.3366037735849 155.133628318584  C 82.3366037735849 155.133628318584  80.8714465408805 153.921828908555  80.1388679245283 153.31592920354  C 79.2493081761007 153.31592920354  77.4701886792453 153.31592920354  77.4701886792453 153.31592920354  L 76.685283018868 151.777876106195  L 76.685283018868 148.981415929204  L 78.2550943396227 146.464601769912  L 78.8830188679245 145.206194690266  L 78.2550943396227 142.93823332723  L 75.9003773584906 141.430973451327  L 72.7607547169812 140.871681415929  L 69.1501886792453 143.66814159292  L 68.051320754717 146.045132743363  L 66.7954716981132 148.561946902655  L 66.7954716981132 152.756637168142  L 65.2256603773585 155.133628318584  L 65.2256603773585 156.252212389381  L 64.7808763601377 156.859751454714  L 61.7720754716982 156.252212389381  L 60.2022641509434 157.883480825959  L 54.2631446540881 158  L 51.5421383647799 158  L 48.8996226415094 156.252212389381  C 48.8996226415094 156.252212389381  48.337106918239 154.294690265487  48.337106918239 153.31592920354  C 48.5246121593292 152.24395280236  48.8996226415094 150.1  48.8996226415094 150.1  L 52.3532075471698 148.561946902655  L 54.3547169811321 147.583185840708  L 56.1207547169811 144.600294985251  L 55.6498113207547 142.269911504425  L 54.3547169811321 139.473451327434  L 50.3124528301887 138.914159292035  L 45.8292293207518 142.93823332723  L 44.0332075471698 143.66814159292  L 39.3237735849057 142.269911504425  L 36.4981132075472 142.269911504425  L 35.3992452830189 144.600294985251  L 36.9690566037736 146.045132743363  L 36.4981132075472 147.02389380531  L 35.3992452830189 147.583185840708  L 32.7305660377359 146.464601769912  L 31.6316981132076 145.206194690266  L 28.7144654088051 144.600294985251  C 28.7144654088051 144.600294985251  27.8641509433962 140.871681415929  27.8641509433962 140.871681415929  L 26.2943396226415 140.032743362832  L 24.2535849056604 138.494690265487  C 24.2535849056604 138.494690265487  22.7260544360904 137.30243867402  22.2128301886793 136.676991150442  C 21.5325786163522 136.350737463127  20.1720754716982 135.698230088496  20.1720754716982 135.698230088496  L 18.2883018867925 134.020353982301  C 18.2883018867925 134.020353982301  22.0984314270559 128.782935834361  22.2128301886793 128.986725663717  C 22.3698113207547 129.266371681416  21.5849056603774 126.609734513274  21.5849056603774 126.609734513274  L 21.1270440251573 125.491150442478  L 17.1894339622642 126.609734513274  C 17.1894339622642 126.609734513274  13.7382674900991 126.900765952059  12.0126842540165 127.046281671452  C 11.2265693768915 127.180411969758  9.65433962264152 127.448672566372  9.65433962264152 127.448672566372  L 8.55547169811323 128.986725663717  L 6.99874213836479 128.520648967552  L 6.99874213836479 125.910619469027  L 4.63094339622644 124.232743362832  L 4.16000000000001 121.71592920354  L 2.43320754716983 119.618584070796  L 4.16000000000001 115.936578171091  L 1.17735849056604 112.487610619469  Z " fill-rule="nonzero" fill="#6b6b6b" stroke="none" transform="matrix(1 0 0 1 539 141 )" />
  </g>
</svg>