<?xml version="1.0" encoding="utf-8"?>
<svg version="1.1" xmlns:xlink="http://www.w3.org/1999/xlink" width="16px" height="15px" xmlns="http://www.w3.org/2000/svg">
  <g transform="matrix(1 0 0 1 -688 -259 )">
    <path d="M 3.20557491289201 5.08305647840531  L 4.43205574912898 4.38538205980068  L 5.99303135888503 3.88704318936878  L 5.99303135888503 3.18936877076415  L 8.00000000000004 3.18936877076415  C 8.00000000000004 3.18936877076415  8.37166085946579 2.92358803986714  8.55749128919866 2.79069767441862  C 8.37166085946579 2.45847176079736  8.00000000000004 1.79401993355485  8.00000000000004 1.79401993355485  C 8.00000000000004 1.79401993355485  7.40534262485487 1.06312292358806  7.10801393728226 0.697674418604671  C 7.40534262485487 0.498338870431899  8.00000000000004 0.0996677740863759  8.00000000000004 0.0996677740863759  L 9.78397212543553 0.0996677740863759  L 13.2404181184669 2.3920265780731  L 15.8048780487805 2.3920265780731  L 15.8048780487805 2.79069767441862  C 15.8048780487805 2.79069767441862  15.061556329849 3.52159468438539  14.6898954703833 3.88704318936878  C 14.5040650406504 4.28571428571428  14.3182346109176 4.68438538205981  14.1324041811847 5.08305647840531  C 14.5040650406504 5.74750830564784  15.2473867595819 7.07641196013289  15.2473867595819 7.07641196013289  C 15.2473867595819 7.07641196013289  15.2473867595819 7.74086378737542  15.2473867595819 8.07308970099669  C 14.8757259001162 8.27242524916946  14.1324041811847 8.67109634551498  14.1324041811847 8.67109634551498  L 12.01393728223 8.67109634551498  L 12.4599303135889 10.6644518272426  C 12.4599303135889 10.6644518272426  12.1626016260163 11.8604651162791  12.01393728223 12.4584717607973  C 11.6794425087108 12.8571428571428  11.0104529616725 13.6544850498339  11.0104529616725 13.6544850498339  L 9.78397212543553 14.9501661129568  L 8.55749128919866 14.9501661129568  L 7.10801393728226 14.0531561461794  C 7.10801393728226 14.0531561461794  6.55052264808364 13.156146179402  5.21254355400703 12.9568106312292  C 3.87456445993041 12.7574750830565  2.31358885017431 12.9568106312292  2.31358885017431 12.9568106312292  L 0.641114982578473 12.4584717607973  L 0.0836236933798607 11.5614617940199  L 0.641114982578473 10.6644518272426  L 2.31358885017431 9.26910299003324  L 3.9860627177701 7.47508305647841  L 3.20557491289201 6.47840531561463  L 3.20557491289201 5.08305647840531  Z " fill-rule="nonzero" fill="#169bd5" stroke="none" transform="matrix(1 0 0 1 688 259 )" />
  </g>
</svg>