<?xml version="1.0" encoding="utf-8"?>
<svg version="1.1" xmlns:xlink="http://www.w3.org/1999/xlink" width="16px" height="33px" xmlns="http://www.w3.org/2000/svg">
  <g transform="matrix(1 0 0 1 -751 -408 )">
    <path d="M 5.95772357723577 5.53473684210528  C 7.13712737127367 4.36140350877197  9.49593495934956 2.01473684210529  9.49593495934956 2.01473684210529  L 12.2016260162602 0.162105263157905  L 15.8439024390244 1.55157894736843  L 14.5951219512195 3.12631578947368  L 15.1154471544716 5.53473684210528  L 15.8439024390244 7.94315789473684  L 14.5951219512195 10.6294736842105  L 13.6585365853659 18.7810526315789  L 10.4325203252033 26.2842105263158  L 9.49593495934956 32.861052631579  L 7.41463414634146 31.2863157894737  L 5.95772357723577 28.9705263157895  L 3.04390243902437 27.1178947368421  L 0.33821138211378 25.821052631579  C 0.33821138211378 25.821052631579  0.962601626016272 21.4982456140351  1.27479674796747 19.3368421052631  C 0.962601626016272 17.700350877193  0.33821138211378 14.4273684210526  0.33821138211378 14.4273684210526  C 0.33821138211378 14.4273684210526  2.14200542005417 12.2042105263158  3.04390243902437 11.0926315789474  C 4.01517615176147 9.24000000000001  4.98644986449867 7.38736842105267  5.95772357723577 5.53473684210528  Z " fill-rule="nonzero" fill="#6b6b6b" stroke="none" transform="matrix(1 0 0 1 751 408 )" />
  </g>
</svg>