<?xml version="1.0" encoding="utf-8"?>
<svg version="1.1" xmlns:xlink="http://www.w3.org/1999/xlink" width="78px" height="48px" xmlns="http://www.w3.org/2000/svg">
  <g transform="matrix(1 0 0 1 -726 -203 )">
    <path d="M 3.52763819095477 5.34117647058823  L 5.82713567839196 6.18823529411765  L 10.1125628140703 2.89411764705883  L 10.1125628140703 1.57647058823529  L 10.7396984924623 1.57647058823529  L 14.6070351758794 0.164705882352942  L 15.1296482412061 2.32941176470589  L 17.3246231155779 5.34117647058823  L 19.6241206030151 7.22352941176471  L 22.3417085427136 7.6  L 25.686432160804 6.56470588235295  L 28.2994974874372 6.18823529411765  L 29.5537688442211 6.56470588235295  L 30.9125628140703 6.18823529411765  L 31.6442211055276 5.34117647058823  L 32.6894472361809 6.56470588235295  L 33.6301507537688 8.07058823529412  L 34.6753768844221 9.20000000000001  L 36.3477386934673 9.20000000000001  L 37.2884422110553 7.6  L 40.8422110552764 7.6  L 41.7829145728644 8.82352941176471  L 41.7829145728644 10.6117647058824  L 43.1417085427135 11.0823529411765  L 44.9185929648242 11.0823529411765  L 46.172864321608 11.0823529411765  L 48.4723618090453 12.4941176470588  L 48.8904522613065 13.6235294117647  L 48.4723618090453 14.9411764705882  L 51.8170854271357 15.9764705882353  L 53.2804020100503 13.6235294117647  L 52.862311557789 12.4941176470588  C 52.862311557789 12.4941176470588  52.9712047426033 11.1069205925472  53.2804020100503 11.0823529411765  C 53.6100894538468 11.0561572174969  54.0120603015075 12.4941176470588  54.0120603015075 12.4941176470588  L 54.5346733668342 14  L 54.9527638190955 14.9411764705882  L 55.9979899497488 15.5058823529412  L 57.7748743718592 16.4470588235294  L 61.5376884422111 19.6470588235294  L 64.7778894472362 18.2352941176471  L 63.5236180904522 15.5058823529412  L 66.0321608040201 13.6235294117647  L 68.3316582914573 14.4705882352941  L 70.4221105527639 14  L 76.1708542713568 16.4470588235294  L 77.9477386934674 16.4470588235294  L 77.9477386934674 20.6823529411765  L 74.7075376884423 22.2823529411765  L 77.3206030150754 25.0117647058824  L 76.1708542713568 26.3294117647059  L 71.4673366834171 21.8117647058824  L 68.8542713567839 22.2823529411765  L 68.3316582914573 27.7411764705882  L 66.4502512562815 29.3627368935077  L 65.3005025125629 30.9411764705882  L 63.0325673248157 33.0941624412246  L 61.5376884422111 33.9299324148708  L 59.6562814070352 33.9299324148708  L 55.9979899497488 33.9299324148708  L 58.1929648241206 35.8352941176471  L 61.5376884422111 38.4705882352941  L 61.1195979899498 40.2588235294118  L 54.0120603015075 39.8823529411765  L 50.6673366834171 38.4705882352941  L 48.4723618090453 38.4705882352941  L 43.1417085427135 47.8823529411765  L 43.1417085427135 44.6823529411765  L 41.7829145728644 43.6470588235294  L 40.8422110552764 43.2344325377358  L 39.2922597731831 43.2344325377358  L 38.5427135678392 42.3294117647059  L 38.5427135678392 36.5882352941177  L 37.2884422110553 35.8352941176471  L 35.038054375194 33.9299324148708  L 33.6301507537688 31.6941176470588  L 33.6301507537688 28.7764705882353  L 32.2713567839196 27.7411764705882  L 30.9125628140703 27.7411764705882  L 30.1052949064204 29.3627368935077  L 29.5537688442211 30.4705882352941  L 27.6723618090453 29.7176470588235  L 27.0452261306533 28.1176470588235  L 25.2683417085427 28.1176470588235  L 24.0140703517588 28.7764705882353  L 23.115173171786 27.6658811339036  L 21.4010050251257 26.8941176470588  L 20.2512562814071 28.1176470588235  L 18.2653266331659 28.7764705882353  L 17.3246231155779 27.7411764705882  L 17.7427135678392 25.7647058823529  L 18.2653266331659 22.9411764705882  L 17.3246231155779 20.6823529411765  L 15.5477386934674 19.6470588235294  L 14.1889447236181 17.3882352941177  L 12.7256281407035 15.9764705882353  L 10.7396984924623 18.6117647058824  L 8.44020100502511 19.6470588235294  L 7.29045226130654 18.6117647058824  L 5.82713567839196 16.4470588235294  L 5.09547738693467 14  L 5.09547738693467 11.4588235294118  L 4.67738693467339 10.0470588235294  L 4.67738693467339 8.07058823529412  L 2.69145728643216 7.22352941176471  L 0.0783919597989682 5.34117647058823  L 1.12361809045226 4.49411764705883  L 2.69145728643216 4.11764705882353  L 3.52763819095477 5.34117647058823  Z " fill-rule="nonzero" fill="#6b6b6b" stroke="none" transform="matrix(1 0 0 1 726 203 )" />
  </g>
</svg>