<?xml version="1.0" encoding="utf-8"?>
<svg version="1.1" xmlns:xlink="http://www.w3.org/1999/xlink" width="102px" height="82px" xmlns="http://www.w3.org/2000/svg">
  <g transform="matrix(1 0 0 1 -532 -331 )">
    <path d="M 3.11450381679389 2.68620689655173  L 3.90505359877486 1.13893015447421  L 11.5236641221374 1.98272884283247  L 12.3022900763359 3.5405872193437  L 12.3022900763359 5.24006908462864  C 12.3022900763359 5.24006908462864  12.345893129771 6.83758203799654  13.3923664122137 7.78929188255614  C 14.1772213740458 8.50307426597579  15.2610687022901 8.49740932642486  15.2610687022901 8.49740932642486  L 18.2198473282443 12.7461139896373  L 19.3099236641221 14.0942606616182  L 21.0229007633588 14.6637257388553  L 22.5801526717557 13.4542314335061  L 23.2030534351145 14.6637257388553  L 26.006106870229 15.5785837651123  L 27.4076335877863 17.7029360967185  L 29.8992366412214 18.552677029361  L 29.8992366412214 15.5785837651123  L 34.4152671755725 15.5785837651123  C 34.4152671755725 15.5785837651123  35.1419847328244 14.5890350294496  35.5053435114504 14.0942606616182  C 35.2977099236642 13.4088392896683  34.8824427480916 12.0379965457686  34.8824427480916 12.0379965457686  L 34.8824427480916 10.9050086355786  L 35.9725190839695 10.9050086355786  L 37.5297709923664 11.3298791018998  L 38.2695252679939 9.34715025906733  L 39.7099236641221 9.34715025906733  L 40.4700160921401 8.62263617236521  L 41.7343511450382 9.34715025906733  L 45.1603053435115 9.34715025906733  L 46.2503816793893 8.49740932642486  L 45.1603053435115 4.10708117443868  L 49.5160796324655 0  C 49.5160796324655 0  50.123537197883 3.55661564114376  52.9465648854962 5.24006908462864  C 56.0528085866389 7.092412466855  60.2656488549618 6.08981001727116  60.2656488549618 6.08981001727116  L 60.7328244274809 8.62263617236521  L 62.6015267175572 10.3385146804836  L 64.1587786259542 10.9050086355786  L 63.3801526717557 14.6637257388553  L 65.4045801526718 16.0034542314335  L 67.5847328244275 16.0034542314335  L 70.6992366412214 17.7029360967185  C 70.6992366412214 17.7029360967185  72.3603053435115 16.5699481865285  73.1908396946565 16.0034542314335  C 73.8383035432473 15.3670563748284  75.1332312404288 14.0942606616182  75.1332312404288 14.0942606616182  C 75.1332312404288 14.0942606616182  76.2260898027892 15.3670563748284  76.7725190839695 16.0034542314335  C 77.4992366412214 16.286701208981  78.9526717557252 16.853195164076  78.9526717557252 16.853195164076  L 83.4687022900763 16.4283246977547  L 85.4931297709924 15.153713298791  L 86.1160305343512 16.853195164076  L 87.206106870229 17.7029360967185  L 88.1404580152672 19.4024179620034  L 90.0091603053435 19.4024179620034  L 91.4106870229007 18.552677029361  L 93.2584239273221 19.5755383343939  L 94.9923664122137 20.9278415884634  L 98.418320610687 20.5354058721934  L 102 20.9278415884634  L 99.1969465648855 22.6597582037996  L 99.1969465648855 26.6252158894646  L 96.2381679389313 29.5993091537133  L 94.9923664122137 32.006908462867  L 91.4106870229007 34.6977547495682  L 90.6320610687023 36.6804835924007  L 88.1404580152672 37.9550949913644  L 85.0259541984733 41.9205526770294  L 75.6824427480916 41.4956822107081  L 73.8137404580153 42.9119170984456  C 73.8137404580153 42.9119170984456  73.1685782435299 45.6202073531816  74.2809160305343 48.4352331606217  C 75.2197833546872 50.8112521884119  77.2396946564885 52.2590673575129  77.2396946564885 52.2590673575129  L 78.9526717557252 52.825561312608  L 80.0427480916031 55.5164075993091  C 80.0427480916031 55.5164075993091  78.091323822209 54.5217807241579  76.3053435114504 55.0915371329879  C 74.3164993696422 55.7260103626943  73.1908396946565 57.3575129533679  73.1908396946565 57.3575129533679  L 76.7725190839695 60.4732297063903  C 76.7725190839695 60.4732297063903  79.4160603205406 60.9422336147675  80.4441041347626 62.314335060449  C 81.0971357455747 63.18591816311  80.4441041347626 64.0648211891735  80.4441041347626 64.0648211891735  C 80.4441041347626 64.0648211891735  76.9035222052068 65.1638062570705  75.1332312404288 65.713298791019  C 74.2262254071052 65.5716753022453  72.412213740458 65.2884283246978  72.412213740458 65.2884283246978  L 72.412213740458 63.5889464594128  L 71.5776159855473 61.7857787710831  L 69.9206106870229 61.3598620722973  L 66.9618320610687 62.314335060449  C 66.9618320610687 62.314335060449  64.9436335877863 63.5649882508713  64.1587786259542 63.0224525043178  C 63.0244459076735 62.2383381416896  64.1587786259542 59.1986183074266  64.1587786259542 59.1986183074266  L 61.5114503816794 55.5164075993091  L 58.3969465648855 56.0829015544041  L 56.5282442748092 57.7823834196891  L 56.5282442748092 59.7651122625215  L 52.1679389312977 57.7823834196891  L 53.8809160305343 61.7857787710831  L 53.8809160305343 63.5889464594128  L 52.1679389312977 66.1381692573402  L 48.1190839694657 68.4041450777202  L 47.1847328244275 70.3868739205527  L 48.1190839694657 72.6528497409327  L 48.8977099236641 74.2107081174439  L 48.8977099236641 76.1934369602763  L 47.1847328244275 77.7512953367876  C 47.1847328244275 77.7512953367876  45.0663183230027 76.8510296445748  43.2916030534351 77.3264248704663  C 39.8578331296724 78.2462331667934  38.775572519084 82  38.775572519084 82  L 38.2695252679939 78.1827586206897  L 37.4159670548303 77.1275712838487  L 35.5053435114504 78.6068965517241  L 34.4152671755725 73.6586206896552  L 30.9893129770992 67.7206896551724  L 29.8992366412214 64.6103448275862  C 29.8992366412214 64.6103448275862  29.6383466653184 61.6576455562932  28.3419847328244 61.3598620722973  C 27.3564574336499 61.1334794970572  26.006106870229 63.0224525043178  26.006106870229 63.0224525043178  L 23.2030534351145 61.3598620722973  L 22.5801526717557 58.3896551724138  L 21.8015267175573 55.5164075993091  L 18.2198473282443 55.5164075993091  L 18.2198473282443 57.7823834196891  L 17.1297709923664 59.1986183074266  L 16.0396946564886 60.9344827586207  L 14.8392036753445 61.3598620722973  L 14.8392036753445 58.3896551724138  L 12.7694656488549 56.9758620689655  C 12.7694656488549 56.9758620689655  12.9251908396947 55.8448275862069  13.3923664122137 53.3  C 13.8595419847328 50.7551724137931  12.7694656488549 50.3310344827586  12.7694656488549 50.3310344827586  L 14.3267175572519 45.948275862069  L 12.7694656488549 41.9205526770294  L 13.3923664122137 37.9550949913644  L 11.0564885496183 32.3758620689655  L 10.5893129770993 26.0137931034483  L 6.44006259392544 21.5664534636214  L 5.91755725190841 18.552677029361  L 0 14.6637257388553  L 1.0835589189701 12.438673407604  L 3.11450381679389 12.0379965457686  L 2.54772710146128 9.43205256700185  L 3.90505359877486 9.34715025906733  L 3.90505359877486 6.64482758620688  L 3.11450381679389 5.24006908462864  L 3.11450381679389 2.68620689655173  Z " fill-rule="nonzero" fill="#169bd5" stroke="none" transform="matrix(1 0 0 1 532 331 )" />
  </g>
</svg>