<?xml version="1.0" encoding="utf-8"?>
<svg version="1.1" xmlns:xlink="http://www.w3.org/1999/xlink" width="11px" height="16px" xmlns="http://www.w3.org/2000/svg">
  <g transform="matrix(1 0 0 1 -701 -267 )">
    <path d="M 1.32758620689664 5.99365079365078  C 1.32758620689664 5.31640211640212  1.32758620689664 3.96190476190479  1.32758620689664 3.96190476190479  C 1.32758620689664 3.96190476190479  3.35057471264374 3.01375661375664  4.14532019704438 2.53968253968257  C 4.86781609195408 1.79470899470901  4.78803581940617 0.217043238744332  5.87931034482759 0.304761904761916  C 6.83642141861392 0.381696264235547  7.39655172413797 2.53968253968257  7.39655172413797 2.53968253968257  L 7.39655172413797 4.57142857142858  L 9.13054187192118 7.11111111111113  L 10.9554061726552 9.54193513658645  L 10.9554061726552 10.5650793650794  L 8.48029556650252 10.5650793650794  L 7.39655172413797 12.5968253968254  L 6.96305418719213 13.815873015873  L 7.83004926108382 14.9333333333333  L 5.87931034482759 15.9492063492064  L 4.14532019704438 15.9492063492064  L 1.7610837438424 14.9333333333333  L 0.894088669950794 13.815873015873  L 0.0270935960591503 12.1904761904762  L 0.0270935960591503 9.54193513658645  L 0.460591133004908 7.61904761904765  C 0.460591133004908 7.61904761904765  1.03858784893274 6.53544973544975  1.32758620689664 5.99365079365078  Z " fill-rule="nonzero" fill="#6b6b6b" stroke="none" transform="matrix(1 0 0 1 701 267 )" />
  </g>
</svg>