<?xml version="1.0" encoding="utf-8"?>
<svg version="1.1" xmlns:xlink="http://www.w3.org/1999/xlink" width="27px" height="39px" xmlns="http://www.w3.org/2000/svg">
  <g transform="matrix(1 0 0 1 -594 -283 )">
    <path d="M 8.4782608695652 15.1894736842105  L 11.2956521739131 15.6456140350877  L 12.7565217391304 14.7333333333333  L 12.7565217391304 13.1824561403509  L 13.904347826087 11.3578947368421  L 13.904347826087 7.16140350877193  L 15.6782608695652 2.50877192982455  L 19.0173913043478 0.0456140350877362  C 19.0173913043478 0.0456140350877362  20.4086956521739 0.653801169590658  21.104347826087 0.957894736842109  C 21.8 1.4748538011696  23.1913043478261 2.50877192982455  23.1913043478261 2.50877192982455  L 23.1913043478261 3.7859649122807  C 23.1913043478261 3.7859649122807  22.0782608695652 6.03625730994152  21.5217391304348 7.16140350877193  C 21.3826086956522 8.25614035087719  21.104347826087 10.4456140350877  21.104347826087 10.4456140350877  L 22.6695652173913 12.2701754385965  L 25.4869565217391 12.2701754385965  L 26.8434782608696 13.6385964912281  L 25.904347826087 20.2982456140351  L 23.8173913043479 20.2982456140351  L 21.9391304347826 19.021052631579  L 19.6434782608696 21.7578947368421  L 20.3739130434782 29.6947368421053  L 21.9391304347826 29.6947368421053  L 23.1913043478261 30.1508771929825  L 23.1913043478261 31.7929824561403  L 23.1913043478261 33.7087719298246  L 21.9391304347826 34.6210526315789  L 20.3739130434782 34.0736842105263  L 18.0782608695653 35.259649122807  L 18.4956521739131 38.3614035087719  L 18.0782608695653 38.8175438596491  L 16.8260869565217 37.7228070175439  L 15.6782608695652 37.2666666666667  L 14.7391304347826 35.259649122807  L 11.2956521739131 34.0736842105263  C 11.2956521739131 34.0736842105263  11.0173913043479 32.8573099415205  10.8782608695652 32.2491228070175  C 11.0173913043479 31.5497076023392  11.2956521739131 30.1508771929825  11.2956521739131 30.1508771929825  L 10.8782608695652 27.4140350877193  L 9 25.9543859649123  L 9 21.7578947368421  L 7.53913043478265 20.6631578947369  L 6.3913043478261 18.4736842105263  L 1.90434782608696 18.0175438596491  L 0.339130434782612 17.2877192982456  L 6.8086956521739 16.6491228070175  L 8.4782608695652 15.1894736842105  Z " fill-rule="nonzero" fill="#169bd5" stroke="none" transform="matrix(1 0 0 1 594 283 )" />
  </g>
</svg>