<?xml version="1.0" encoding="utf-8"?>
<svg version="1.1" xmlns:xlink="http://www.w3.org/1999/xlink" width="45px" height="49px" xmlns="http://www.w3.org/2000/svg">
  <g transform="matrix(1 0 0 1 -690 -322 )">
    <path d="M 7.29310344827589 11.06  L 7.29310344827589 9.75333333333334  L 6.05172413793104 6.20666666666667  L 8.43103448275858 6.67333333333335  L 11.2241379310345 9.75333333333334  L 12.3620689655172 9.2866666666667  L 14.7413793103448 4.80666666666667  L 12.9827586206897 2.93999999999999  L 11.6379310344828 0.419999999999976  L 12.3620689655172 0.046666666666664  L 14.7413793103448 2.93999999999999  L 17.0172413793103 4.80666666666667  L 25.1896551724138 7.32666666666665  L 26.948275862069 9.2866666666667  L 28.2931034482759 13.02  L 29.0172413793104 13.9533333333333  C 29.0172413793104 13.9533333333333  30.7740451568485 15.7856683229378  33.1551724137931 15.9133333333333  C 34.8819959125897 16.0059176079798  36.0360005688909 15.1725706754749  37.0862068965517 14.6066666666667  C 37.9231316345987 14.1556895092671  38.8448275862069 13.9533333333333  38.8448275862069 13.9533333333333  L 38.0172413793103 16.94  L 34.3965517241379 16.94  L 34.3965517241379 19.18  L 31.6034482758621 23.38  L 32.3275862068966 25.34  L 37.0862068965517 27.9533333333333  L 37.6034482758621 29.26  L 39.9827586206896 30.2866666666667  L 41.7413793103448 29.26  C 41.7413793103448 29.26  42.9827586206896 29.9444444444444  43.603448275862 30.2866666666667  C 43.9827586206896 30.8777777777778  44.7413793103448 32.06  44.7413793103448 32.06  L 42.1551724137931 35.2333333333333  L 43.603448275862 37.7533333333333  L 42.7758620689656 38.78  L 37.6034482758621 37.2866666666667  L 39.9827586206896 41.3933333333334  L 38.8448275862069 43.9133333333333  L 37.0862068965517 46.06  L 33.9636714935322 47.988482724322  L 32.3275862068966 46.9  L 29.0172413793104 46.9  L 25.8103448275862 44.4733333333334  L 23.5344827586207 46.06  L 21.7758620689655 47.9266666666667  L 19.8103448275862 48.86  L 23.0172413793104 43.26  L 15.3620689655172 47.3666666666667  L 14.7413793103448 46.9  L 15.3620689655172 46.06  L 11.2241379310345 37.7533333333333  L 12.9827586206897 35.2333333333333  L 11.6379310344828 33.74  C 11.6379310344828 33.74  9.31279172452633 33.4911111111111  8.15022206954811 33.3666666666667  C 7.86451586245735 32.9311111111111  7.29310344827589 32.06  7.29310344827589 32.06  L 8.15022206954811 29.9133333333333  L 8.43103448275858 29.26  L 9.4655172413793 28.8866666666667  C 9.4655172413793 28.8866666666667  10.3620689655172 28.2644444444445  10.8103448275862 27.9533333333333  C 10.8076691782816 27.2688888888889  10.8023178796723 25.9  10.8023178796723 25.9  L 10.8103448275862 23.38  L 10.8023178796723 23.3740174032649  L 8.43103448275858 21.6066666666667  C 8.43103448275858 21.6066666666667  8.24382620728493 21.5802755000547  8.15022206954811 21.5670799167488  C 7.14037793142287 21.4247199444992  5.12068965517239 21.14  5.12068965517239 21.14  L 0.362068965517265 16.38  C 0.362068965517265 16.38  3.46551724137929 17.3133333333334  4.08620689655171 16.38  C 4.70689655172414 15.4466666666667  4.08620689655171 12.0866666666667  4.08620689655171 12.0866666666667  L 7.29310344827589 11.06  Z " fill-rule="nonzero" fill="#169bd5" stroke="none" transform="matrix(1 0 0 1 690 322 )" />
  </g>
</svg>