<?xml version="1.0" encoding="utf-8"?>
<svg version="1.1" xmlns:xlink="http://www.w3.org/1999/xlink" width="64px" height="34px" xmlns="http://www.w3.org/2000/svg">
  <g transform="matrix(1 0 0 1 -689 -287 )">
    <path d="M 7.30864197530869 10.2801664355062  L 11.8236331569665 6.03606102635229  L 14.984126984127 3.48959778085993  L 17.4673721340388 2.9237170596394  L 18.5961554485651 1.7919333584831  L 21.305114638448 0.0943134535367706  C 21.305114638448 0.0943134535367706  21.9823203486778 0.911696717521959  22.3209232037927 1.32038834951456  C 22.4338194668436 2.32639852057327  22.6596119929454 4.33841886269072  22.6596119929454 4.33841886269072  L 25.0299823633158 0.565880721220549  L 30.7865961199295 0.565880721220549  L 31.5767195767196 6.41331484049933  C 31.5767195767196 6.41331484049933  31.8024691358025 7.92233009708742  33.4955908289242 8.29958391123442  C 35.1887125220459 8.67683772538143  39.9294532627866 7.92233009708738  39.9294532627866 7.92233009708738  L 39.9294532627866 5.47018030513179  L 46.363315696649 0.565880721220549  C 46.363315696649 0.565880721220549  49.5990593768371 1.38326398520574  51.2169312169312 1.79195561719834  C 53.3991769547325 2.01375174427319  57.7636684303352 2.45734399842288  57.7636684303352 2.45734399842288  L 58.6666666666667 1.32038834951456  L 59.3451728506274 2.45734399842288  L 63.6331569664903 1.79195561719834  L 62.278659611993 4.33841886269072  L 63.0687830687831 6.03606102635229  L 62.278659611993 6.41331484049933  L 59.5696649029983 5.47018030513179  L 50.652557319224 10.9403606102635  L 48.620811287478 10.9403606102635  L 48.620811287478 11.9778085991678  L 49.5238095238095 11.9778085991678  L 49.5238095238095 13.0152565880721  L 47.4920634920635 13.9583911234397  L 47.4920634920635 15.5617198335645  C 47.4920634920635 15.5617198335645  44.331569664903 14.9015256588073  43.5414462081129 15.5617198335645  C 42.7513227513229 16.2219140083218  44.2186948853617 19.1456310679612  44.2186948853617 19.1456310679612  C 44.2186948853617 19.1456310679612  43.3533215755438 20.8118354137772  42.7513227513227 21.50346740638  C 41.9235743680188 21.6606564956079  39.9294532627866 21.9750346740638  39.9294532627866 21.9750346740638  L 38.4620811287479 26.9736477115118  L 36.8818342151676 26.5963938973648  L 34.6243386243387 27.6338418862691  L 33.4955908289242 28.7656033287101  L 32.4797178130512 30.5575589459085  L 31.5767195767196 31.2177531206658  L 30.7865961199295 32.8210818307906  C 30.7865961199295 32.8210818307906  29.608660747842 31.4166646061457  27.8518518518519 31.2177531206658  C 26.367385095844 31.0496770776442  25.0299823633158 31.9722607489598  25.0299823633158 31.9722607489598  L 22.3209232037927 32.8210818307906  L 19.047619047619 32.8210818307906  C 19.047619047619 32.8210818307906  17.9172507779057 32.7319906117177  17.4673721340388 31.9722607489598  C 16.9894843096249 31.1652305504713  17.4673721340388 29.991678224688  17.4673721340388 29.991678224688  L 14.0811287477954 28.7656033287101  C 14.0811287477954 28.7656033287101  12.8771310993533 30.9033749422099  12.2751322751323 31.9722607489598  C 11.4850088183421 32.5695792880259  9.90476190476194 33.7642163661581  9.90476190476194 33.7642163661581  L 4.71252204585539 32.8210818307906  L 3.24514991181656 31.9722607489598  L 2.34215167548506 30.5575589459085  L 0.197530864197531 29.4257975034674  L 0.197530864197531 28.2940360610264  L 5.27689594356262 25.8418862690707  L 4.71252204585539 23.2954230235784  L 3.24514991181656 20.6546463245492  L 3.24514991181656 18.6740638002774  L 2.34215167548506 16.3162274618585  L 7.30864197530869 10.2801664355062  Z " fill-rule="nonzero" fill="#6b6b6b" stroke="none" transform="matrix(1 0 0 1 689 287 )" />
  </g>
</svg>