<?xml version="1.0" encoding="utf-8"?>
<svg version="1.1" xmlns:xlink="http://www.w3.org/1999/xlink" width="32px" height="62px" xmlns="http://www.w3.org/2000/svg">
  <g transform="matrix(1 0 0 1 -649 -267 )">
    <path d="M 3.54285714285716 21.9176755447942  C 4.00705223579826 20.1244708271552  2.85714285714289 18.4148506860371  2.85714285714289 18.4148506860371  L 5.94285714285716 15.7126715092817  L 5.48571428571431 13.7110573042777  L 6.97142857142858 12.5100887812752  L 9.48571428571431 11.909604519774  C 9.48571428571431 11.909604519774  10.8571428571429 10.7086359967716  11.5428571428572 10.1081517352704  C 12.3047619047619 9.44094700026906  13.8285714285714 8.10653753026637  13.8285714285714 8.10653753026637  L 13.8285714285714 6.20500403551253  L 14.2857142857143 6.20500403551253  L 16.6857142857143 5.70460048426152  L 17.9428098924001 5.11676986350583  L 17.9428098924001 4.10330912025828  L 19.6981426373965 3.45169165779857  L 23.2 4.10330912025828  L 25.8285714285714 3.10621450853009  L 28.4571428571429 0.200161420500418  L 29.6000000000001 0.700564971751432  L 30.2857142857143 2.40193704600485  L 29.7933228010522 3.10621450853009  L 26.4 4.10330912025828  L 26.8571428571429 7.30589184826474  L 31.8857142857144 8.60694108151739  L 32 11.5092816787732  L 30.9714285714286 14.5117029862793  C 30.9714285714286 14.5117029862793  29.2952380952382 14.5117029862793  28.4571428571429 14.5117029862793  C 28.0761904761906 14.9120258272801  27.3142857142858 15.7126715092817  27.3142857142858 15.7126715092817  L 26.8571428571429 17.8143664245359  C 26.8571428571429 17.8143664245359  26.1714285714286 19.9494215765402  25.8285714285714 21.0169491525424  C 26.1714285714286 22.0511164917945  26.8571428571429 24.1194511702986  26.8571428571429 24.1194511702986  L 30.9714285714286 26.0209846650525  L 31.8857142857144 28.3228410008071  L 26.8571428571429 38.1307506053269  L 26.4 39.6319612590799  L 29.0285714285715 42.2340597255852  L 29.0285714285715 43.7352703793382  L 28 45.7368845843422  L 28.4571428571429 47.138014527845  L 28 48.2389023405973  L 28.4571428571429 49.6400322841001  L 26.8571428571429 50.6408393866021  L 26.8571428571429 53.1428571428571  L 22.4 54.54398708636  L 16.6857142857143 54.1436642453592  L 13.8285714285714 56.045197740113  L 4.45714285714294 59.4479418886199  L 2.28571428571431 61.8498789346247  L 0.228571428571468 61.3494753833737  L 0 57.4463276836158  L 2.28571428571431 48.2389023405973  C 2.28571428571431 48.2389023405973  0.668772049765266 45.893023110302  0.228571428571468 42.7344632768362  C -0.290076742062138 39.0130208240266  0.8 35.9289749798225  0.8 35.9289749798225  L 3.54285714285716 34.0274414850686  C 3.54285714285716 34.0274414850686  3.08571428571431 30.9582997040624  2.85714285714289 29.8240516545601  C 2.17142857142858 28.9233252623083  0.8 27.9225181598063  0.8 27.9225181598063  L 0.228571428571468 26.0209846650525  C 0.228571428571468 26.0209846650525  2.88638614683277 24.4536499765907  3.54285714285716 21.9176755447942  Z " fill-rule="nonzero" fill="#169bd5" stroke="none" transform="matrix(1 0 0 1 649 267 )" />
  </g>
</svg>