<?xml version="1.0" encoding="utf-8"?>
<svg version="1.1" xmlns:xlink="http://www.w3.org/1999/xlink" width="75px" height="54px" xmlns="http://www.w3.org/2000/svg">
  <g transform="matrix(1 0 0 1 -649 -412 )">
    <path d="M 17.6984126984127 18.1208053691275  L 19.7089947089947 16.1879194630872  L 21.931216931217 12.7087248322147  L 21.2962962962963 10.8724832214765  L 21.2962962962963 8.6496644295302  L 22.989417989418 7.103355704698  C 22.989417989418 7.103355704698  22.2285894983042 4.85289541560908  22.989417989418 4.39731543624161  C 23.6708994708995 3.98924801645014  25.4232804232804 5.36375838926177  25.4232804232804 5.36375838926177  C 25.4232804232804 5.36375838926177  28.5978835978836 7.97315436241611  30.7142857142857 6.71677852348992  C 32.8306878306878 5.46040268456374  29.2328042328042 2.36778523489932  29.2328042328042 1.4013422818792  C 29.2328042328042 0.434899328859077  30.7142857142857 0.048322147651004  30.7142857142857 0.048322147651004  L 32.1957671957672 0.048322147651004  L 37.8042328042328 2.07785234899325  L 39.7089947089947 0.82147651006715  L 41.7195767195767 3.52751677852345  L 46.5873015873016 1.4013422818792  L 46.5873015873016 2.46442953020137  L 43.3068783068783 6.13691275167787  L 42.2486772486773 7.68322147651004  L 44.0476190476191 10.4859060402685  L 46.5873015873016 9.13288590604024  L 48.0687830687831 8.6496644295302  L 54.4179894179894 6.71677852348992  L 57.1693121693121 8.26308724832217  L 59.4973544973545 7.68322147651004  L 59.4973544973545 5.7503355704698  L 65.952380952381 5.7503355704698  L 68.1746031746032 7.68322147651004  L 69.6560846560847 12.0322147651006  L 73.1481481481482 15.0281879194631  L 74.8412698412698 15.5114093959732  L 74.902551389651 16.9513066798944  L 72.4074074074074 16.9513066798944  L 71.5608465608466 18.1208053691275  C 71.5608465608466 18.1208053691275  69.7266313932981 18.6362416107383  68.8095238095238 18.8939597315436  C 68.4215167548501 19.7315436241611  67.6455026455027 21.406711409396  67.6455026455027 21.406711409396  L 62.2486772486773 25.2724832214765  L 61.2962962962963 25.2724832214765  C 61.2962962962963 25.2724832214765  59.6920912435055 23.8208225433521  58.6507936507937 24.2093959731544  C 57.2136423589326 24.7456872414065  57.1693121693121 27.5919463087248  57.1693121693121 27.5919463087248  C 57.1693121693121 27.5919463087248  55.3350970017637 26.0456375838926  54.4179894179894 25.2724832214765  C 53.7830687830688 25.4013422818792  52.5132275132275 25.6590604026846  52.5132275132275 25.6590604026846  L 50.9259259259259 25.6590604026846  L 50.9259259259259 27.5919463087248  L 50.0793650793651 27.5919463087248  L 48.915343915344 26.5288590604027  L 46.1640211640212 27.5919463087248  L 47.4624363347388 28.8272694896098  L 46.5873015873016 30.2979865771812  L 42.2486772486773 31.0711409395973  L 38.5449735449735 25.2724832214765  L 36.1111111111111 25.2724832214765  L 36.7460317460318 33.6805369127517  C 36.7460317460318 33.6805369127517  36.3227513227513 34.1959731543624  36.1111111111111 34.4536912751678  C 35.7231040564374 34.4536912751678  34.9470899470899 34.4536912751678  34.9470899470899 34.4536912751678  L 32.1957671957672 31.9409395973154  L 31.4956919650332 35.5366290317579  L 28.4877336545399 36.4804296718512  L 27.5396825396825 38.1261744966443  L 21.931216931217 38.1261744966443  L 21.931216931217 39.8657718120805  L 21.3856061305177 39.5454360211733  L 20.4497354497354 38.1261744966443  L 18.968253968254 38.1261744966443  L 17.6984126984127 39.8657718120805  L 9.55026455026453 43.6348993288591  L 4.89417989417991 43.6348993288591  L 5.31746031746031 46.6308724832215  L 3.41269841269842 46.6308724832215  L 3.41269841269842 48.8536912751678  L 7.75132275132274 52.1395973154362  L 6.37566137566135 53.9758389261745  L 2.67195767195763 53.9758389261745  L 2.67195767195763 53.1060402684564  L 0.978835978835991 51.1731543624161  L 0.909906655247836 49.915231215965  L 0.238095238095247 47.8872483221476  L 0.238095238095247 44.1181208053691  L 0.909906655247836 41.0255033557047  L 2.24867724867723 38.1261744966443  L 5.73715489892848 38.1261744966443  L 5.73715489892848 35.6264002095038  L 8.70370370370373 35.6264002095038  L 9.12698412698413 33.1973154362416  L 8.70370370370373 31.0711409395973  L 15.1587301587301 27.0120805369127  L 15.1587301587301 23.7261744966443  L 17.6984126984127 18.1208053691275  Z " fill-rule="nonzero" fill="#6b6b6b" stroke="none" transform="matrix(1 0 0 1 649 412 )" />
  </g>
</svg>