<?xml version="1.0" encoding="utf-8"?>
<svg version="1.1" xmlns:xlink="http://www.w3.org/1999/xlink" width="74px" height="50px" xmlns="http://www.w3.org/2000/svg">
  <g transform="matrix(1 0 0 1 -597 -406 )">
    <path d="M 0 18.7812187812188  L 0.452253628724249 17.7822177822178  L 5.31398013750956 16.4835164835165  L 8.36669213139805 16.8831168831169  L 10.288770053476 17.7822177822178  L 15.0374331550802 17.7822177822178  L 16.620320855615 15.984015984016  C 16.620320855615 15.984015984016  17.9770817417876 15.5844155844156  18.6554621848739 15.3846153846154  C 19.1830914183855 14.9184149184149  20.2383498854087 13.986013986014  20.2383498854087 13.986013986014  L 22.951871657754 13.0869130869131  L 24.987012987013 10.6893106893107  L 26.5930626222691 11.1212005623006  L 28.2658517952636 13.0869130869131  L 30.7532467532467 12.5874125874126  C 30.7532467532467 12.5874125874126  32.1100076394194 13.1868131868132  32.7883880825057 13.4865134865135  C 33.6552075375605 13.4865134865135  35.38884644767 13.4865134865135  35.38884644767 13.4865134865135  C 35.38884644767 13.4865134865135  35.1967062812577 11.8089416471957  36.4064171122995 11.1212005623006  C 37.938632352199 10.2501102617584  40.5897631779985 11.1212005623006  40.5897631779985 11.1212005623006  C 40.5897631779985 11.1212005623006  39.6453075443818 9.83717334331249  40.1375095492743 8.89110889110894  C 40.5655639047213 8.06834302409911  42.0595874713522 7.89210789210793  42.0595874713522 7.89210789210793  L 44.0947288006112 6.5934065934066  L 46.8082505729565 6.5934065934066  L 47.5996944232239 5.29470529470528  L 48.3911382734912 4.49550449550451  L 50.4262796027502 6.19380619380622  C 50.4262796027502 6.19380619380622  52.0160560790985 4.21981731985311  53.9312452253629 3.996003996004  C 55.109943418445 3.85825866629428  55.8533231474408 4.89510489510494  55.8533231474408 4.89510489510494  C 55.8533231474408 4.89510489510494  57.3608352431882 4.29570429570431  58.1145912910619 3.996003996004  C 58.6045327221798 3.33000333000333  59.5844155844156 1.99800199800198  59.5844155844156 1.99800199800198  L 60.0485174356193 1.82225805375347  L 60.0485174356193 1.19880119880124  C 60.0485174356193 1.19880119880124  61.5104429139866 1.82225805375347  62.4110007639419 1.82225805375347  C 62.9386299974535 1.48925772075313  64.3330786860199 0.199800199800234  64.3330786860199 0.199800199800234  L 65.0114591291062 1.19880119880124  L 65.0114591291062 3.996003996004  L 66.3682200152788 4.89510489510494  L 65.9159663865547 6.99300699300699  L 64.3330786860199 10.0899100899101  L 63.3155080213905 11.1212005623006  L 62.4110007639419 11.7882117882118  L 61.9587471352178 13.4865134865135  C 61.9587471352178 13.4865134865135  61.9587471352177 14.7852147852149  62.4110007639419 15.3846153846154  C 62.8632543926662 15.984015984016  65.9159663865547 13.0869130869131  65.9159663865547 13.0869130869131  L 66.3682200152788 13.4865134865135  L 66.3682200152788 15.984015984016  C 66.3682200152788 15.984015984016  68.3279857397505 16.5834165834166  69.3078686019863 16.8831168831169  C 70.5892538833715 16.5834165834166  73.1520244461421 15.984015984016  73.1520244461421 15.984015984016  L 73.8304048892285 19.2807192807193  L 72.2475171886937 22.2777222777223  L 70.4385026737968 23.8761238761239  L 67.4988540870894 29.5704295704296  L 67.4988540870894 33.0669330669331  L 61.3934300993125 35.7642357642358  L 60.2627960275019 37.5624375624376  L 61.3934300993125 39.4605394605395  L 60.9411764705883 40.4595404595404  L 58.5668449197861 40.0599400599401  L 58.1145912910619 42.6573426573427  L 54.8357524828113 43.0569430569431  L 52.6875477463713 47.2527472527473  L 51.2177234530176 45.3546453546454  L 46.8082505729565 49.95004995005  L 46.0168067226891 48.5514485514486  L 43.2756465043782 48.2466906827305  L 40.5897631779985 43.8561438561439  L 40.1375095492743 47.2527472527473  L 37.7551947388484 46.8311082195508  L 36.4064171122995 48.2466906827305  L 31.6577540106952 45.3546453546454  L 28.9442322383499 46.6533466533467  L 21.9343009931245 43.0569430569431  C 21.9343009931245 43.0569430569431  20.3147241266622 40.9347564904487  21.0297937356761 39.0609390609391  C 21.4272169386076 38.0195040521551  22.951871657754 37.5624375624376  22.951871657754 37.5624375624376  L 22.4996180290298 34.7652347652348  L 17.8640183346066 34.7652347652348  L 15.4896867838045 33.5664335664336  L 10.288770053476 33.0669330669331  C 10.288770053476 33.0669330669331  10.5961983053255 32.1235602790866  11.3063407181054 31.6683316683317  C 12.2599535322259 31.0570291623024  13.8061489307535 30.7728818849187  15.0374331550802 29.5704295704296  C 17.1856378915203 27.4725274725275  15.0374331550802 23.0769230769231  15.0374331550802 23.0769230769231  L 10.288770053476 24.5754245754246  L 6.55767761650119 24.5754245754246  L 6.55767761650119 20.6793206793207  L 3.50496562261269 19.7802197802198  L 0.904507257448453 20.6793206793207  L 0.452253628724249 20.1798201798202  L 0 18.7812187812188  Z " fill-rule="nonzero" fill="#6b6b6b" stroke="none" transform="matrix(1 0 0 1 597 406 )" />
  </g>
</svg>