<?xml version="1.0" encoding="utf-8"?>
<svg version="1.1" xmlns:xlink="http://www.w3.org/1999/xlink" width="188px" height="129px" xmlns="http://www.w3.org/2000/svg">
  <g transform="matrix(1 0 0 1 -343 -178 )">
    <path d="M 71.0351966873706 33.216621253406  L 68.195689139768 28.9980196256135  L 71.8136645962733 28.1360083583393  L 78.9098958020652 28.9980196256135  L 82.5175983436853 29.7016348773842  L 86.4099378881988 31.283378746594  L 89.2344949493697 29.7016348773842  L 87.5776397515528 24.7806539509537  L 97.6110565217111 14.0680041791696  C 97.6110565217111 14.0680041791696  107.397860468266 21.415497990067  113.195357121416 18.6401055373998  C 117.35719393777 16.6477403528396  116.70182475635 10.9027032388565  117.870647301328 8.79250261198103  C 119.039469846305 6.68230198510558  126.442012631165 4.92380146270938  126.442012631165 4.92380146270938  L 128.779657721121 0.703400208958481  L 133.844555416025 0  L 135.402985475996 5.9789017761471  L 138.519845595937 8.08910240302254  L 140.078275655907 11.9578035522942  L 148.649640985745 15.1231044926074  L 152.545716135671 28.1360083583393  L 148.260033470752 37.6319111792788  L 149.818463530723 43.6108129554259  C 149.818463530723 43.6108129554259  166.961194190398 41.8523124330297  174.753344490251 50.99651514949  C 177.639326082789 54.383256896327  181.181868487629 53.9859660375635  181.181868487629 53.9859660375635  L 182.155887275111 57.6788171345955  L 185.258000939203 59.789017761471  L 188 68.2298202689727  L 187.220784970015 74.2087220451198  L 186.831177455022 76.6706227764745  L 182.7402985476 76.6706227764745  L 180.59745721514 78.4291232988707  L 176.311774550221 77.7257230899122  L 173.974129460266 79.4842236123084  L 170.857269340325 80.5393239257462  L 167.740409220384 83.7046248660593  L 165.79237164542 86.8699258063725  L 163.844334070457 88.6284263287687  L 158.389828860561 88.6284263287687  L 157.221006315583 92.1454273735611  L 157.221006315583 96.0141285228328  L 156.83139880059 98.8277293586667  L 158.389828860561 100.586229881063  L 154.104146195642 101.99303029898  L 150.597678560708 102.696430507938  L 147.87042595576 102.696430507938  L 145.143173350811 103.399830716897  L 142.415920745863 104.103230925855  L 137.351023050959 104.103230925855  L 133.844555416025 105.510031343772  L 132.675732871047 108.675332284085  L 133.454947901033 112.544033433357  L 138.519845595937 116.764434687108  L 139.104256868426 119.402185470702  L 135.402985475996 122.853257090635  L 137.351023050959 126.612037612527  L 135.987396748485 128.370538134923  L 132.675732871047 128.370538134923  L 128.779657721121 126.612037612527  L 124.10436754121 126.612037612527  L 119.818684876291 123.798436776693  L 114.169375908898 122.853257090635  L 112.221338333935 121.688236149817  L 108.714870699001 121.160685993099  L 104.623991791578 122.853257090635  L 97.2214490067185 122.853257090635  L 94.1045888867775 124.501836985651  L 89.2344949493697 126.260337508047  L 82.0267559220061 125.381087246849  L 78.9098958020652 126.612037612527  L 75.4034281671315 126.612037612527  L 72.2865680471905 125.381087246849  L 69.9489229572348 125.381087246849  L 68.195689139768 124.501836985651  L 66.4424553223012 122.215786306536  C 66.4424553223012 122.215786306536  65.078829019827 119.402185470702  62.7411839298712 122.215786306536  C 60.4035388399155 125.02938714237  47.5464908451589 122.853257090635  47.5464908451589 122.853257090635  C 47.5464908451589 122.853257090635  44.0400232102253 120.63313583638  42.6763969077511 120.808985888619  C 41.8759002900201 120.912216056437  41.5075743627732 122.919186515495  39.9491443028027 123.798436776693  C 38.3907142428322 124.677687037891  37.4166954553506 129  37.4166954553506 129  L 30.5985639429797 128.370538134923  L 27.8713113380313 128.018838030444  L 25.5336662480756 125.908637403568  L 24.9492549755867 116.236884530389  L 14.0402445557932 111.840633224399  L 16.9623009182379 109.202882440804  L 9.94936564837062 108.675332284085  L 9.36495437588168 105.510031343772  L 10.9233844358522 100.586229881063  L 5.85848674094806 96.0141285228328  L 4.10525292348125 96.6619255028346  L 0.209177773555007 93.8499190248202  L 5.85848674094806 93.3226678101925  L 8.0013280734075 85.4138995907771  L 7.22211304342225 78.9111346103688  L 4.10525292348125 76.2748785372303  L 1.37800031853288 78.9111346103688  L 0 76.8023453150208  L 0.793589046043944 74.8688752982231  L 1.96241159102182 72.4083696299606  L 0.793589046043944 69.2448623421944  L 4.8844679534665 65.2026030300487  C 4.8844679534665 65.2026030300487  6.56508094790576 63.1391720906766  8.97534686088906 62.917847766662  C 12.0936110870899 62.6315110109352  14.8194595857784 64.8511022202969  14.8194595857784 64.8511022202969  L 17.7415159482231 64.1481006007933  L 17.7415159482231 62.917847766662  L 20.8583760681641 62.5663469569102  L 20.8583760681641 66.6089918256131  L 26.2732919254658 66.0817438692098  L 29.9710144927536 62.5663469569102  L 34.2525879917184 61.3365122615804  L 36.9772256728779 62.0395095367847  L 39.5072463768116 60.2820163487738  L 47.5464908451589 61.3365122615804  L 51.184265010352 58.700272479564  L 58.7743271221532 58.700272479564  C 58.7743271221532 58.700272479564  61.9931043215129 56.3569482288828  63.4451345755694 55.1852861035422  C 64.4582526997048 53.5449591280654  65.7805383022774 50.2643051771117  65.7805383022774 50.2643051771117  L 67.7267080745342 51.8460490463215  L 69.9489229572348 44.1130790190736  L 69.5203866323808 40.4185620996008  L 71.0351966873706 33.216621253406  Z " fill-rule="nonzero" fill="#6b6b6b" stroke="none" transform="matrix(1 0 0 1 343 178 )" />
  </g>
</svg>