<?xml version="1.0" encoding="utf-8"?>
<svg version="1.1" xmlns:xlink="http://www.w3.org/1999/xlink" width="54px" height="38px" xmlns="http://www.w3.org/2000/svg">
  <g transform="matrix(1 0 0 1 -702 -315 )">
    <path d="M 0.229787234042562 5.04342507645261  L 1.4553191489362 2.3474006116208  L 2.83304401811988 2.99816513761469  L 2.83304401811988 3.62432973783783  C 2.83304401811988 3.62432973783783  2.83304401811988 4.94225874033945  2.83304401811988 5.60122324159023  C 3.46316409718629 6.0040774719674  5.02978723404255 6.80978593272174  5.02978723404255 6.80978593272174  L 8.70638297872337 6.80978593272174  L 11.3617021276596 5.97308868501529  C 11.3617021276596 5.97308868501529  11.9744680851063 4.85749235474008  13.8127659574468 5.04342507645261  C 15.6510638297872 5.22935779816514  15.5489361702128 5.60122324159023  15.5489361702128 5.60122324159023  L 17.2851063829787 6.80978593272174  L 18.3063829787234 5.97308868501529  L 19.0212765957447 3.74189602446484  L 20.2468085106383 2.99816513761469  L 21.268085106383 1.13883792048929  L 23.1063829787234 0.302140672782877  L 24.2297872340426 0.302140672782877  L 23.8212765957447 2.3474006116208  L 26.1702127659575 2.99816513761469  L 27.6 3.74189602446484  C 27.6 3.74189602446484  28.2650049854882 5.01542366764446  29.6425531914894 5.60122324159023  C 31.8428603635587 6.5368993931274  34.2382978723404 5.97308868501529  34.2382978723404 5.97308868501529  C 34.2382978723404 5.97308868501529  35.3957446808511 8.45219164118249  35.9744680851064 9.69174311926608  C 36.5531914893618 10.2495412844037  37.7106382978724 11.3651376146789  37.7106382978724 11.3651376146789  L 39.5489361702128 13.9681957186545  L 41.5914893617022 19.0813455657492  L 42 22.0562691131498  L 44.6553191489362 22.4281345565749  L 49.7617021276596 25.217125382263  L 51.4978723404255 25.6819571865443  L 51.9063829787235 27.4483180428135  C 51.9063829787235 27.4483180428135  52.8595744680852 28.5639143730887  53.336170212766 29.1217125382263  C 53.4723404255319 29.7414882772681  53.7446808510638 30.9810397553517  53.7446808510638 30.9810397553517  C 53.7446808510638 30.9810397553517  50.0283635311402 28.1226455454235  47.6170212765957 29.1217125382263  C 47.0533848599738 29.3552383012022  46.3104524550484 29.2881333763212  46.0851063829787 29.8654434250764  C 45.7159626447655 30.8111461282483  46.6978723404256 30.8880733944954  46.0851063829787 32.3755351681957  C 46.0851063829787 32.3755351681957  45.131914893617 33.8320081549439  44.6553191489362 34.6996941896024  C 44.8255319148936 35.1025484199796  45.1659574468085 36.280122324159  45.1659574468085 36.280122324159  C 45.1659574468085 36.280122324159  43.6680851063829 37.1478083588176  42.9191489361702 37.5816513761468  C 41.9659574468085 37.7056065239551  40.0595744680852 37.9535168195719  40.0595744680852 37.9535168195719  C 40.0595744680852 37.9535168195719  36.9276595744681 37.2097859327217  35.3617021276595 36.8379204892966  C 34.8510638297872 37.0858307849133  33.8297872340425 37.5816513761468  33.8297872340425 37.5816513761468  L 31.2765957446808 34.6996941896024  L 29.6425531914894 34.0489296636086  L 28.6212765957446 34.0489296636086  L 27.6 34.6996941896024  L 26.1702127659575 34.6996941896024  L 25.6595744680851 33.0262996941896  L 24.2297872340426 32.3755351681957  L 20.8595744680851 30.2373088685015  L 20.8595744680851 29.4935779816514  L 22.4936170212766 27.4483180428135  L 23.8212765957447 24.2874617737003  L 26.6808510638298 23.9155963302752  L 28.2127659574468 19.0813455657492  L 26.1702127659575 18.4305810397554  L 21.268085106383 21.3125382262997  L 18.3063829787234 20.0110091743119  L 17.6936170212766 19.0813455657492  L 15.5489361702128 13.9681957186545  L 13.8127659574468 12.4807339449542  L 5.64255319148932 10.2495412844037  L 1.4553191489362 5.60122324159023  L 0.229787234042562 5.04342507645261  Z " fill-rule="nonzero" fill="#6b6b6b" stroke="none" transform="matrix(1 0 0 1 702 315 )" />
  </g>
</svg>