<?xml version="1.0" encoding="utf-8"?>
<svg version="1.1" xmlns:xlink="http://www.w3.org/1999/xlink" width="45px" height="54px" xmlns="http://www.w3.org/2000/svg">
  <g transform="matrix(1 0 0 1 -685 -367 )">
    <path d="M 1.19999999999998 10.2155844155844  L 5.47826086956522 7.31688311688312  L 9.54782608695651 7.31688311688312  L 11.4260869565217 5.44675324675324  L 12.8186773990256 4.97012258934862  L 15.8086956521739 4.41818181818183  L 19.1432781695313 3.12918353416134  L 22.2782608695652 3.12918353416134  L 26.4521739130435 0.303896103896107  L 25.5130434782608 3.38961038961038  C 25.5130434782608 3.38961038961038  25.5671267968304 3.92957927475468  26.4144241376886 4.41818181818183  C 27.2617214785469 4.90678436160897  27.1872949001602 4.29726476912007  27.8086956521739 4.04415584415583  C 28.9565217391304 3.57662337662335  30.6260869565218 1.61298701298702  30.6260869565218 1.61298701298702  L 31.0434782608696 0.303896103896107  L 32.391383372901 0.0758515652538179  L 34.9043478260869 1.98701298701297  L 38.8695652173913 2.45454545454545  L 40.9565217391304 3.38961038961038  C 40.9565217391304 3.38961038961038  39.808695652174 5.25974025974022  40.1217391304348 6.10129870129869  C 40.4347826086957 6.94285714285717  44.7130434782609 12.5532467532468  44.7130434782609 12.5532467532468  L 43.6695652173913 13.8623376623377  L 43.6695652173913 15.5454545454546  L 42 16.2935064935065  L 40.1217391304348 18.0701298701299  L 38.4521739130435 18.0701298701299  C 38.4521739130435 18.0701298701299  35.7839454678561 17.373224825262  34.2782608695652 18.4441558441559  C 31.7383328825778 20.2507012987013  32.391383372901 24.5220779220779  32.391383372901 24.5220779220779  L 32.8173913043478 25.0831168831169  L 32.8173913043478 25.8311688311688  L 29.3739130434782 28.2623376623377  C 29.3739130434782 28.2623376623377  28.3443125620781 29.3469730709511  28.4347826086956 30.6  C 28.5297698219953 31.9155905255913  29.7913043478261 32.8441558441558  29.7913043478261 32.8441558441558  L 28.4347826086956 34.9012987012987  L 27.3913043478261 35.7428571428572  L 27.3913043478261 37.7064935064935  L 25.5130434782608 38.2675324675325  L 26.4144241376886 39.0472772971562  L 24.2608695652174 40.6987012987013  L 24.2608695652174 42.1012987012987  L 23.8434782608696 43.5974025974026  L 24.6782608695652 44.7194805194805  L 21.7565217391304 46.6831168831169  L 22.8 49.3012987012987  L 22.2782608695652 50.4233766233766  L 22.8 52.012987012987  L 22.2782608695652 52.6675324675324  L 19.1432781695313 50.4233766233766  L 13.5130434782609 52.6675324675324  L 10.8 52.6675324675324  L 9.54782608695651 53.8831168831169  L 8.71304347826091 52.6675324675324  L 10.8 50.0493506493506  C 10.8 50.0493506493506  13.9304347826087 47.3376623376623  12.1565217391304 46.1220779220779  C 10.3826086956521 44.9064935064935  6.93913043478257 47.6181818181818  6.93913043478257 47.6181818181818  L 5.06086956521741 44.7194805194805  C 5.06086956521741 44.7194805194805  7.05893271572321 42.8991143710644  6.93913043478257 40.6987012987013  C 6.86323887723952 39.3047981610606  5.47826086956522 38.2675324675325  5.47826086956522 38.2675324675325  C 5.47826086956522 38.2675324675325  6.73043478260871 37.7064935064935  6.20869565217392 36.4909090909091  C 5.93535392156962 35.8540583575271  4.78367377572739 35.0265009754072  4.12173913043477 34.2467532467532  C 3.52021061744515 33.5381629122545  3.39130434782607 32.8441558441558  3.39130434782607 32.8441558441558  C 3.39130434782607 32.8441558441558  2.76521739130437 30.412987012987  2.45217391304352 29.1974025974026  C 2.62608695652178 28.2623376623377  2.8 27.3272727272727  2.97391304347827 26.3922077922078  C 2.62608695652174 25.9558441558442  2.27826086956525 25.5194805194805  1.93043478260872 25.0831168831169  C 1.40869565217392 25.3324675324675  0.365217391304372 25.8311688311688  0.365217391304372 25.8311688311688  L 0.365217391304372 23.961038961039  L 5.47826086956522 18.4441558441559  L 3.39130434782607 11.3376623376624  L 1.19999999999998 10.2155844155844  Z " fill-rule="nonzero" fill="#6b6b6b" stroke="none" transform="matrix(1 0 0 1 685 367 )" />
  </g>
</svg>