<?xml version="1.0" encoding="utf-8"?>
<svg version="1.1" xmlns:xlink="http://www.w3.org/1999/xlink" width="51px" height="66px" xmlns="http://www.w3.org/2000/svg">
  <g transform="matrix(1 0 0 1 -673 -244 )">
    <path d="M 0.250272628135211 16.4498480243161  L 3.25354416575796 10.9331306990882  L 6.03435114503821 7.32218844984804  L 6.95137293636144 10.2310030395137  L 6.95137293636144 12.6382978723404  L 10.8173391494002 13.6413373860182  L 13.9318429661941 9.629179331307  L 16.6014176663032 10.9331306990882  L 19.2709923664123 9.12765957446809  L 21.3844056706652 9.12765957446809  L 22.6079607415486 6.62006079027357  L 23.0528898582334 1.60486322188451  L 25.6719104814427 2.44354869103349  L 27.3909487459106 0.100303951367798  L 29.0594329334788 0.100303951367798  L 29.5043620501636 1.60486322188451  L 30.3942202835333 4.21276595744681  L 32.6188658669575 5.61702127659574  L 33.9536532170121 4.71428571428572  L 33.9536532170121 6.62006079027357  L 33.397491821156 9.12765957446809  L 35.7333696837514 11.6352583586626  L 40.8500545256271 12.6382978723404  L 40.293893129771 13.6413373860182  L 40.293893129771 15.145896656535  L 39.1815703380589 16.4498480243161  L 40.8500545256271 18.4559270516717  L 42.1848418756816 18.4559270516717  L 45.5218102508179 19.0577507598784  L 47.1902944383861 20.2613981762918  L 47.6352235550709 21.9665653495441  L 50.9721919302072 22.9696048632219  L 48.8587786259542 24.5744680851064  C 48.8587786259542 24.5744680851064  48.6352454564212 28.8429443471811  45.5218102508179 31.0942249240122  C 42.8518428071543 33.0248402892761  39.1815703380589 32.1975683890578  39.1815703380589 32.1975683890578  C 39.1815703380589 32.1975683890578  36.4378407851691 28.5866261398176  35.0659760087242 26.7811550151976  C 34.9176663031626 25.7446808510638  34.6210468920393 23.6717325227964  34.6210468920393 23.6717325227964  L 33.397491821156 21.9665653495441  C 33.397491821156 21.9665653495441  31.9885496183207 22.3009118541034  31.284078516903 22.468085106383  C 30.9874591057798 22.8693009118541  30.3942202835333 23.6717325227964  30.3942202835333 23.6717325227964  L 29.5043620501636 20.7629179331307  L 31.284078516903 19.0577507598784  L 30.3942202835333 17.7537993920973  L 27.3909487459106 17.3525835866262  C 27.3909487459106 17.3525835866262  24.3876772082878 15.5471124620061  23.0528898582334 15.5471124620061  C 21.7181025081789 15.5471124620061  21.0507088331516 15.4468085106383  20.717011995638 16.4498480243161  C 20.3833151581243 17.4528875379939  21.3844056706652 18.4559270516717  21.3844056706652 18.4559270516717  L 20.2720828789531 18.4559270516717  L 19.2709923664123 19.5592705167173  L 18.603598691385 19.5592705167173  L 16.6014176663032 20.7629179331307  C 16.6014176663032 20.7629179331307  16.6014176663032 21.8996960486322  16.6014176663032 22.468085106383  C 16.8980370774264 22.8693009118541  17.4912758996729 23.6717325227964  17.4912758996729 23.6717325227964  L 16.0452562704472 25.0759878419453  L 13.9318429661941 26.7811550151976  C 13.9318429661941 26.7811550151976  13.9318429661941 27.9179331306991  13.9318429661941 28.4863221884499  C 14.8217011995638 28.887537993921  16.6014176663032 29.6899696048632  16.6014176663032 29.6899696048632  L 19.715921483097 30.2917933130699  C 19.715921483097 30.2917933130699  21.1990185387132 31.2279635258359  21.9405670665213 31.6960486322189  C 23.0528898582334 31.6960486322189  25.2775354416576 31.6960486322189  25.2775354416576 31.6960486322189  C 25.2775354416576 31.6960486322189  24.9107125789207 35.036634826958  26.7235550708834 37.1124620060791  C 28.37821018835 39.007153949884  31.284078516903 38.9179331306991  31.284078516903 38.9179331306991  L 33.397491821156 38.4164133738602  L 32.6188658669575 39.8206686930091  L 33.9536532170121 41.0243161094225  L 36.5119956379499 43.0303951367781  L 35.0659760087242 43.7325227963526  L 33.9536532170121 44.5349544072949  L 32.6188658669575 45.5379939209727  L 30.3942202835333 46.0395136778116  C 30.3942202835333 46.0395136778116  27.8358778625955 47.5440729483283  23.0528898582334 52.8601823708207  C 18.2699018538712 58.1762917933131  16.6014176663032 60.6838905775076  16.6014176663032 60.6838905775076  L 17.4912758996729 63.5927051671733  L 17.4912758996729 64.1945288753799  L 15.2666303162486 64.1945288753799  L 13.1282872116628 64.9071450672644  L 10.149945474373 65.8996960486322  L 6.95137293636144 64.9190273194249  L 4.58833151581245 64.1945288753799  C 4.58833151581245 64.1945288753799  3.69847328244279 62.9240121580547  3.25354416575796 62.2887537993921  C 2.77153762268269 61.7537993920973  1.8075245365322 60.6838905775076  1.8075245365322 60.6838905775076  L 2.80861504907309 58.4772036474164  L 6.95137293636144 49.3495440729483  L 5.47818974918215 46.9422492401216  L 1.8075245365322 44.936170212766  L 1.25136314067614 43.7325227963526  L 2.80861504907309 37.7142857142857  L 5.47818974918215 37.1124620060791  C 5.47818974918215 37.1124620060791  6.46031187396833 35.5075987841945  6.95137293636144 34.7051671732523  C 6.95137293636144 33.7021276595745  6.95137293636144 31.6960486322189  6.95137293636144 31.6960486322189  L 6.47928026172304 29.6899696048632  L 2.25245365321703 28.4863221884499  L 1.8075245365322 26.3799392097265  L 4.58833151581245 25.7781155015198  L 5.47818974918215 24.1732522796353  L 3.69847328244275 21.1641337386018  L 1.25136314067614 19.0577507598784  L 0.250272628135211 16.4498480243161  Z " fill-rule="nonzero" fill="#6b6b6b" stroke="none" transform="matrix(1 0 0 1 673 244 )" />
  </g>
</svg>