<?xml version="1.0" encoding="utf-8"?>
<svg version="1.1" xmlns:xlink="http://www.w3.org/1999/xlink" width="53px" height="45px" xmlns="http://www.w3.org/2000/svg">
  <g transform="matrix(1 0 0 1 -651 -308 )">
    <path d="M 12.1252587991718 13.3021978021978  L 14.3198757763975 11.521978021978  L 17.2826086956522 11.521978021978  L 19.1772946859904 11.9769230769231  L 24.6053140096618 10.434065934066  L 24.6053140096618 7.9615384615385  L 26.0391304347826 6.62307692307692  L 26.0391304347826 4.96150523677847  L 26.8291925465839 3.57692307692309  L 26.0391304347826 2.10000000000002  L 26.8291925465839 0.148351648351654  L 32.7546583850932 1.63186813186815  L 37.1438923395445 0.642857142857154  L 40.6254040026251 0.237007818624179  L 41.7525879917185 3.01648351648354  L 42.3012422360249 4.9945054945055  L 37.1438923395445 7.9615384615385  L 37.1438923395445 10.434065934066  L 39.9968944099379 11.521978021978  C 39.9968944099379 11.521978021978  40.9550556672235 13.1264486308014  42.8498964803313 14.0934065934066  C 45.3996023948593 15.3945493697809  48.1169772256729 15.2802197802198  48.1169772256729 15.2802197802198  L 49.7629399585922 14.489010989011  L 52.9451345755694 18.6428571428572  L 50.9699792960663 22.0054945054945  L 48.1169772256729 19.3351648351648  C 48.1169772256729 19.3351648351648  45.9101084987503 17.9358084127249  45.044513457557 18.6428571428572  C 44.1398673796468 19.3818041448222  45.044513457557 22.0054945054945  45.044513457557 22.0054945054945  L 45.6023341463491 23.519608648237  C 45.6023341463491 23.519608648237  43.2255479709157 23.7770100843154  42.3012422360249 25.0714285714286  C 41.658047853846 25.9721724137225  42.3012422360249 27.1483516483517  42.3012422360249 27.1483516483517  L 42.3012422360249 28.6318681318681  C 42.3012422360249 28.6318681318681  39.9310559006212 27.8010989010989  39.0093167701864 28.6318681318681  C 38.4562732919255 29.1303296703297  39.0093167701864 30.4120879120879  39.0093167701864 30.4120879120879  L 40.6254040026251 31.5  L 43.045994704349 34.3309708854039  C 43.045994704349 34.3309708854039  43.6468015474125 35.2128877310321  43.9472049689442 35.6538461538462  C 44.8616287094549 35.6538461538462  46.6904761904763 35.6538461538462  46.6904761904763 35.6538461538462  C 46.6904761904763 35.6538461538462  48.1915942028986 35.6526249353541  48.7753623188406 36.445054945055  C 49.5399189691725 37.4828944866369  48.7753623188406 39.1153846153847  48.7753623188406 39.1153846153847  L 49.324016563147 40.2032967032967  C 49.324016563147 40.2032967032967  48.0804002760525 40.6648351648352  47.4585921325052 40.8956043956044  C 47.0562456866805 41.3241758241758  46.2515527950311 42.1813186813187  46.2515527950311 42.1813186813187  L 46.2515527950311 42.9725274725275  L 45.044513457557 43.8626373626374  L 43.045994704349 42.9725274725275  C 43.045994704349 42.9725274725275  41.9680124498871 44.766689797911  40.6254040026251 44.7527472527473  C 39.0290889004618 44.7361700477901  37.8022774327123 42.5769230769231  37.8022774327123 42.5769230769231  C 37.8022774327123 42.5769230769231  37.4106775534705 41.8734450831998  36.4855072463768 41.5879120879121  C 35.5173343334663 41.2891073060681  34.4006211180125 41.5879120879121  34.4006211180125 41.5879120879121  L 30.8892339544514 42.1813186813187  L 30.8892339544514 39.1153846153847  L 30.2308488612837 37.434065934066  L 26.8291925465839 36.8406593406593  L 21.3426501035197 36.8406593406593  L 14.3198757763975 36.445054945055  L 12.1252587991718 34.9615384615385  L 9.05279503105589 34.3309708854039  C 9.05279503105589 34.3309708854039  6.74293604234206 33.1657186531313  5.32194616977227 30.9065934065934  C 3.92986502940145 28.6934279856791  5.58919142117495 28.3612392159579  4.0051759834369 26.3571428571429  C 2.92394277505263 24.9891665834728  2.03002070393377 25.1703296703297  1.04244306418222 24.5769230769231  C 0.713250517598356 23.7197802197802  0.0548654244306293 22.0054945054945  0.0548654244306293 22.0054945054945  L 0.0548654244306293 19.3351648351648  L 2.79813664596275 16.6648351648352  L 12.1252587991718 13.3021978021978  Z " fill-rule="nonzero" fill="#6b6b6b" stroke="none" transform="matrix(1 0 0 1 651 308 )" />
  </g>
</svg>