<?xml version="1.0" encoding="utf-8"?>
<svg version="1.1" xmlns:xlink="http://www.w3.org/1999/xlink" width="36px" height="37px" xmlns="http://www.w3.org/2000/svg">
  <g transform="matrix(1 0 0 1 -724 -353 )">
    <path d="M 0.632967032967042 17.384126984127  L 4.22245117232276 14.7530158730159  C 4.22245117232276 14.7530158730159  6.84849038024788 12.9880752662454  6.96263736263737 10.6184126984127  C 7.0245886654756 9.33231927490657  5.69670329670329 8.26920634920636  5.69670329670329 8.26920634920636  L 8.01758241758246 8.83301587301589  L 11.0769230769231 7.42349206349208  L 9.59999999999999 3.94666666666668  L 11.9208791208792 0.751746031746029  L 13.7142857142857 0.751746031746029  L 18.145054945055 1.6914285714286  L 23.9472527472528 0  L 26.3736263736264 1.6914285714286  L 23.2087912087912 4.88634920634921  L 16.0351648351649 6.67174603174601  L 23.2087912087912 8.83301587301589  L 25.8461538461538 6.29587301587302  L 30.9098901098902 6.29587301587302  L 32.5978021978021 8.83301587301589  L 34.2943915234873 8.83301587301589  L 34.2943915234873 9.67873015873017  L 32.0703296703296 11.6520634920635  L 34.2943915234873 12.0687282638881  L 35.8681318681319 14.7530158730159  L 35.36747688315 15.482758442035  L 32.0703296703296 15.482758442035  C 32.0703296703296 15.482758442035  29.7494505494506 15.8806349206349  30.9098901098902 17.384126984127  C 32.0703296703297 18.8876190476191  33.5472527472527 18.135873015873  33.5472527472527 18.135873015873  L 32.0703296703296 22.8342857142857  L 33.5472527472527 22.8342857142857  L 33.5472527472527 24.6196825396825  L 30.0659340659341 26.8749206349207  L 30.0659340659341 24.6196825396825  L 29.1164835164836 24.6196825396825  L 25.8461538461538 29.4120634920635  L 26.3736263736264 30.5396825396825  L 25.8461538461538 31.5733333333333  L 25.1076923076923 32.1371428571428  L 25.1076923076923 36.0838095238095  L 24.4714216492275 36.851972027544  L 21.7318681318682 35.2380952380952  L 19.5164835164835 34.768253968254  L 19.5164835164835 36.0838095238095  L 17.7230769230769 35.6139682539682  L 16.7736263736263 34.768253968254  L 15.4021978021978 32.7949206349206  L 13.2923076923077 33.9225396825397  L 13.7142857142857 34.768253968254  C 13.7142857142857 34.768253968254  11.2851162667656 36.696848616864  9.59999999999999 36.0838095238095  C 8.19948724687164 35.5743081410729  8.01758241758246 33.1707936507936  8.01758241758246 33.1707936507936  C 8.01758241758246 33.1707936507936  8.19409871445539 30.5372324784341  6.43516483516487 28.6603174603175  C 5.60698608644769 27.776588316514  4.22245117232276 27.6278605080327  4.22245117232276 27.6278605080327  L 4.6417582417582 26.8749206349207  L 3.16483516483517 24.6196825396825  L 0.210989010989044 20.6730158730159  L 0.210989010989044 20.0152380952381  L 0.210989010989044 19.0755555555556  L 1.68791208791213 18.135873015873  L 0.632967032967042 17.384126984127  Z " fill-rule="nonzero" fill="#169bd5" stroke="none" transform="matrix(1 0 0 1 724 353 )" />
  </g>
</svg>