<?xml version="1.0" encoding="utf-8"?>
<svg version="1.1" xmlns:xlink="http://www.w3.org/1999/xlink" width="24px" height="18px" xmlns="http://www.w3.org/2000/svg">
  <g transform="matrix(1 0 0 1 -639 -467 )">
    <path d="M 0.877419354838748 9.12452830188679  L 7.07096774193552 5.32075471698112  L 5.62580645161289 3.7811320754717  L 10.3741935483871 2.5132075471698  L 10.7870967741936 1.78867924528305  L 17.3935483870968 1.78867924528305  L 18.3225806451613 1.06415094339622  L 21.5225806451613 1.4264150943396  L 21.5225806451613 0.158490566037746  L 22.8645161290322 1.06415094339622  L 23.3806451612903 2.5132075471698  L 23.7935483870968 3.7811320754717  L 23.3806451612903 4.8679245283019  L 21.5225806451613 6.04528301886795  L 19.9741935483871 8.49056603773585  L 19.9741935483871 12.6566037735849  L 18.3225806451613 13.4716981132075  L 14.5032258064516 16.9132075471698  L 12.2322580645161 17.4566037735849  L 9.44516129032257 17.8188679245283  L 5.2190180851364 16.2310552615116  L 2.01290322580643 15.9169811320755  L 0.877419354838748 13.9245283018868  L 0.154838709677411 11.2981132075472  L 0.877419354838748 9.12452830188679  Z " fill-rule="nonzero" fill="#169bd5" stroke="none" transform="matrix(1 0 0 1 639 467 )" />
  </g>
</svg>