<?xml version="1.0" encoding="utf-8"?>
<svg version="1.1" xmlns:xlink="http://www.w3.org/1999/xlink" width="50px" height="54px" xmlns="http://www.w3.org/2000/svg">
  <g transform="matrix(1 0 0 1 -640 -368 )">
    <path d="M 4.42708333333335 6.96000000000001  L 5.98958333333335 4.84800000000001  L 8.48958333333329 3.98399999999998  L 9.42708333333333 4.46399999999999  L 13.6979166666666 4.46399999999999  L 13.28125 0.72  L 13.6979166666666 0.239999999999986  L 16.9270833333334 0.239999999999986  L 21.6145833333334 2.16  L 25.15625 2.73600000000001  L 31.1979166666667 6.19199999999998  L 35.8854166666667 2.16  L 36.6145833333333 3.98399999999998  L 36.6145833333333 5.808  L 39.84375 4.84800000000001  L 41.09375 3.31199999999998  L 42.5520833333334 3.98399999999998  L 42.5520833333334 7.34399999999999  L 43.6979166666667 9.45600000000004  L 46.6145833333334 10.416  C 46.6145833333334 10.416  46.6145833333334 12.528  46.6145833333334 13.584  C 47.2395833333334 14.608  48.4895833333333 16.656  48.4895833333333 16.656  L 42.96875 22.896  L 43.6979166666667 27.408  L 45.78125 25.488  L 45.78125 29.424  C 45.78125 29.424  46.1631944444445 32.112  46.6145833333334 33.456  C 47.3784722222223 34.288  49.4270833333334 35.952  49.4270833333334 35.952  L 48.0729166666666 37.2  L 48.0729166666666 38.448  L 48.90625 38.448  L 49.9479166666667 39.408  L 49.9479166666667 41.3384721884623  L 48.4895833333333 43.824  L 48.0729166666666 44.592  L 46.6145833333334 45.936  C 46.6145833333334 45.936  44.0145342502017 43.9351251096732  41.09375 43.824  C 39.3803844248438 43.7588127348206  38.3854166666667 44.592  38.3854166666667 44.592  C 38.3854166666667 44.592  36.9270833333333 45.6479999999999  37.1354166666666 46.512  C 37.34375 47.376  38.28125 48.048  39.0104166666667 49.104  C 39.7395833333333 50.16  39.0104166666667 51.024  39.0104166666667 51.024  L 33.6979166666667 48.432  C 33.6979166666667 48.432  31.8979166666667 47.1209315379776  31.1979166666667 47.568  C 30.2147710302192 48.1959048680438  31.1979166666667 51.024  31.1979166666667 51.024  L 29.6354166666667 52.176  L 27.96875 52.56  L 25.15625 53.712  L 23.8020833333334 52.944  L 24.21875 50.256  L 20.15625 50.256  L 21.6145833333334 47.184  L 22.65625 46.512  L 23.8020833333334 41.808  L 22.1354166666667 40.848  L 22.1354166666667 37.776  L 20.15625 36.432  L 18.3854166666666 37.776  L 14.7395833333333 37.776  L 13.6979166666666 40.08  C 13.6979166666666 40.08  13.1423611111111 40.6949814589749  12.5520833333333 41.3384721884623  C 12.3753840869125 41.3384721884623  12.0219855940709 41.3384721884623  12.0219855940709 41.3384721884623  L 11.09375 40.464  L 9.42708333333333 40.848  L 6.82291666666668 42.768  L 4.42708333333335 40.08  C 4.42708333333335 40.08  3.38541666666665 39.7920000000001  3.38541666666665 38.448  C 3.38541666666665 37.104  3.80208333333329 36.432  3.80208333333329 36.432  L 3.80208333333329 34.992  L 4.94791666666665 33.456  L 4.42708333333335 30.8587366093995  L 2.44791666666671 29.904  L 0.0507859801819777 30.8587366093995  L 0.156249999999991 29.04  L 3.80208333333329 26.736  L 2.86458333333335 22.896  C 2.86458333333335 22.896  2.58680555555557 21.936  2.44791666666671 21.456  C 2.89930555555555 20.976  3.80208333333329 20.016  3.80208333333329 20.016  L 2.44791666666671 17.136  L 1.92708333333336 11.28  L 4.42708333333335 6.96000000000001  Z " fill-rule="nonzero" fill="#6b6b6b" stroke="none" transform="matrix(1 0 0 1 640 368 )" />
  </g>
</svg>