<?xml version="1.0" encoding="utf-8"?>
<svg version="1.1" xmlns:xlink="http://www.w3.org/1999/xlink" width="73px" height="40px" xmlns="http://www.w3.org/2000/svg">
  <g transform="matrix(1 0 0 1 -634 -339 )">
    <path d="M 9.04565217391307 7.7217391304348  C 9.66153402708379 6.54461076748351  13.0659420289855 6.79420289855075  13.0659420289855 6.79420289855075  L 14.8644927536232 4.84265835288834  L 12.4311594202899 2.62028985507249  L 10.209420289855 1.41449275362321  L 9.68828690797061 0.356059578014261  L 11.6905797101449 0.672463768115924  L 17.9326086956521 0.672463768115924  L 20.4717391304348 1.41449275362321  L 21.7413043478261 0.0231884057971199  L 23.8572463768116 2.62028985507249  L 26.713768115942 4.56811594202898  L 28.8302297617264 4.84265835288834  L 32.0036231884058 6.42318840579711  L 47.45 7.25797101449276  L 47.8731884057971 11.3391304347826  L 49.0369565217391 12.4521739130435  L 54.2210144927536 11.3391304347826  L 56.3369565217391 13.1942028985507  C 56.3369565217391 13.1942028985507  57.4359255894223 14.7475129743811  58.8760869565217 14.7710144927536  C 60.3972184552746 14.7958373360001  61.6268115942029 13.1942028985507  61.6268115942029 13.1942028985507  L 63.7427536231884 14.0289855072464  L 66.0702898550725 16.2550724637681  L 69.2442028985508 16.7188405797102  L 69.7731884057971 17.5536231884058  L 68.0804347826087 19.7797101449275  L 72.6297101449275 28.3130434782609  L 71.8891304347827 28.8695652173913  L 71.8891304347827 29.7043478260869  L 69.2442028985508 29.7043478260869  L 66.7050724637681 31.3739130434782  L 63.7427536231884 31.3739130434782  L 60.886231884058 32.672463768116  L 60.4630434782609 33.4144927536232  C 60.4630434782609 33.4144927536232  57.7123188405797 33.9091787439613  56.3369565217391 34.1565217391304  C 55.6316425120773 34.4966183574879  54.2210144927536 35.1768115942029  54.2210144927536 35.1768115942029  L 51.5760869565217 37.6811594202899  L 50.4123188405797 36.568115942029  C 50.4123188405797 36.568115942029  51.0471014492753 33.8782608695652  50.4123188405797 32.9135857620537  C 49.777536231884 31.9489106545423  47.45 31.7449275362319  47.45 31.7449275362319  L 45.5456521739131 33.4144927536232  L 44.5934782608696 33.4144927536232  L 43.8528985507246 30.7246376811594  L 42.1601449275363 30.168115942029  L 40.6789855072464 32.1159420289855  L 37.9282608695652 34.1565217391304  L 36.6586956521739 33.4144927536232  C 36.6586956521739 33.4144927536232  34.1195652173913 32.3014492753623  32.85 31.7449275362319  C 31.3335748792271 31.4048309178744  28.3007246376812 30.7246376811594  28.3007246376812 30.7246376811594  L 23.2224637681159 28.8695652173913  L 18.6731884057971 29.3333333333333  L 19.5195652173913 32.672463768116  L 16.9755398047896 32.9135857620537  L 14.8644927536232 31.7449275362319  L 11.6905797101449 33.4144927536232  L 9.04565217391307 36.0115942028985  L 8.09347826086956 39.9072463768116  L 1.63985507246377 32.672463768116  L 1.63985507246377 30.168115942029  L 0.264492753623173 28.3130434782609  L 0.793478260869565 26.6434782608696  L 9.04565217391307 25.9942028985507  L 14.8644927536232 22.6550724637681  C 14.8644927536232 22.6550724637681  16.4992764335062 21.1473320296661  16.1340579710145 18.8521739130435  C 15.8427576931523 17.0215430283168  14.1239130434783 15.2347826086957  14.1239130434783 15.2347826086957  L 11.0557971014493 14.0289855072464  L 11.0557971014493 11.3391304347826  C 11.0557971014493 11.3391304347826  8.36569185419098 9.0213399774246  9.04565217391307 7.7217391304348  Z " fill-rule="nonzero" fill="#6b6b6b" stroke="none" transform="matrix(1 0 0 1 634 339 )" />
  </g>
</svg>