<?xml version="1.0" encoding="utf-8"?>
<svg version="1.1" xmlns:xlink="http://www.w3.org/1999/xlink" width="132px" height="101px" xmlns="http://www.w3.org/2000/svg">
  <g transform="matrix(1 0 0 1 -501 -248 )">
    <path d="M 0.156213017751493 22.4522648083624  L 1.75739644970416 19.7777003484321  L 5.97514792899409 20.2  L 9.25562130177516 16.8216027874565  L 13.7857988165681 12.1763066202091  L 16.2852071005917 10.7686411149826  L 18.1597633136095 9.50174216027875  L 22.2213017751479 9.92404181184669  L 26.2828402366864 8.5163763066202  L 30.5005917159763 7.24947735191638  L 30.5005917159763 0.77421602787456  C 30.5005917159763 0.77421602787456  31.9878852026797 0.581278216445021  32.7315319460314 0.484809310730251  C 33.6758536444943 0.36230802674313  35.5644970414201 0.117305458768867  35.5644970414201 0.117305458768867  L 38.7798816568048 3.16724738675958  L 39.8733727810651 5.41951219512196  L 40.7952615747544 7.81730595918926  L 42.3727810650888 8.93867595818817  L 41.7479289940829 10.7686411149826  L 39.8733727810651 12.8801393728223  L 42.8414201183432 15.2731707317073  L 43.3100591715977 17.806968641115  L 44.8721893491125 19.2146341463415  L 45.3408284023669 22.0299651567944  L 46.7467455621302 23.2968641114983  L 48.6213017751479 23.2968641114983  L 50.1834319526627 21.6076655052265  L 59.9337278106509 20.2  L 59.9337278106509 22.0299651567944  L 56.4319526627219 26.9567944250871  L 57.6816568047337 28.9275261324042  L 60.3372781065089 30.3351916376307  L 62.2118343195267 32.1651567944251  L 63.4615384615385 32.8689895470383  L 64.3988165680474 34.0889663182346  L 66.2733727810651 35.1212543554007  L 67.210650887574 38.7811846689895  L 70.397195282237 39.3383329169346  C 70.397195282237 39.3383329169346  71.3761526372671 41.7637145920277  73.3029585798817 42.1595818815331  C 75.4227889013068 42.5951065314183  77.6769230769231 40.611149825784  77.6769230769231 40.611149825784  L 77.0520710059172 38.7811846689895  L 76.1147928994083 38.0773519163763  L 77.0520710059172 36.8104529616725  L 78.9266272189349 36.8104529616725  L 78.9377900990685 36.8083020788353  C 78.9377900990685 36.8083020788353  81.3317596616229 38.5325571593242  83.7692307692308 38.0773519163763  C 87.799201307969 37.3247424957217  90.1739644970415 33.2912891986063  90.1739644970415 33.2912891986063  L 93.0508875739645 34.0889663182346  C 93.0508875739645 34.0889663182346  94.8068444437896 35.8793963691435  94.3917159763314 37.6550522648084  C 93.8864205313848 39.8163852164261  90.9550295857989 41.0334494773519  90.9550295857989 41.0334494773519  L 87.5183431952663 42.8634146341463  L 85.8 48.4940766550523  C 85.8 48.4940766550523  86.424852071006 49.6202090592335  88.6118343195267 51.5909407665505  C 90.7988165680473 53.5616724738676  92.5171597633136 52.8578397212544  92.5171597633136 52.8578397212544  L 94.3917159763314 54.9693379790941  L 96.5786982248521 54.5470383275261  L 98.7656804733728 55.391637630662  L 99.5467455621302 56.6116144018583  L 101.108875739645 58.4885017421603  L 101.860517934855 62.5040371068547  C 101.860517934855 62.5040371068547  103.70545454723 63.601124930273  103.920710059172 65.2452961672474  C 104.03685018601 66.1324012373243  103.295857988166 66.9344947735192  103.295857988166 66.9344947735192  L 102.455287243892 67.9818957247026  L 103.295857988166 70.1721254355401  L 107.513609467456 72.8466898954704  L 108.294674556213 74.3951219512195  L 110.325443786982 75.802787456446  L 113.29349112426 75.3804878048781  L 112.837869822485 72.2836236933798  L 114.230769230769 71.5797909407665  L 115.962130177515 71.5797909407665  L 117.51124260355 70.7081508542165  L 118.136094674556 67.3567944250871  L 117.042603550296 65.2452961672474  L 114.230769230769 64.1191637630662  L 114.230769230769 57.9254355400697  L 115.962130177515 56.6116144018583  L 119.854437869823 57.3623693379791  L 123.291124260355 60.3184668989547  L 126.259171597633 62.2891986062718  L 130.793153301614 63.2745644599303  L 132 65.2452961672474  L 130.793153301614 67.3567944250871  L 130.793153301614 70.7081508542165  L 130.320710059172 72.8466898954704  C 130.320710059172 72.8466898954704  125.898054131109 72.6529103617471  123.291124260355 74.3951219512195  C 121.46918182495 75.612726330196  121.885207100592 77.4919860627178  121.885207100592 77.4919860627178  L 121.260355029586 78.1340207149398  L 117.042603550296 76.3658536585366  L 114.855621301775 76.3658536585366  L 110.794082840237 81.9965156794425  L 110.794082840237 84.9526132404182  C 110.794082840237 84.9526132404182  112.156607495069 86.735656213705  112.837869822485 87.6271777003484  C 112.837869822485 88.4874177313202  112.837869822485 90.2078977932637  112.837869822485 90.2078977932637  C 112.837869822485 90.2078977932637  108.61699408284 89.6356834972463  106.732544378698 91.7094076655052  C 104.974437573853 93.6440990311458  106.107692307692 97.1993031358885  106.107692307692 97.1993031358885  C 106.107692307692 97.1993031358885  105.274556213018 98.606968641115  104.85798816568 99.3108013937282  C 103.977120315582 99.7800232288038  102.215384615385 100.718466898955  102.215384615385 100.718466898955  L 98.7656804733728 99.3108013937282  L 96.5786982248521 99.3108013937282  L 97.203550295858 96.6362369337979  L 96.5786982248521 95.0878048780488  C 96.5786982248521 95.0878048780488  94.2268244575937 93.1324351043375  93.0508875739645 92.1547502174818  C 93.0508875739645 91.5057994094091  93.0508875739645 90.2078977932637  93.0508875739645 90.2078977932637  C 93.0508875739645 90.2078977932637  87.9909839062612 90.462510173315  84.8627218934912 88.3310104529617  C 82.3729833450414 86.6345806148886  82.519526627219 83.9672473867596  82.519526627219 83.9672473867596  L 79.5514792899408 83.9672473867596  L 78.1455621301775 85.3749128919861  L 75.0213017751479 88.8940766550523  L 76.1147928994083 92.8355400696864  L 73.7715976331361 93.2578397212544  L 72.3609337477789 92.1547502174818  L 70.1786982248521 92.8355400696864  L 65.7656804733728 90.9586527293845  C 65.7656804733728 90.9586527293845  65.3751479289941 89.2068912117693  65.1798816568048 88.3310104529617  C 65.1798816568048 87.3456445993031  65.1798816568048 85.3749128919861  65.1798816568048 85.3749128919861  L 71.2721893491124 86.0787456445993  L 73.3029585798817 84.3895470383275  L 73.3029585798817 81.9965156794425  L 70.803550295858 80.588850174216  L 73.7715976331361 78.618118466899  L 76.6003519376618 78.1340207149398  L 78.9266272189349 75.3804878048781  L 78.9266272189349 73.8320557491289  L 80.4887573964497 73.409756097561  L 83.3005917159764 68.0606271777003  L 80.9573964497042 64.5414634146341  L 79.5514792899408 57.3623693379791  L 78.1455621301775 54.9693379790941  L 75.6461538461539 53.2801393728223  L 75.6461538461539 50.4648083623693  L 71.2721893491124 51.1686411149826  L 59.9337278106509 42.8634146341463  L 58.1502958579882 44.4118466898955  L 46.7467455621302 36.1066202090592  L 44.8721893491125 37.2327526132404  L 41.2792899408284 38.0773519163763  L 34.4059171597633 34.5581881533101  L 32.2189349112426 35.5435540069686  L 32.2189349112426 39.3442508710801  C 32.2189349112426 39.3442508710801  32.2495564783546 41.1883783462761  31.2816568047337 41.5965156794425  C 30.0814334088472 42.1026176953348  28.1573964497042 40.611149825784  28.1573964497042 40.611149825784  L 22.2213017751479 35.5435540069686  L 16.2852071005917 33.2912891986063  L 13.7857988165681 31.7428571428571  L 9.25562130177516 31.3205574912892  L 5.97514792899409 31.3205574912892  L 1.75739644970416 30.3351916376307  L 0.156213017751493 28.2706155632985  L 0.156213017751493 22.4522648083624  Z " fill-rule="nonzero" fill="#169bd5" stroke="none" transform="matrix(1 0 0 1 501 248 )" />
  </g>
</svg>