<?xml version="1.0" encoding="utf-8"?>
<svg version="1.1" xmlns:xlink="http://www.w3.org/1999/xlink" width="41px" height="45px" xmlns="http://www.w3.org/2000/svg">
  <g transform="matrix(1 0 0 1 -707 -382 )">
    <path d="M 5.46666666666667 21.6046511627907  L 7.96571428571428 19.7441860465116  L 7.96571428571428 18.8139534883721  C 7.96571428571428 18.8139534883721  6.05360304607132 17.6832496068476  6.19555555555556 16.4883720930233  C 6.48116386507574 14.0842797099649  10.7771428571429 12.5813953488372  10.7771428571429 12.5813953488372  L 11.6101587301587 8.86046511627906  L 10.3606349206349 9.88372093023257  L 10.7771428571429 6.06976744186046  L 13.3803174603175 4.67441860465115  L 14.9422222222223 5.51162790697677  L 17.5453968253969 5.51162790697677  C 17.5453968253969 5.51162790697677  18.5866666666667 4.20930232558137  19.1073015873016 3.5581395348837  C 19.8708994708995 3.09302325581392  21.3980952380953 2.16279069767439  21.3980952380953 2.16279069767439  L 21.3980952380953 0.209302325581403  C 21.3980952380953 0.209302325581403  22.9583190806956 0.00323942700520039  23.8971428571429 0.767441860465093  C 25.191412202639 1.8209769414827  24.6866584472972 3.38455193982548  25.0425396825397 4.67441860465115  C 25.5051174995807 6.35099957325016  26.6044444444444 7.6511627906977  26.6044444444444 7.6511627906977  C 26.6044444444444 7.6511627906977  29.0552023291544 8.80696110398163  31.0819047619048 8.02325581395349  C 32.6871578039493 7.4025207319036  33.2685714285714 5.51162790697677  33.2685714285714 5.51162790697677  C 33.2685714285714 5.51162790697677  33.7544973544973 6.68992248062017  33.9974603174603 7.27906976744186  C 34.5875132275132 7.52713178294574  35.7676190476191 8.02325581395349  35.7676190476191 8.02325581395349  L 38.0584126984127 8.48837209302327  L 39.3079365079365 7.6511627906977  L 39.7244444444445 9.3255813953488  L 40.8698412698413 9.88372093023257  L 40.8698412698413 10.7209302325581  L 38.7873015873016 12.5813953488372  L 38.7873015873016 14.6279069767442  L 34.6222222222223 13.9767441860465  L 33.9974603174603 14.6279069767442  L 34.6222222222223 15.3720930232558  L 38.7873015873016 17.7906976744186  L 38.0584126984127 18.8139534883721  L 34.6222222222223 20.4883720930232  L 35.7676190476191 22.8139534883721  L 35.1428571428571 23.8372093023256  L 35.7676190476191 25.6976744186046  L 33.9974603174603 25.6976744186046  L 31.6025396825397 27.1860465116279  L 33.2685714285714 28.7674418604651  L 32.4355555555555 29.4186046511628  L 30.4193088386898 28.7674418604651  L 30.4193088386898 32.3023255813954  L 30.4193088386898 33.7906976744186  L 28.3746031746032 36.0232558139535  L 25.0425396825397 36.0232558139535  L 25.0425396825397 38.1627906976744  L 22.543492063492 37.7906976744186  L 21.9187301587302 39.9302325581395  L 19.6279365079365 44.3023255813954  L 16.504126984127 41.7906976744186  C 16.504126984127 41.7906976744186  16.8894824504922 44.4343770496866  15.9834920634921 44.7674418604651  C 14.6631287807203 45.252840550391  12.0266666666667 42.1627906976744  12.0266666666667 42.1627906976744  L 10.3606349206349 38.1627906976744  L 7.96571428571428 35.6511627906977  L 0.885079365079404 35.6511627906977  L 0.0520634920634891 32.6977877032668  L 2.44698412698417 31.1860465116279  L 1.82222222222221 29.4186046511628  L 2.44698412698417 28.7674418604651  L 2.44698412698417 27.1860465116279  L 4.21714285714288 25.6976744186046  L 4.50789699027117 24.7452608514941  L 5.46666666666667 24.2093023255814  L 5.46666666666667 21.6046511627907  Z " fill-rule="nonzero" fill="#6b6b6b" stroke="none" transform="matrix(1 0 0 1 707 382 )" />
  </g>
</svg>