<?xml version="1.0" encoding="utf-8"?>
<svg version="1.1" xmlns:xlink="http://www.w3.org/1999/xlink" width="182px" height="100px" xmlns="http://www.w3.org/2000/svg">
  <g transform="matrix(1 0 0 1 -363 -299 )">
    <path d="M 9.17811158798283 22.8070175438596  L 5.66309012875537 13.859649122807  L 9.57877371958432 7.55711775043936  L 17.3798283261803 8.07017543859649  L 18.9420600858369 3.68421052631579  L 23.2627361761333 0  C 23.2627361761333 0  28.5013566873219 2.40985292985057  34.9549356223176 2.45614035087719  C 40.6280065893842 2.49682968419309  43.3519313304721 0.527240773286462  43.3519313304721 0.527240773286462  C 43.3519313304721 0.527240773286462  44.1011872005261 0.566180970066326  45.1094420600858 1.05263157894737  C 46.1176969196456 1.53908218782841  47.1738150183202 3.78445690868947  47.843347639485 4.3859649122807  C 49.0150214592275 5.43859649122807  51.1630901287554 4.3859649122807  51.1630901287554 4.3859649122807  L 56.2403433476395 5.61061487265896  L 61.9034334763948 4.3859649122807  C 61.9034334763948 4.3859649122807  64.8688127421943 5.52638742071468  68.3476394849785 5.08771929824561  C 73.4595928194849 4.44311951297357  77.1351931330472 1.75438596491228  77.1351931330472 1.75438596491228  L 83.5793991416309 2.10526315789474  L 88.0708154506438 0.527240773286462  L 90.9006077470757 0.527240773286462  L 98.225321888412 2.45614035087719  L 103.107296137339 5.61061487265896  L 103.107296137339 10.7017543859649  L 101.154506437768 11.7543859649123  L 100.37339055794 15.2631578947368  C 100.37339055794 15.2631578947368  103.107296137339 16.140350877193  102.716738197425 18.7719298245614  C 102.326180257511 21.4035087719298  100.37339055794 27.3684210526316  100.37339055794 27.3684210526316  C 100.37339055794 27.3684210526316  106.231759656652 36.3157894736842  108.37982832618 36.6666666666667  C 110.527896995708 37.0175438596491  112.675965665236 34.7368421052632  112.675965665236 34.7368421052632  L 114.238197424893 35.4385964912281  L 116.972103004292 39.4736842105263  C 116.972103004292 39.4736842105263  118.406846774684 39.9148311305973  120.291845493562 40.7017543859649  C 122.057636066011 41.4389122692317  124.551354965077 41.9621971994382  127.12660944206 42.8822495606327  C 128.731156446923 43.4555005824895  130.244953382057 44.4653859024495  132.008583690987 44.9122807017544  C 139.624463519313 46.8421052631579  144.701716738197 44.9122807017544  144.701716738197 44.9122807017544  L 149.833249424118 50.4280176237233  L 151.536480686695 54.5614035087719  L 155.637339055794 56.6666666666667  L 158.175965665236 55.7894736842105  L 159.93347639485 52.9824561403509  L 161.300429184549 52.9824561403509  L 162.862660944206 55.7894736842105  L 166.768240343348 54.0350877192982  L 166.768240343348 52.1052631578947  L 168.721030042918 51.4035087719298  L 168.721030042918 47.3684210526316  L 173.603004291846 51.4035087719298  L 174.188841201717 54.5614035087719  L 177.703862660944 57.89321109561  L 178.484978540773 64.3859649122807  L 180.047210300429 69.1228070175439  L 180.6330472103 70.1754385964912  L 180.047210300429 74.9122807017544  L 182 78.2448257327318  L 180.047210300429 82.2495606326889  L 175.751072961373 85.6140350877193  L 176.532188841202 89.6487477276708  L 172.62660944206 91.2126537785589  C 172.62660944206 91.2126537785589  170.478540772532 86.3157894736842  167.354077253219 86.6666666666667  C 164.229613733906 87.0175438596491  165.791845493562 90  165.791845493562 90  L 164.62017167382 93.6731107205624  L 159.93347639485 91.9156414762742  L 155.637339055794 88.2456140350877  L 148.802575107296 88.2456140350877  L 139.038626609442 93.6731107205624  L 134.547210300429 92.9701230228471  L 131.422746781116 97.3684210526316  L 127.517167381974 99.1228070175439  L 116.972103004292 100  L 114.824034334764 95.9649122807018  L 114.824034334764 91.9156414762742  L 111.504291845494 91.9156414762742  L 111.504291845494 88.2456140350877  L 105.087508999469 87.3211078990895  L 99.9828326180258 84.9122807017544  C 99.9828326180258 84.9122807017544  96.7950736075626 83.0858227499983  94.5150214592275 83.3333333333333  C 92.4316765244002 83.5594904063124  91.3905579399142 84.9122807017544  91.3905579399142 84.9122807017544  L 86.5085836909871 91.9156414762742  L 84.1652360515021 88.7719298245614  C 84.1652360515021 88.7719298245614  87.6802575107296 85.7894736842105  85.7274678111588 84.2105263157895  C 83.774678111588 82.6315789473684  74.7918454935622 84.2105263157895  74.7918454935622 84.2105263157895  L 71.0815450643777 84.2105263157895  L 66.1995708154506 81.2280701754386  L 61.9034334763948 82.2495606326889  C 61.9034334763948 82.2495606326889  60.3578694087077 79.2305609957536  57.0214592274678 77.3684210526316  C 54.70573753457 76.0759547108892  52.1394849785408 76.140350877193  52.1394849785408 76.140350877193  L 50.7725321888412 73.3333333333333  L 45.6678066695708 70.6872154527265  L 41.9849785407725 65.0877192982456  L 38.7060652342387 65.7293497363796  C 38.7060652342387 65.7293497363796  36.2053121596246 62.3776195027698  34.9549356223176 60.7017543859649  C 34.0178951050974 60.2019799891545  32.1438140706571 59.2024311955337  32.1438140706571 59.2024311955337  L 26.9484978540773 54.0350877192982  L 25.9721030042918 50.8771929824561  L 22.2618025751073 50.3508771929825  L 19.7231759656652 53.3333333333333  L 18.9420600858369 53.3333333333333  L 14.6613883463025 49.9121265377856  L 7.81940711802802 42.8822495606327  L 4.49615909286611 39.0158172231986  L 0.781940711802801 39.0158172231986  L 0 34.0949033391915  L 2.1503369574577 30.2284710017574  L 0.781940711802801 28.2952548330404  L 1.3683962456549 24.0773286467487  L 2.73390557939914 27.0175438596491  L 5.66309012875537 27.0175438596491  C 5.66309012875537 27.0175438596491  7.61587982832618 25.8479532163743  8.59227467811159 25.2631578947368  C 8.78755364806867 24.4444444444444  9.17811158798283 22.8070175438596  9.17811158798283 22.8070175438596  Z " fill-rule="nonzero" fill="#6b6b6b" stroke="none" transform="matrix(1 0 0 1 363 299 )" />
  </g>
</svg>