<?xml version="1.0" encoding="utf-8"?>
<svg version="1.1" xmlns:xlink="http://www.w3.org/1999/xlink" width="54px" height="43px" xmlns="http://www.w3.org/2000/svg">
  <g transform="matrix(1 0 0 1 -589 -380 )">
    <path d="M 23.765034965035 15.6279569892473  C 25.6783216783217 14.4258064516129  25.8292787006634 14.005679199917  25.5776223776223 12.2989247311828  C 25.4093861108395 11.1579321399186  24.3692307692308 11.0659498207885  23.765034965035 10.4494623655914  C 22.8251748251748 10.2953405017921  20.9454545454546 9.98709677419357  20.9454545454546 9.98709677419357  C 20.9454545454546 9.98709677419357  18.4619646105423 8.32467654148956  18.8307692307693 7.12043010752687  C 19.0035678528193 6.55619605788466  20.4387155470513 6.44844799262571  20.4387155470513 6.44844799262571  L 22.3552447552448 6.44844799262571  C 22.3552447552448 6.44844799262571  23.2951048951049 7.63622101546304  23.765034965035 8.23010752688169  C 24.4257241434662 8.10681003584228  25.7471025003287 7.86021505376343  25.7471025003287 7.86021505376343  L 26.3832167832168 7.12043010752687  L 27.1888111888112 7.86021505376343  L 29.2027972027972 7.86021505376343  L 29.9076923076924 7.12043010752687  L 29.9076923076924 5.91827956989245  L 30.3104895104896 4.99354838709677  L 30.9146853146854 4.5311827956989  L 33.834965034965 4.5311827956989  L 35.1440559440559 2.95913978494623  L 35.6475524475524 0.0924731182796041  L 36.4531468531469 0.0924731182796041  C 36.4531468531469 0.0924731182796041  36.6545454545455 3.1440860215054  38.2657342657343 3.51397849462365  C 39.8769230769231 3.88387096774191  40.8839160839161 0.832258064516121  40.8839160839161 0.832258064516121  L 41.7902097902098 0.832258064516121  L 42.8979020979021 1.29462365591394  L 42.8979020979021 3.51397849462365  L 43.9048951048951 4.99354838709677  L 44.509090909091 8.23010752688169  L 46.8251748251748 8.23010752688169  L 47.3286713286713 9.98709677419357  C 47.3286713286713 9.98709677419357  47.9328671328671 10.8193548387097  49.1412587412587 10.9118279569893  C 50.3496503496504 11.0043010752688  50.4503496503497 9.15483870967741  50.4503496503497 9.15483870967741  L 50.9538461538462 9.15483870967741  L 50.4503496503497 8.60000000000002  L 51.7594405594405 8.23010752688169  L 52.565034965035 8.60000000000002  L 51.7594405594405 9.98709677419357  L 51.3566433566434 10.9118279569893  C 51.3566433566434 10.9118279569893  52.8926205215532 14.3275797046078  52.4770794915459 15.2551877017663  C 52.0615384615385 16.1827956989247  49.1412587412587 18.1247311827957  49.1412587412587 18.1247311827957  C 49.1412587412587 18.1247311827957  48.2563713147802 20.5859311749117  49.1412587412587 21.176284009741  C 50.2690909090909 21.9287174804492  53.1692307692308 19.9741935483871  53.1692307692308 19.9741935483871  L 53.6727272727273 22.563440860215  L 53.1692307692308 23.5806451612903  L 52.4770794915459 26.9096774193548  L 53.6727272727273 29.4064516129032  L 53.1692307692308 31.5333333333334  L 49.8461538461538 31.9032258064516  C 49.8461538461538 31.9032258064516  48.9734265734266 32.8279569892473  48.537062937063 33.2903225806452  C 47.6979020979022 33.7218637992831  46.0195804195805 34.5849462365591  46.0195804195805 34.5849462365591  L 45.3146853146853 35.8795698924731  L 43.9048951048951 35.8795698924731  L 41.7902097902098 37.3591397849462  L 40.8839160839161 38.5612903225806  L 38.6649055386388 37.7747948276425  C 38.6649055386388 37.7747948276425  36.9218682797794 37.7747948276425  36.0503496503497 37.7747948276425  C 35.7482517482517 37.3588237919051  35.1440559440559 36.5268817204301  35.1440559440559 36.5268817204301  L 32.5258741258741 35.4172043010753  C 32.5258741258741 35.4172043010753  31.0489510489511 37.0817204301075  30.3104895104896 37.9139784946237  C 29.4523686791141 38.30603681589  27.7361270163631 39.0901534584227  27.7361270163631 39.0901534584227  L 25.7471025003287 40.6154084986325  C 25.7471025003287 40.6154084986325  24.4257241434662 41.0338100013363  23.765034965035 41.2430107526882  C 23.4293706293706 41.7978494623656  22.758041958042 42.9075268817204  22.758041958042 42.9075268817204  L 19.2335664335665 42.9075268817204  L 16.1294804068785 41.7165782790409  L 13.4937062937063 41.2430107526882  L 9.46573426573429 42.9075268817204  L 11.1776223776224 38.5612903225806  L 7.65314685314689 35.8795698924731  L 7.65314685314689 33.2903225806452  C 7.65314685314689 33.2903225806452  9.56421039341388 31.0196272808774  9.46573426573429 28.2043010752688  C 9.4015881404818 26.3704325868659  8.05594405594407 24.9677419354839  8.05594405594407 24.9677419354839  L 6.24335664335663 24.5978494623656  L 4.33006993006994 24.5978494623656  L 3.32307692307695 25.8924731182796  L 1.30909090909092 24.9677419354839  L 0.302097902097928 22.563440860215  L 0.302097902097928 21.083870967742  L 1.30909090909092 19.3268817204301  L 3.92727272727272 18.6795698924731  L 9.46573426573429 18.6795698924731  L 11.1776223776224 19.3268817204301  C 11.1776223776224 19.3268817204301  13.0573426573427 18.5254480286738  13.9972027972028 18.1247311827957  C 14.707962000428 17.6007168458781  16.1294804068785 16.1827956989247  16.1294804068785 16.1827956989247  L 17.3202797202798 16.8301075268817  C 17.3202797202798 16.8301075268817  21.8517482517483 16.8301075268817  23.765034965035 15.6279569892473  Z " fill-rule="nonzero" fill="#6b6b6b" stroke="none" transform="matrix(1 0 0 1 589 380 )" />
  </g>
</svg>