<?xml version="1.0" encoding="utf-8"?>
<svg version="1.1" xmlns:xlink="http://www.w3.org/1999/xlink" width="53px" height="46px" xmlns="http://www.w3.org/2000/svg">
  <g transform="matrix(1 0 0 1 -714 -230 )">
    <path d="M 19.7661835748792 10.4587064676617  L 22.5314009661836 10.8248756218906  L 22.5314009661836 8.35323383084577  L 23.9652173913043 6.54527363184079  L 26.5256038647343 7.16318407960199  L 29.8028985507247 6.54527363184079  L 32.056038647343 4.16517412935323  L 32.9777777777778 2.6089552238806  L 32.568115942029 1.2358208955224  L 32.9777777777778 0.137313432835833  L 35.0260869565218 1.78507462686567  L 37.8937198067633 1.2358208955224  L 38.3033816425121 2.6089552238806  L 39.7371980676329 3.52437810945275  L 41.5806763285024 3.52437810945275  L 42.7072463768116 1.2358208955224  L 43.5265700483091 1.78507462686567  C 43.5265700483091 1.78507462686567  42.9120772946859 3.31840796019901  43.5265700483091 4.69154228855722  C 44.1410628019324 6.06467661691543  44.7555555555556 6.54527363184079  44.7555555555556 6.54527363184079  L 48.4425120772947 8.92537313432836  L 48.4425120772947 13.044776119403  L 48.8521739130435 15.0587064676617  C 48.8521739130435 15.0587064676617  51.5149758454107 16.4318407960199  50.3884057971015 16.2487562189055  C 49.2618357487923 16.065671641791  51.7198067632851 16.2487562189055  51.7198067632851 16.2487562189055  L 52.4367149758455 16.9810945273632  L 52.9487922705314 20.3681592039801  L 51.7198067632851 21.7412935323383  L 46.3942028985507 26.8676616915423  L 43.5322499993294 32.8061247264855  L 43.5265700483091 32.8179104477612  L 42.5064110589368 33.0861020617446  L 40.1468599033817 33.8019900497513  L 38.7130434782609 33.8019900497513  L 36.5623188405797 34.6487562189055  L 28.0618357487922 42.0407960199005  L 26.5256038647343 44.8786069651741  L 25.8086956521739 45.8169154228856  L 22.0193236714976 45.8169154228856  L 22.5314009661836 44.8786069651741  L 24.8869565217391 44.260696517413  L 25.8086956521739 42.8646766169154  L 25.8086956521739 42.0407960199005  L 26.9352657004831 41.1482587064676  L 26.5256038647343 38.8597014925373  L 24.8869565217391 39.7522388059702  L 23.5555555555555 40.2099502487562  L 23.5555555555555 38.2875621890547  L 24.3748792270532 36.6398009950249  L 25.7620550492284 35.1627753060847  L 26.5256038647343 33.0861020617446  L 26.5256038647343 29.407960199005  L 24.3748792270532 26.0757578434708  L 22.5314009661836 25.1970149253731  L 20.687922705314 26.0757578434708  L 20.0733645020625 26.0757578434708  L 19.2541062801933 26.4786069651741  L 17.7178743961353 26.8676616915423  L 15.7719806763285 28.7671641791045  L 12.1874396135265 34.6487562189055  L 10.343961352657 35.0835820895522  L 7.06666666666666 34.6487562189055  L 6.4521739130435 32.2457711442786  L 4.98595572269817 31.4839362566886  L 2.97004830917871 30.5980099502488  L 0.30724637681162 30.1402985074627  L 0 29.7741293532338  L 0.30724637681162 28.3323383084577  L 0.30724637681162 26.8676616915423  L 1.94589371980674 24.4646766169154  L 4.19903381642514 22.7482587064677  L 2.97004830917871 16.2487562189055  L 5.83768115942026 18.5144278606965  L 7.47632850241547 19.3383084577114  L 9.83188405797102 17.9651741293532  L 14.2357487922705 13.044776119403  L 16.3864734299517 12.289552238806  L 17.7178743961353 10.0925373134328  L 19.7661835748792 10.4587064676617  Z " fill-rule="nonzero" fill="#169bd5" stroke="none" transform="matrix(1 0 0 1 714 230 )" />
  </g>
</svg>