<?xml version="1.0" encoding="utf-8"?>
<svg version="1.1" xmlns:xlink="http://www.w3.org/1999/xlink" width="41px" height="38px" xmlns="http://www.w3.org/2000/svg">
  <g transform="matrix(1 0 0 1 -609 -352 )">
    <path d="M 0.0257861635219891 22.1525925925926  L 1.05723270440248 20.9703703703704  L 10.340251572327 21.6271604938272  L 11.9905660377358 19.8444444444444  L 13.6408805031447 17.4049382716049  L 15.9100628930818 16.4666666666667  L 18.0761006289308 13.3703703703704  L 20.2421383647799 11.962962962963  L 22.0987421383648 8.86666666666668  L 23.3364779874214 7.62814814814817  L 24.6773584905661 5.39506172839508  L 25.1930817610063 2.39259259259262  L 28.173962264151 0.0844444444444476  L 32.0109433962264 3.12444444444444  L 33.7437735849057 4.0251851851852  L 35.9716981132076 3.57481481481484  L 38.8184905660377 4.58814814814818  C 38.8184905660377 4.58814814814818  40.3207750548368 5.54764899639309  40.6750943396227 7.62814814814817  C 40.9484788751938 9.23341300044789  40.18 10.5555555555556  40.18 10.5555555555556  L 36.5242587601078 11.962962962963  L 33.7437735849057 13.3703703703704  L 30.4534591194968 13.3703703703704  L 25.8222641509434 14.045925925926  L 24.6773584905661 16.8888888888889  L 26.2245283018868 19.3015873015873  L 26.9362264150944 22.1525925925926  L 31.1754716981132 26.7407407407408  L 33.1249056603774 29.8088888888889  L 34.2388679245283 35.7762962962963  L 33.1249056603774 35.7762962962963  L 32.0109433962264 36.2641975308642  L 31.1754716981132 37.8592592592593  L 30.4534591194968 37.8592592592593  L 29.8345911949686 35.7762962962963  L 28.7000000000001 34.9506172839506  L 27.6685534591195 35.4197530864197  L 26.9362264150944 34.9506172839506  L 26.9362264150944 33.3555555555556  L 26.2245283018868 31.5728395061728  C 26.2245283018868 31.5728395061728  25.8366458412943 28.1725831632301  24.2647798742138 27.8197530864197  C 22.4899909143089 27.4213737473667  20.2421383647799 30.6345679012345  20.2421383647799 30.6345679012345  L 19.8295597484277 30.6345679012345  L 19.1075471698113 27.8197530864197  C 19.1075471698113 27.8197530864197  18.7981132075471 26.9753086419753  17.5603773584906 27.1629629629629  C 16.322641509434 27.3506172839506  15.9100628930818 28.5703703703703  15.9100628930818 28.5703703703703  L 15.4974842767295 30.6345679012345  L 14.6723270440252 31.9481481481482  L 11.5779874213837 31.9481481481482  L 10.340251572327 33.3555555555556  L 9.20566037735852 34.1074020816319  L 9.61823899371074 34.9506172839506  L 9.20566037735852 34.9506172839506  L 8.58679245283025 34.1074020816319  L 6.93647798742141 34.1074020816319  L 6.11132075471701 35.4197530864197  L 5.07987421383648 35.4197530864197  C 5.07987421383648 35.4197530864197  6.28734078865132 33.5395540146402  5.59559748427674 31.9481481481482  C 4.92659808546554 30.4090662933404  2.70754716981132 29.8088888888889  2.70754716981132 29.8088888888889  L 0.6446540880503 27.1629629629629  L 0.0257861635219891 24.3481481481481  L 0.0257861635219891 22.1525925925926  Z " fill-rule="nonzero" fill="#169bd5" stroke="none" transform="matrix(1 0 0 1 609 352 )" />
  </g>
</svg>