<?xml version="1.0" encoding="utf-8"?>
<svg version="1.1" xmlns:xlink="http://www.w3.org/1999/xlink" width="48px" height="76px" xmlns="http://www.w3.org/2000/svg">
  <g transform="matrix(1 0 0 1 -607 -279 )">
    <path d="M 14.1223140495868 23.8414814814815  L 15.3917355371901 17.1985185185185  L 19.4538842975206 18.3244444444445  L 22.3735537190083 19.2251851851852  L 25.9279338842975 19.2251851851852  L 27.1973553719009 17.1985185185185  L 28.9745454545455 12.0192592592593  L 28.9745454545455 9.20444444444445  L 33.036694214876 5.93925925925926  L 38.7490909090909 3.57481481481482  L 38.2413223140496 1.43555555555557  L 40.1454545454546 1.43555555555557  L 42.9381818181818 2.67407407407408  L 43.6998347107438 0.0844444444444677  L 45.8578512396694 0.0844444444444677  L 46.6195041322314 1.88592592592593  L 42.9381818181818 4.47555555555555  L 44.4614876033058 6.72740740740741  L 44.4129253953009 8.08060900876504  L 41.4148760330578 11.5688888888889  L 41.5511964470271 14.9342377505451  L 42.9381818181818 15.7348148148148  L 43.6998347107438 17.1985185185185  L 43.6998347107438 19.7881481481481  L 41.4148760330578 21.477037037037  C 41.4148760330578 21.477037037037  40.6532231404959 23.3911111111111  40.7801652892562 26.4311111111111  C 40.9071074380165 29.4711111111111  42.0495867768595 31.6103703703703  42.0495867768595 31.6103703703703  L 42.9381818181818 34.4251851851852  L 40.7801652892562 44.3333333333333  L 40.1454545454546 46.922962962963  L 40.7801652892562 48.2740740740741  L 42.9381818181818 49.1748148148148  C 42.9381818181818 49.1748148148148  42.6842975206612 51.8770370370371  42.9381818181818 53.4533333333333  C 43.1920661157025 55.0296296296296  47.1272727272727 57.0562962962963  47.1272727272727 57.0562962962963  L 47.7619834710744 60.8844444444444  L 46.6195041322314 61.6725925925926  L 44.4614876033058 60.8844444444444  L 38.7490467953217 60.8844444444444  C 38.7490467953217 60.8844444444444  36.7180018243359 60.8844444444444  35.702479338843 60.8844444444444  C 35.4485950413223 61.1471604938272  35.1947107438017 61.4098765432099  34.940826446281 61.6725925925926  C 35.1947107438017 62.3856790123457  34.6869421487604 62.5733333333333  35.702479338843 63.5866666666667  C 36.7180165289256 64.6  38.7490909090909 64.8251851851852  38.7490909090909 64.8251851851852  L 40.7801652892562 67.1896296296296  L 37.225785123967 67.1896296296296  L 34.940826446281 68.7659259259259  L 36.5910743801653 73.3822222222222  L 37.225785123967 75.7466666666667  L 35.702479338843 75.7466666666667  L 34.179173553719 75.7466666666667  L 28.9745454545455 72.3688888888889  L 24.7854545454545 71.4681481481481  L 21.104132231405 72.3688888888889  L 19.4538842975206 71.0177777777778  L 17.0419834710744 68.7659259259259  L 15.3917355371901 70.0044444444445  L 14.1223140495868 70.0044444444445  L 12.9798347107438 68.3155555555556  L 11.8373553719008 66.5140740740741  L 4.60165289256199 68.3155555555556  L 1.80892561983473 65.9511111111111  L 0.285619834710755 60.8844444444444  L 1.80892561983473 58.8577777777778  L 4.09388429752064 58.2948148148148  L 8.28297520661157 58.2948148148148  L 7.77520661157026 54.5792592592593  L 6.63272727272728 52.2148148148148  L 6.12495867768597 49.1748148148148  L 9.80628099173555 44.3333333333333  L 11.0757024793389 44.3333333333333  L 16.1533884297521 46.4725925925926  C 16.1533884297521 46.4725925925926  17.4228099173554 46.4725925925926  18.0575206611571 46.4725925925926  C 18.5229752066116 45.9096296296296  19.4538842975206 44.7837037037037  19.4538842975206 44.7837037037037  L 17.0419834710744 43.5451851851852  C 17.0419834710744 43.5451851851852  17.4228099173554 42.0814814814815  20.4694214876033 41.4059259259259  C 23.5160330578512 40.7303703703704  24.7854545454545 41.4059259259259  24.7854545454545 41.4059259259259  L 26.4357024793388 37.3525925925926  L 26.4357024793388 34.4251851851852  L 27.8320661157025 32.3985185185185  L 26.4357024793388 30.1466666666667  L 24.7854545454545 29.0207407407407  L 20.4694214876033 28.12  L 17.0419834710744 25.7555555555556  L 14.1223140495868 23.8414814814815  Z " fill-rule="nonzero" fill="#6b6b6b" stroke="none" transform="matrix(1 0 0 1 607 279 )" />
  </g>
</svg>