<?xml version="1.0" encoding="utf-8"?>
<svg version="1.1" xmlns:xlink="http://www.w3.org/1999/xlink" width="118px" height="76px" xmlns="http://www.w3.org/2000/svg">
  <g transform="matrix(1 0 0 1 -464 -279 )">
    <path d="M 18.2595673876872 18.2119815668203  L 12.369384359401 10.6820276497696  L 11.5840266222962 5.6036866359447  L 14.7254575707155 4.36447046124465  L 17.8372093023256 4.36447046124465  L 20.7774086378738 3.8348623853211  L 23.1295681063123 4.36447046124465  L 26.265780730897 2.96330275229358  L 29.2059800664452 2.96330275229358  L 31.5581395348837 2.09174311926605  L 34.4983388704319 1.39449541284404  L 37.8935108153078 0  L 42.3388704318937 1.04587155963303  L 46.2591362126246 0.697247706422018  L 50.375415282392 2.09174311926605  L 52.531561461794 3.48623853211009  L 56.0598006644518 4.36447046124465  L 60.5681063122924 7.84403669724771  L 63.5083056478405 10.6820276497696  L 66.3627287853577 11.1785818076141  L 68.6046511627907 10.6820276497696  L 69.3887043189369 7.84403669724771  L 69.3887043189369 5.22935779816514  L 70.2895174708818 4.36447046124465  L 75.2691029900332 6.97247706422018  L 77.4252491694352 7.84403669724771  L 80.1694352159468 6.97247706422018  L 81.3455149501661 6.97247706422018  L 83.2479201331115 6.28639930252834  L 93.6539101497504 13.974114667663  L 95.6544850498339 13.974114667663  L 96.4026622296173 12.5763482376386  L 101.900166389351 17.1190891352182  L 107.004991680532 20.7882260140325  L 110.931780366057 19.7399011915141  L 110.931780366057 22.1376146788991  L 113.491694352159 24.4036697247706  L 114.275747508306 26.1467889908257  L 115.346866112866 29.2049150518309  L 116.039867109635 33.2718894009216  L 118 36.7798165137615  L 116.039867109635 40.7889908256881  L 113.491694352159 41.4862385321101  L 113.491694352159 43.4036697247706  L 111.923588039867 45.4954128440367  L 109.179401993355 45.4954128440367  L 105.651162790698 48.6330275229358  L 105.651162790698 49.5045871559633  L 108.591362126246 51.2477064220183  L 107.004991680532 53.1651376146789  L 100.133111480865 52.5874122970897  L 100.554817275748 59.9633027522936  L 104.671096345515 61.5321100917431  L 104.671096345515 62.7522935779817  C 104.671096345515 62.7522935779817  102.12292358804 61.7064220183486  101.338870431894 62.0550458715596  C 100.554817275748 62.4036697247706  101.900166389351 67.4193548387097  101.900166389351 67.4193548387097  L 96.8305647840532 67.4193548387097  L 96.4026622296173 70.0733944954128  L 94.8704318936877 67.8073394495413  L 91.5382059800665 66.9357798165138  L 90.3621262458472 64.6175115207373  L 87.9600665557404 66.0184331797235  L 84.2857142857143 62.0550458715596  L 83.6976744186046 60.6605504587156  L 81.7375415282392 59.9633027522936  L 80.5614617940199 57.8715596330275  L 80.5614617940199 56.036866359447  L 79.3853820598007 53.6880733944954  L 76.8372093023256 53.6880733944954  L 72.7209302325581 53.1651376146789  L 71.1528239202658 52.5874122970897  L 69.3887043189369 54.5596330275229  L 69.3887043189369 57  L 70.2895174708818 60.6605504587156  L 68.6046511627907 61.1834862385321  L 68.6046511627907 63.6238532110092  L 66.8405315614618 65.0183486238532  L 65.4874392940719 67.8874545999923  L 66.3627287853577 70.5963302752294  L 64.4883720930233 71.6422018348624  L 64.0963455149502 74.256880733945  L 62.1362126245847 74.954128440367  L 60.5681063122924 72.8623853211009  L 58.6079734219269 71.6422018348624  L 57.0398671096346 73.5596330275229  L 56.0598006644518 75.651376146789  L 54.3860232945092 76  L 51.5514950166113 74.954128440367  L 50.9634551495017 72.8623853211009  L 49.1993355481728 70.0733944954128  L 47.8272425249169 69.3761467889908  L 43.3910149750416 64.2672811059908  L 39.202657807309 65.0183486238532  L 30.8252911813644 64.6175115207373  L 24.3056478405316 62.0550458715596  L 20.7774086378738 61.1834862385321  L 15.9034941763727 59.0138248847926  C 15.9034941763727 59.0138248847926  13.5634020818017 55.0825688073394  11.5840266222962 54.5596330275229  C 9.6046511627907 54.0366972477064  9.459496904032 56.4734889878215  7.4485049833887 56.036866359447  C 5.66957357375803 55.6506282548591  4.81809100368083 54.5493859715993  3.72425249169435 53.1651376146789  C 1.67209273072049 50.5681374669081  0 47.63133640553  0 47.63133640553  L 0.785357737104832 45.4954128440367  L 2.54817275747508 40.4403669724771  L 2.54817275747508 37.8256880733945  L 0.785357737104832 35.9082568807339  L 0.785357737104832 33.2718894009216  L 2.54817275747508 31.8990825688073  L 3.1414309484193 26.6175115207373  L 6.27242524916944 26.6175115207373  L 9.40863787375415 27.7155963302752  L 13.9169435215947 28.5871559633028  L 15.9034941763727 27.7155963302752  L 15.9034941763727 25.4495412844037  L 14.7254575707155 21.7142857142857  L 18.2595673876872 18.2119815668203  Z " fill-rule="nonzero" fill="#169bd5" stroke="none" transform="matrix(1 0 0 1 464 279 )" />
  </g>
</svg>