<?xml version="1.0" encoding="utf-8"?>
<svg version="1.1" xmlns:xlink="http://www.w3.org/1999/xlink" width="104px" height="85px" xmlns="http://www.w3.org/2000/svg">
  <g transform="matrix(1 0 0 1 -710 -137 )">
    <path d="M 0.116417910447788 8.39506172839507  L 0.892537313432862 3.21810699588477  L 11.1373134328358 0.139917695473253  L 15.7940298507463 1.53909465020576  L 24.6417910447761 1.95884773662552  L 32.8686567164179 9.79423868312758  L 42.8029850746269 20.8477366255144  L 47.7701492537313 30.3621399176955  L 56.1522388059702 30.7818930041152  L 65.620895522388 32.320987654321  L 68.2597014925373 33.8600823045268  L 71.0537313432835 33.440329218107  L 71.6746268656717 36.5185185185185  L 73.3820895522388 37.6378600823045  L 74.9343283582089 39.1769547325103  L 73.8477611940299 40.4362139917696  L 77.7283582089553 43.9341563786008  L 88.7492537313433 41.8361795421914  L 90.7671641791045 39.59670781893  C 90.7671641791045 39.59670781893  90.6119402985074 37.7777777777778  91.2328358208955 36.5185185185185  C 91.8537313432836 35.2592592592593  94.8029850746269 34.8395061728395  94.8029850746269 34.8395061728395  C 94.8029850746269 34.8395061728395  95.8895522388059 32.1810699588477  96.9761194029851 31.4814814814815  C 98.0626865671643 30.7818930041152  100.85671641791 30.3621399176955  100.85671641791 30.3621399176955  L 100.85671641791 33.440329218107  L 101.788059701493 35.3991769547325  L 102.874626865672 36.5185185185185  L 102.874626865672 38.1975308641975  L 101.788059701493 39.59670781893  L 102.091352326608 41.8361795421914  L 103.49552238806 48.8312757201646  L 103.961194029851 56.8065843621399  L 103.49552238806 58.4855967078189  L 102.091352326608 61.7037037037037  L 100.391044776119 63.3827160493827  L 96.9761194029851 63.3827160493827  L 95.5792786161651 62.962962962963  L 93.4059701492537 62.962962962963  L 89.9910447761194 66.0411522633745  L 87.9731343283582 69.5390946502058  L 89.3701492537314 72.1975308641975  L 92.0089552238806 74.9958847736626  L 93.4059701492537 82.1316872427984  L 92.0089552238806 82.1316872427984  L 87.9731343283582 80.4526748971193  L 87.9731343283582 79.0534979423868  L 87.9731343283582 77.7942386831276  L 85.8 77.7942386831276  L 85.0238805970149 80.4526748971193  L 84.5582089552239 80.4526748971193  L 82.2298507462687 79.0534979423868  C 82.2298507462687 79.0534979423868  79.7462686567164 79.8930041152263  78.8149253731343 81.7119341563786  C 77.8835820895522 83.5308641975309  79.4622214493316 84.4961140856003  79.4622214493316 84.4961140856003  L 77.7283582089553 84.7901234567901  L 74.4686567164179 81.7119341563786  L 71.6746268656717 80.4526748971193  L 71.6746268656717 78.4938271604938  L 70.5880597014926 76.9547325102881  L 69.1910447761195 76.9547325102881  L 68.2597014925373 78.4938271604938  L 68.2597014925373 80.4526748971193  L 67.7940298507463 81.0123456790124  L 66.5522388059701 81.0123456790124  L 66.0865671641792 78.4938271604938  L 61.8955223880597 75.6954732510288  L 61.4298507462687 76.9547325102881  L 59.5671641791045 76.9547325102881  L 59.5671641791045 75.6954732510288  L 58.0149253731343 73.3168724279835  L 52.5820895522388 73.3168724279835  L 51.9611940298508 74.9958847736626  C 51.9611940298508 74.9958847736626  51.0298507462687 74.1563786008231  50.5641791044777 73.7366255144033  C 50.5641791044777 73.4567901234568  50.5641791044777 72.8971193415638  50.5641791044777 72.8971193415638  L 48.7014925373134 70.9382716049383  L 45.9074626865672 72.1975308641975  L 44.3552238805971 71.7777777777778  L 42.3373134328358 72.1975308641975  L 38.9223880597016 73.3168724279835  L 37.6805970149253 73.3168724279835  L 34.576119402985 70.9382716049383  L 33.4895522388059 68.559670781893  L 31.9373134328358 65.3415637860082  L 27.9014925373135 67.440329218107  L 26.5044776119403 66.7407407407407  L 26.0388059701492 62.1234567901235  L 23.555223880597 61.7037037037037  L 23.555223880597 60.724279835391  L 19.8298507462687 56.8065843621399  L 22.0029850746269 54.1481481481482  L 23.555223880597 53.7283950617284  L 24.6417910447761 52.3292181069959  L 26.5044776119403 47.5720164609054  L 28.5223880597015 46.4526748971193  L 31.1611940298507 47.5720164609054  L 32.4029850746269 47.0123456790124  L 33.4895522388059 42.9547325102881  L 32.4029850746269 40.9958847736626  L 32.8686567164179 38.1975308641975  L 34.7995378040767 36.0987654320988  L 35.1970149253732 34.2798353909465  L 33.955223880597 29.1028806584362  L 34.7995378040767 25.3227595529322  L 33.955223880597 23.3662551440329  L 34.576119402985 20.2880658436214  L 31.1611940298507 14.5514403292181  L 28.5223880597015 13.1522633744856  L 25.5731343283582 14.5514403292181  L 24.6417910447761 16.2304526748971  L 22.0029850746269 16.7901234567901  L 18.5880597014926 18.7489711934156  L 17.1910447761194 19.4485596707819  L 14.5522388059701 18.7489711934156  L 11.1373134328358 15.2510288065844  L 11.1373134328358 12.1728395061728  L 12.0686567164179 10.6337448559671  L 7.41194029850747 9.09465020576132  L 5.85970149253732 9.79423868312758  L 4.92835820895524 11.3333333333333  L 1.51343283582089 11.3333333333333  L 0.892537313432862 9.79423868312758  L 0.116417910447788 8.39506172839507  Z " fill-rule="nonzero" fill="#169bd5" stroke="none" transform="matrix(1 0 0 1 710 137 )" />
  </g>
</svg>