<?xml version="1.0" encoding="utf-8"?>
<svg version="1.1" xmlns:xlink="http://www.w3.org/1999/xlink" width="17px" height="15px" xmlns="http://www.w3.org/2000/svg">
  <g transform="matrix(1 0 0 1 -2133 -1434 )">
    <path d="M 7.46814903846154 1.40206473214286  C 7.21614583333333 1.181640625  6.90625 1.07142857142857  6.53846153846154 1.07142857142857  C 6.17748397435898 1.07142857142857  5.86929086538462 1.17606026785714  5.61388221153846 1.38532366071429  C 5.35847355769231 1.59458705357143  5.23076923076923 1.84709821428571  5.23076923076923 2.14285714285714  L 5.23076923076923 6.42857142857143  L 5.23076923076923 9.64285714285714  L 3.68810096153846 7.95200892857143  C 3.40885416666667 7.65066964285714  3.04447115384615 7.5  2.59495192307692 7.5  C 2.24078525641026 7.5  1.93770032051282 7.60602678571428  1.68569711538462 7.81808035714286  C 1.43369391025641 8.03013392857143  1.30769230769231 8.28125  1.30769230769231 8.57142857142857  C 1.30769230769231 8.81138392857143  1.39623397435897 9.02622767857143  1.57331730769231 9.21595982142857  L 5.49639423076923 13.5016741071429  C 5.75520833333333 13.7862723214286  6.1025641025641 13.9285714285714  6.53846153846154 13.9285714285714  L 13.8737980769231 13.9285714285714  C 14.0236378205128 13.9285714285714  14.1581530448718 13.8909040178571  14.27734375 13.8155691964286  C 14.3965344551282 13.740234375  14.4731570512821 13.6439732142857  14.5072115384615 13.5267857142857  L 15.4471153846154 10.4464285714286  C 15.6105769230769 9.91071428571428  15.6923076923077 9.36941964285714  15.6923076923077 8.82254464285714  L 15.6923076923077 7.00613839285714  C 15.6923076923077 6.77734375  15.5969551282051 6.57924107142857  15.40625 6.41183035714286  C 15.2155448717949 6.24441964285714  14.9839743589744 6.16071428571429  14.7115384615385 6.16071428571429  C 14.4391025641026 6.16071428571429  14.2075320512821 6.23883928571428  14.0168269230769 6.39508928571429  C 13.8261217948718 6.55133928571428  13.7307692307692 6.74107142857143  13.7307692307692 6.96428571428571  L 13.4038461538462 6.96428571428571  L 13.4038461538462 6.45368303571429  C 13.4038461538462 6.18582589285714  13.2948717948718 5.95842633928571  13.0769230769231 5.771484375  C 12.8589743589744 5.58454241071428  12.5865384615385 5.49107142857143  12.2596153846154 5.49107142857143  C 11.9463141025641 5.49107142857143  11.6772836538462 5.58314732142857  11.4525240384615 5.76729910714286  C 11.2277644230769 5.95145089285714  11.1153846153846 6.171875  11.1153846153846 6.42857142857143  L 11.1153846153846 6.96428571428571  L 10.7884615384615 6.96428571428571  L 10.7884615384615 6.2109375  C 10.7884615384615 5.90401785714286  10.6624599358974 5.64034598214286  10.4104567307692 5.419921875  C 10.158453525641 5.19949776785714  9.84855769230769 5.08928571428571  9.48076923076923 5.08928571428571  C 9.11979166666667 5.08928571428571  8.81159855769231 5.19391741071429  8.55618990384615 5.40318080357143  C 8.30078125 5.61244419642857  8.17307692307692 5.86495535714286  8.17307692307692 6.16071428571429  L 8.17307692307692 6.96428571428571  L 7.84615384615385 6.96428571428571  L 7.84615384615385 2.19308035714286  C 7.84615384615385 1.88616071428571  7.72015224358974 1.62248883928571  7.46814903846154 1.40206473214286  Z M 4.68930288461538 0.627790178571429  C 5.20012019230769 0.209263392857144  5.81650641025641 0  6.53846153846154 0  C 7.26722756410256 0  7.88531650641026 0.216238839285715  8.39272836538462 0.648716517857144  C 8.90014022435898 1.08119419642857  9.15384615384615 1.59598214285714  9.15384615384615 2.19308035714286  L 9.15384615384615 4.03459821428571  C 9.3036858974359 4.0234375  9.41266025641026 4.01785714285714  9.48076923076923 4.01785714285714  C 10.1550480769231 4.01785714285714  10.7441907051282 4.21037946428571  11.2481971153846 4.59542410714286  C 11.5683092948718 4.47823660714286  11.9054487179487 4.41964285714286  12.2596153846154 4.41964285714286  C 13.0292467948718 4.41964285714286  13.6558493589744 4.66238839285714  14.1394230769231 5.14787946428571  C 14.3233173076923 5.10881696428571  14.5140224358974 5.08928571428571  14.7115384615385 5.08928571428571  C 15.3517628205128 5.08928571428571  15.8932291666667 5.27762276785714  16.3359375 5.654296875  C 16.7786458333333 6.03097098214286  17 6.48158482142857  17 7.00613839285714  L 17 8.82254464285714  C 17 9.46986607142857  16.9046474358974 10.09765625  16.7139423076923 10.7059151785714  L 15.7740384615385 13.7862723214286  C 15.6650641025641 14.1434151785714  15.4334935897436 14.4349888392857  15.0793269230769 14.6609933035714  C 14.7251602564103 14.8869977678571  14.3233173076923 15  13.8737980769231 15  L 6.53846153846154 15  C 6.12980769230769 15  5.73988381410256 14.9232700892857  5.36868990384615 14.7698102678571  C 4.99749599358974 14.6163504464286  4.68930288461539 14.4084821428571  4.44411057692308 14.1462053571429  L 0.521033653846154 9.86049107142857  C 0.173677884615385 9.48102678571428  0 9.05133928571429  0 8.57142857142857  C 0 7.98549107142857  0.253705929487179 7.48186383928571  0.761117788461538 7.060546875  C 1.2685296474359 6.63922991071429  1.87980769230769 6.42857142857143  2.59495192307692 6.42857142857143  C 3.07852564102564 6.42857142857143  3.52123397435897 6.52622767857143  3.92307692307692 6.72154017857143  L 3.92307692307692 2.14285714285714  C 3.92307692307692 1.55133928571428  4.17848557692308 1.04631696428571  4.68930288461538 0.627790178571429  Z M 7.51923076923077 11.7857142857143  L 7.84615384615385 11.7857142857143  L 7.84615384615385 8.57142857142857  L 7.51923076923077 8.57142857142857  L 7.51923076923077 11.7857142857143  Z M 10.1346153846154 11.7857142857143  L 10.4615384615385 11.7857142857143  L 10.4615384615385 8.57142857142857  L 10.1346153846154 8.57142857142857  L 10.1346153846154 11.7857142857143  Z M 12.75 11.7857142857143  L 13.0769230769231 11.7857142857143  L 13.0769230769231 8.57142857142857  L 12.75 8.57142857142857  L 12.75 11.7857142857143  Z " fill-rule="nonzero" fill="#aaaaaa" stroke="none" transform="matrix(1 0 0 1 2133 1434 )" />
  </g>
</svg>