<?xml version="1.0" encoding="utf-8"?>
<svg version="1.1" xmlns:xlink="http://www.w3.org/1999/xlink" width="12px" height="12px" viewBox="2053 1422.5  12 12" xmlns="http://www.w3.org/2000/svg">
  <path d="M 2059 1422.5  C 2062.36 1422.5  2065 1425.14  2065 1428.5  C 2065 1431.86  2062.36 1434.5  2059 1434.5  C 2055.64 1434.5  2053 1431.86  2053 1428.5  C 2053 1425.14  2055.64 1422.5  2059 1422.5  Z " fill-rule="nonzero" fill="#ffffff" stroke="none" />
  <path d="M 2059 1423  C 2062.08 1423  2064.5 1425.42  2064.5 1428.5  C 2064.5 1431.58  2062.08 1434  2059 1434  C 2055.92 1434  2053.5 1431.58  2053.5 1428.5  C 2053.5 1425.42  2055.92 1423  2059 1423  Z " stroke-width="1" stroke="#797979" fill="none" />
  <path d="M 2059 1431.5  C 2057.32 1431.5  2056 1430.18  2056 1428.5  C 2056 1426.82  2057.32 1425.5  2059 1425.5  C 2060.68 1425.5  2062 1426.82  2062 1428.5  C 2062 1430.18  2060.68 1431.5  2059 1431.5  " fill-rule="nonzero" fill="#797979" stroke="none" />
</svg>