<?xml version="1.0" encoding="utf-8"?>
<svg version="1.1" xmlns:xlink="http://www.w3.org/1999/xlink" width="12px" height="12px" viewBox="2290 2416  12 12" xmlns="http://www.w3.org/2000/svg">
  <path d="M 2296 2416  C 2299.36 2416  2302 2418.64  2302 2422  C 2302 2425.36  2299.36 2428  2296 2428  C 2292.64 2428  2290 2425.36  2290 2422  C 2290 2418.64  2292.64 2416  2296 2416  Z " fill-rule="nonzero" fill="#ffffff" stroke="none" />
  <path d="M 2296 2416.5  C 2299.08 2416.5  2301.5 2418.92  2301.5 2422  C 2301.5 2425.08  2299.08 2427.5  2296 2427.5  C 2292.92 2427.5  2290.5 2425.08  2290.5 2422  C 2290.5 2418.92  2292.92 2416.5  2296 2416.5  Z " stroke-width="1" stroke="#797979" fill="none" />
  <path d="M 2296 2425  C 2294.32 2425  2293 2423.68  2293 2422  C 2293 2420.32  2294.32 2419  2296 2419  C 2297.68 2419  2299 2420.32  2299 2422  C 2299 2423.68  2297.68 2425  2296 2425  " fill-rule="nonzero" fill="#797979" stroke="none" />
</svg>