<?xml version="1.0" encoding="utf-8"?>
<svg version="1.1" xmlns:xlink="http://www.w3.org/1999/xlink" width="138px" height="22px" xmlns="http://www.w3.org/2000/svg">
  <g transform="matrix(1 0 0 1 -1861 -547 )">
    <path d="M 1874.5 554.5  A 3.5 3.5 0 0 0 1871 558 A 3.5 3.5 0 0 0 1874.5 561.5 A 3.5 3.5 0 0 0 1878 558 A 3.5 3.5 0 0 0 1874.5 554.5 Z M 1981.89289321881 553.707106781187  L 1986.18578643763 558  L 1981.89289321881 562.292893218813  L 1983.30710678119 563.707106781187  L 1988.30710678119 558.707106781187  L 1989.01421356237 558  L 1988.30710678119 557.292893218813  L 1983.30710678119 552.292893218813  L 1981.89289321881 553.707106781187  Z " fill-rule="nonzero" fill="#ff0000" stroke="none" />
    <path d="M 1873 558  L 1987 558  " stroke-width="2" stroke="#ff0000" fill="none" />
  </g>
</svg>