<?xml version="1.0" encoding="utf-8"?>
<svg version="1.1" xmlns:xlink="http://www.w3.org/1999/xlink" width="254px" height="22px" xmlns="http://www.w3.org/2000/svg">
  <g transform="matrix(1 0 0 1 -2168 -600 )">
    <path d="M 2181.5 607.5  A 3.5 3.5 0 0 0 2178 611 A 3.5 3.5 0 0 0 2181.5 614.5 A 3.5 3.5 0 0 0 2185 611 A 3.5 3.5 0 0 0 2181.5 607.5 Z M 2404.89289321881 606.707106781187  L 2409.18578643763 611  L 2404.89289321881 615.292893218813  L 2406.30710678119 616.707106781187  L 2411.30710678119 611.707106781187  L 2412.01421356237 611  L 2411.30710678119 610.292893218813  L 2406.30710678119 605.292893218813  L 2404.89289321881 606.707106781187  Z " fill-rule="nonzero" fill="#ff0000" stroke="none" />
    <path d="M 2180 611  L 2410 611  " stroke-width="2" stroke="#ff0000" fill="none" />
  </g>
</svg>