<?xml version="1.0" encoding="utf-8"?>
<svg version="1.1" xmlns:xlink="http://www.w3.org/1999/xlink" width="386px" height="22px" xmlns="http://www.w3.org/2000/svg">
  <g transform="matrix(1 0 0 1 -2535 -864 )">
    <path d="M 2548.5 871.5  A 3.5 3.5 0 0 0 2545 875 A 3.5 3.5 0 0 0 2548.5 878.5 A 3.5 3.5 0 0 0 2552 875 A 3.5 3.5 0 0 0 2548.5 871.5 Z M 2903.89289321881 870.707106781187  L 2908.18578643763 875  L 2903.89289321881 879.292893218813  L 2905.30710678119 880.707106781187  L 2910.30710678119 875.707106781187  L 2911.01421356237 875  L 2910.30710678119 874.292893218813  L 2905.30710678119 869.292893218813  L 2903.89289321881 870.707106781187  Z " fill-rule="nonzero" fill="#ff0000" stroke="none" />
    <path d="M 2547 875  L 2909 875  " stroke-width="2" stroke="#ff0000" fill="none" />
  </g>
</svg>