<?xml version="1.0" encoding="utf-8"?>
<svg version="1.1" xmlns:xlink="http://www.w3.org/1999/xlink" width="17px" height="16px" xmlns="http://www.w3.org/2000/svg">
  <defs>
    <mask fill="white" id="clip1216">
      <path d="M 4.60627062706271 4.33531353135314  C 4.88679867986799 4.07128712871287  5.02706270627063 3.75269526952695  5.02706270627063 3.37953795379538  C 5.02706270627063 3.0063806380638  4.88679867986799 2.68778877887789  4.60627062706271 2.42376237623762  C 4.32574257425743 2.15973597359736  3.98723872387239 2.02772277227723  3.59075907590759 2.02772277227723  C 3.19427942794279 2.02772277227723  2.85577557755776 2.15973597359736  2.57524752475248 2.42376237623762  C 2.29471947194719 2.68778877887789  2.15445544554455 3.0063806380638  2.15445544554455 3.37953795379538  C 2.15445544554455 3.75269526952695  2.29471947194719 4.07128712871287  2.57524752475248 4.33531353135314  C 2.85577557755776 4.5993399339934  3.19427942794279 4.73135313531353  3.59075907590759 4.73135313531353  C 3.98723872387239 4.73135313531353  4.32574257425743 4.5993399339934  4.60627062706271 4.33531353135314  Z M 16.5848184818482 8.5016501650165  C 16.8616061606161 8.77623762376238  17 9.0965896589659  17 9.46270627062706  C 17 9.83586358635863  16.8616061606161 10.152695269527  16.5848184818482 10.413201320132  L 11.0752475247525 15.6092409240924  C 10.783498349835 15.8697469746975  10.4431243124312 16  10.0541254125413 16  C 9.65764576457646 16  9.32101210121012 15.8697469746975  9.04422442244224 15.6092409240924  L 1.02112211221122 8.04752475247525  C 0.736853685368537 7.78701870187019  0.495599559955996 7.43146314631463  0.297359735973597 6.98085808580858  C 0.0991199119911991 6.53025302530253  0 6.11837183718372  0 5.74521452145214  L 0 1.35181518151815  C 0 0.985698569856986  0.142134213421342 0.668866886688669  0.426402640264026 0.4013201320132  C 0.710671067106711 0.133773377337732  1.04730473047305 0  1.43630363036304 0  L 6.1042904290429 0  C 6.5007700770077 0  6.93839383938394 0.093289328932892  7.41716171617162 0.27986798679868  C 7.8959295929593 0.466446644664465  8.27744774477448 0.693509350935091  8.56171617161716 0.961056105610561  L 16.5848184818482 8.5016501650165  Z " fill-rule="evenodd" />
    </mask>
  </defs>
  <g transform="matrix(1 0 0 1 -1427 -273 )">
    <path d="M 4.60627062706271 4.33531353135314  C 4.88679867986799 4.07128712871287  5.02706270627063 3.75269526952695  5.02706270627063 3.37953795379538  C 5.02706270627063 3.0063806380638  4.88679867986799 2.68778877887789  4.60627062706271 2.42376237623762  C 4.32574257425743 2.15973597359736  3.98723872387239 2.02772277227723  3.59075907590759 2.02772277227723  C 3.19427942794279 2.02772277227723  2.85577557755776 2.15973597359736  2.57524752475248 2.42376237623762  C 2.29471947194719 2.68778877887789  2.15445544554455 3.0063806380638  2.15445544554455 3.37953795379538  C 2.15445544554455 3.75269526952695  2.29471947194719 4.07128712871287  2.57524752475248 4.33531353135314  C 2.85577557755776 4.5993399339934  3.19427942794279 4.73135313531353  3.59075907590759 4.73135313531353  C 3.98723872387239 4.73135313531353  4.32574257425743 4.5993399339934  4.60627062706271 4.33531353135314  Z M 16.5848184818482 8.5016501650165  C 16.8616061606161 8.77623762376238  17 9.0965896589659  17 9.46270627062706  C 17 9.83586358635863  16.8616061606161 10.152695269527  16.5848184818482 10.413201320132  L 11.0752475247525 15.6092409240924  C 10.783498349835 15.8697469746975  10.4431243124312 16  10.0541254125413 16  C 9.65764576457646 16  9.32101210121012 15.8697469746975  9.04422442244224 15.6092409240924  L 1.02112211221122 8.04752475247525  C 0.736853685368537 7.78701870187019  0.495599559955996 7.43146314631463  0.297359735973597 6.98085808580858  C 0.0991199119911991 6.53025302530253  0 6.11837183718372  0 5.74521452145214  L 0 1.35181518151815  C 0 0.985698569856986  0.142134213421342 0.668866886688669  0.426402640264026 0.4013201320132  C 0.710671067106711 0.133773377337732  1.04730473047305 0  1.43630363036304 0  L 6.1042904290429 0  C 6.5007700770077 0  6.93839383938394 0.093289328932892  7.41716171617162 0.27986798679868  C 7.8959295929593 0.466446644664465  8.27744774477448 0.693509350935091  8.56171617161716 0.961056105610561  L 16.5848184818482 8.5016501650165  Z " fill-rule="nonzero" fill="#effaff" stroke="none" transform="matrix(1 0 0 1 1427 273 )" />
    <path d="M 4.60627062706271 4.33531353135314  C 4.88679867986799 4.07128712871287  5.02706270627063 3.75269526952695  5.02706270627063 3.37953795379538  C 5.02706270627063 3.0063806380638  4.88679867986799 2.68778877887789  4.60627062706271 2.42376237623762  C 4.32574257425743 2.15973597359736  3.98723872387239 2.02772277227723  3.59075907590759 2.02772277227723  C 3.19427942794279 2.02772277227723  2.85577557755776 2.15973597359736  2.57524752475248 2.42376237623762  C 2.29471947194719 2.68778877887789  2.15445544554455 3.0063806380638  2.15445544554455 3.37953795379538  C 2.15445544554455 3.75269526952695  2.29471947194719 4.07128712871287  2.57524752475248 4.33531353135314  C 2.85577557755776 4.5993399339934  3.19427942794279 4.73135313531353  3.59075907590759 4.73135313531353  C 3.98723872387239 4.73135313531353  4.32574257425743 4.5993399339934  4.60627062706271 4.33531353135314  Z " stroke-width="2" stroke="#00aef0" fill="none" transform="matrix(1 0 0 1 1427 273 )" mask="url(#clip1216)" />
    <path d="M 16.5848184818482 8.5016501650165  C 16.8616061606161 8.77623762376238  17 9.0965896589659  17 9.46270627062706  C 17 9.83586358635863  16.8616061606161 10.152695269527  16.5848184818482 10.413201320132  L 11.0752475247525 15.6092409240924  C 10.783498349835 15.8697469746975  10.4431243124312 16  10.0541254125413 16  C 9.65764576457646 16  9.32101210121012 15.8697469746975  9.04422442244224 15.6092409240924  L 1.02112211221122 8.04752475247525  C 0.736853685368537 7.78701870187019  0.495599559955996 7.43146314631463  0.297359735973597 6.98085808580858  C 0.0991199119911991 6.53025302530253  0 6.11837183718372  0 5.74521452145214  L 0 1.35181518151815  C 0 0.985698569856986  0.142134213421342 0.668866886688669  0.426402640264026 0.4013201320132  C 0.710671067106711 0.133773377337732  1.04730473047305 0  1.43630363036304 0  L 6.1042904290429 0  C 6.5007700770077 0  6.93839383938394 0.093289328932892  7.41716171617162 0.27986798679868  C 7.8959295929593 0.466446644664465  8.27744774477448 0.693509350935091  8.56171617161716 0.961056105610561  L 16.5848184818482 8.5016501650165  Z " stroke-width="2" stroke="#00aef0" fill="none" transform="matrix(1 0 0 1 1427 273 )" mask="url(#clip1216)" />
  </g>
</svg>